SplineFontDB: 3.0
FontName: Economica-BoldItalic
FullName: Economica Bold Italic
FamilyName: Economica
Weight: Bold
Copyright: Copyright (c) 2012, Vicente Lamonaca (produccion.taller@gmail.com www.tipografia-montevideo.info www.tipotype.com)
Version: 1.100
ItalicAngle: 0
UnderlinePosition: -25
UnderlineWidth: 24
Ascent: 800
Descent: 200
sfntRevision: 0x00011999
LayerCount: 2
Layer: 0 1 "Back"  1
Layer: 1 1 "Fore"  0
XUID: [1021 428 1659378681 4144784]
FSType: 0
OS2Version: 2
OS2_WeightWidthSlopeOnly: 0
OS2_UseTypoMetrics: 1
CreationTime: 1330105923
ModificationTime: 1330123050
PfmFamily: 17
TTFWeight: 700
TTFWidth: 5
LineGap: 0
VLineGap: 0
Panose: 2 0 8 6 6 0 0 9 0 4
OS2TypoAscent: 149
OS2TypoAOffset: 1
OS2TypoDescent: 0
OS2TypoDOffset: 1
OS2TypoLinegap: 0
OS2WinAscent: 0
OS2WinAOffset: 1
OS2WinDescent: 8
OS2WinDOffset: 1
HheadAscent: 0
HheadAOffset: 1
HheadDescent: -8
HheadDOffset: 1
OS2SubXSize: 700
OS2SubYSize: 650
OS2SubXOff: 0
OS2SubYOff: 140
OS2SupXSize: 700
OS2SupYSize: 650
OS2SupXOff: 0
OS2SupYOff: 477
OS2StrikeYSize: 50
OS2StrikeYPos: 250
OS2FamilyClass: 2050
OS2CodePages: 20000001.00000000
OS2UnicodeRanges: 800000af.4000204a.00000000.00000000
Lookup: 4 0 1 "'liga' Standard Ligatures in Latin lookup 0"  {"'liga' Standard Ligatures in Latin lookup 0 subtable"  } ['liga' ('latn' <'dflt' > ) ]
Lookup: 258 0 0 "'kern' Horizontal Kerning in Latin lookup 0"  {"'kern' Horizontal Kerning in Latin lookup 0 subtable"  } ['kern' ('latn' <'dflt' > ) ]
DEI: 91125
TtTable: prep
PUSHW_1
 511
SCANCTRL
PUSHB_1
 4
SCANTYPE
EndTTInstrs
ShortTable: maxp 16
  1
  0
  260
  75
  5
  57
  4
  2
  0
  1
  1
  0
  64
  0
  2
  1
EndShort

StartChar: exclam
Encoding: 33 33 4
Width: 161
GlyphClass: 2
Flags: W
LayerCount: 2
Fore
SplineSet
129.5 102.5 m 128,-1,1
 144 88 144 88 144 64.5 c 128,-1,2
 144 41 144 41 124.5 22.5 c 128,-1,3
 105 4 105 4 81 4 c 128,-1,4
 57 4 57 4 42.5 18 c 128,-1,5
 28 32 28 32 28 54.5 c 128,-1,6
 28 77 28 77 48 97 c 128,-1,7
 68 117 68 117 91.5 117 c 128,-1,0
 115 117 115 117 129.5 102.5 c 128,-1,1
121 176 m 1,8,-1
 75 178 l 1,9,-1
 158 661 l 2,10,11
 163 693 163 693 174 703 c 128,-1,12
 185 713 185 713 212 713 c 1,13,-1
 263 711 l 1,14,-1
 169 229 l 2,15,16
 163 196 163 196 155 186 c 128,-1,17
 147 176 147 176 121 176 c 1,8,-1
EndSplineSet
EndChar

StartChar: quotedbl
Encoding: 34 34 5
Width: 332
GlyphClass: 2
Flags: W
LayerCount: 2
Fore
SplineSet
153 617 m 0,0,1
 153 625 153 625 147.5 640 c 128,-1,2
 142 655 142 655 142 664 c 0,3,4
 142 686 142 686 163 704 c 128,-1,5
 184 722 184 722 207 722 c 128,-1,6
 230 722 230 722 244 707.5 c 128,-1,7
 258 693 258 693 258 674.5 c 128,-1,8
 258 656 258 656 236 608.5 c 128,-1,9
 214 561 214 561 192 519.5 c 128,-1,10
 170 478 170 478 168 478 c 1,11,-1
 131 505 l 1,12,-1
 126 522 l 1,13,14
 153 581 153 581 153 617 c 0,0,1
289 617 m 1,15,-1
 279 664 l 1,16,17
 279 686 279 686 300 704 c 128,-1,18
 321 722 321 722 343.5 722 c 128,-1,19
 366 722 366 722 380 707.5 c 128,-1,20
 394 693 394 693 394 674.5 c 128,-1,21
 394 656 394 656 372 608.5 c 128,-1,22
 350 561 350 561 328 519.5 c 128,-1,23
 306 478 306 478 304 478 c 1,24,-1
 268 505 l 1,25,-1
 263 522 l 1,26,27
 289 579 289 579 289 617 c 1,15,-1
EndSplineSet
EndChar

StartChar: numbersign
Encoding: 35 35 6
Width: 655
GlyphClass: 2
Flags: W
LayerCount: 2
Fore
SplineSet
617 226 m 1,0,-1
 448 226 l 1,1,-1
 323 0 l 1,2,-1
 226 0 l 1,3,-1
 351 226 l 1,4,-1
 246 226 l 1,5,-1
 121 0 l 1,6,-1
 24 0 l 1,7,-1
 149 226 l 1,8,-1
 50 226 l 1,9,-1
 63 314 l 1,10,-1
 199 314 l 1,11,-1
 259 421 l 1,12,-1
 122 421 l 1,13,-1
 135 509 l 1,14,-1
 309 509 l 1,15,-1
 427 722 l 1,16,-1
 524 722 l 1,17,-1
 404 509 l 1,18,-1
 510 509 l 1,19,-1
 629 722 l 1,20,-1
 725 722 l 1,21,-1
 606 509 l 1,22,-1
 703 509 l 1,23,-1
 689 421 l 1,24,-1
 558 421 l 1,25,-1
 497 314 l 1,26,-1
 631 314 l 1,27,-1
 617 226 l 1,0,-1
400 314 m 1,28,-1
 461 421 l 1,29,-1
 356 421 l 1,30,-1
 295 314 l 1,31,-1
 400 314 l 1,28,-1
EndSplineSet
EndChar

StartChar: dollar
Encoding: 36 36 7
Width: 392
GlyphClass: 2
Flags: W
LayerCount: 2
Fore
SplineSet
144 -97.5 m 128,-1,1
 144 -93 144 -93 156 -6 c 1,2,3
 105 0 105 0 62 12 c 1,4,-1
 72 82 l 1,5,6
 86 81 86 81 129 76.5 c 128,-1,7
 172 72 172 72 192 72 c 0,8,9
 259 72 259 72 259 170 c 0,10,11
 259 198 259 198 185 259 c 0,12,13
 157 282 157 282 134 316 c 128,-1,14
 111 350 111 350 111 383 c 0,15,16
 111 526 111 526 238 542 c 1,17,-1
 252 626 l 1,18,19
 296 626 296 626 308 621.5 c 128,-1,20
 320 617 320 617 320 595 c 1,21,-1
 314 534 l 1,22,-1
 373 527 l 1,23,24
 361 457 361 457 317 457 c 0,25,26
 309 457 309 457 267 465 c 1,27,28
 196 464 196 464 196 394 c 0,29,30
 196 365 196 365 274 304 c 0,31,32
 303 282 303 282 327.5 249 c 128,-1,33
 352 216 352 216 352 185 c 0,34,35
 352 118 352 118 320.5 65.5 c 128,-1,36
 289 13 289 13 233 -2 c 1,37,-1
 213 -115 l 1,38,39
 154 -115 154 -115 149 -108.5 c 128,-1,0
 144 -102 144 -102 144 -97.5 c 128,-1,1
EndSplineSet
EndChar

StartChar: percent
Encoding: 37 37 8
Width: 611
GlyphClass: 2
Flags: W
LayerCount: 2
Fore
SplineSet
205 393 m 0,0,1
 159 393 159 393 139 412.5 c 128,-1,2
 119 432 119 432 119 486 c 0,3,4
 119 605 119 605 157 665 c 128,-1,5
 195 725 195 725 248.5 725 c 128,-1,6
 302 725 302 725 322.5 708.5 c 128,-1,7
 343 692 343 692 343 640 c 0,8,9
 343 531 343 531 306.5 462 c 128,-1,10
 270 393 270 393 205 393 c 0,0,1
213 467 m 0,11,12
 229 467 229 467 241 486 c 128,-1,13
 253 505 253 505 258 534 c 0,14,15
 269 588 269 588 269 615.5 c 128,-1,16
 269 643 269 643 263.5 647.5 c 128,-1,17
 258 652 258 652 246 652 c 0,18,19
 224 652 224 652 210 620 c 0,20,21
 191 574 191 574 191 500 c 0,22,23
 191 467 191 467 213 467 c 0,11,12
493.5 18 m 128,-1,25
 464 -7 464 -7 420 -7 c 128,-1,26
 376 -7 376 -7 356 12.5 c 128,-1,27
 336 32 336 32 336 86 c 0,28,29
 336 197 336 197 369 261.5 c 128,-1,30
 402 326 402 326 470 326 c 0,31,32
 518 326 518 326 538.5 309.5 c 128,-1,33
 559 293 559 293 559 247 c 128,-1,34
 559 201 559 201 554 164 c 128,-1,35
 549 127 549 127 536 85 c 128,-1,24
 523 43 523 43 493.5 18 c 128,-1,25
414 73.5 m 128,-1,37
 419 67 419 67 432.5 67 c 128,-1,38
 446 67 446 67 458 86 c 128,-1,39
 470 105 470 105 476 133 c 0,40,41
 486 186 486 186 486 214.5 c 128,-1,42
 486 243 486 243 481 247.5 c 128,-1,43
 476 252 476 252 464 252 c 0,44,45
 409 252 409 252 409 98 c 0,46,36
 409 80 409 80 414 73.5 c 128,-1,37
196 14 m 1,47,-1
 99 14 l 1,48,-1
 502 736 l 1,49,-1
 599 736 l 1,50,-1
 196 14 l 1,47,-1
EndSplineSet
EndChar

StartChar: ampersand
Encoding: 38 38 9
Width: 536
GlyphClass: 2
Flags: W
LayerCount: 2
Fore
SplineSet
384 613 m 1,0,-1
 339 611 l 1,1,-1
 303 611 l 2,2,3
 222 611 222 611 222 474 c 0,4,5
 222 445 222 445 239.5 438 c 128,-1,6
 257 431 257 431 300 431 c 1,7,-1
 286 347 l 1,8,9
 235 347 235 347 194.5 296.5 c 128,-1,10
 154 246 154 246 154 164 c 0,11,12
 154 75 154 75 242 75 c 0,13,14
 298 75 298 75 328.5 109 c 128,-1,15
 359 143 359 143 371 212 c 2,16,-1
 392 339 l 1,17,-1
 395 347 l 1,18,-1
 346 347 l 1,19,-1
 359 426 l 1,20,-1
 407 426 l 1,21,-1
 407 438 l 1,22,-1
 416 492 l 1,23,24
 454 492 454 492 468 490 c 0,25,26
 498 487 498 487 498 456 c 0,27,28
 498 443 498 443 494 426 c 1,29,-1
 568 426 l 1,30,31
 560 373 560 373 548.5 360 c 128,-1,32
 537 347 537 347 495 347 c 2,33,-1
 481 347 l 1,34,-1
 481 335 l 1,35,-1
 460 208 l 2,36,37
 442 99 442 99 388.5 46 c 128,-1,38
 335 -7 335 -7 240.5 -7 c 128,-1,39
 146 -7 146 -7 105 32 c 128,-1,40
 64 71 64 71 64 150 c 0,41,42
 64 308 64 308 171 390 c 1,43,44
 134 425 134 425 134 482.5 c 128,-1,45
 134 540 134 540 151 584.5 c 128,-1,46
 168 629 168 629 196 651 c 0,47,48
 250 692 250 692 312 692 c 1,49,-1
 440 683 l 1,50,51
 432 635 432 635 425 626 c 128,-1,52
 418 617 418 617 387 613 c 1,53,-1
 384 613 l 1,0,-1
EndSplineSet
EndChar

StartChar: quotesingle
Encoding: 39 39 10
Width: 165
GlyphClass: 2
Flags: W
LayerCount: 2
Fore
SplineSet
101 522 m 1,0,1
 143 616 143 616 143 648.5 c 128,-1,2
 143 681 143 681 161.5 701.5 c 128,-1,3
 180 722 180 722 205.5 722 c 128,-1,4
 231 722 231 722 245 707.5 c 128,-1,5
 259 693 259 693 259 671 c 128,-1,6
 259 649 259 649 203.5 563.5 c 128,-1,7
 148 478 148 478 142 478 c 1,8,-1
 105 505 l 1,9,-1
 101 522 l 1,0,1
EndSplineSet
EndChar

StartChar: parenleft
Encoding: 40 40 11
Width: 248
GlyphClass: 2
Flags: W
LayerCount: 2
Fore
SplineSet
90 -70 m 128,-1,1
 52 -34 52 -34 52 42 c 128,-1,2
 52 118 52 118 59 202 c 128,-1,3
 66 286 66 286 85 388 c 128,-1,4
 104 490 104 490 132 573 c 128,-1,5
 160 656 160 656 207.5 712 c 128,-1,6
 255 768 255 768 314 768 c 0,7,8
 336 768 336 768 363 760 c 1,9,10
 353 706 353 706 344 696.5 c 128,-1,11
 335 687 335 687 291 687 c 0,12,13
 254 687 254 687 216 544.5 c 128,-1,14
 178 402 178 402 157.5 251.5 c 128,-1,15
 137 101 137 101 137 34 c 128,-1,16
 137 -33 137 -33 174 -33 c 128,-1,17
 211 -33 211 -33 222 -38.5 c 128,-1,18
 233 -44 233 -44 233 -60 c 128,-1,19
 233 -76 233 -76 225 -106 c 1,20,0
 128 -106 128 -106 90 -70 c 128,-1,1
EndSplineSet
EndChar

StartChar: parenright
Encoding: 41 41 12
Width: 249
GlyphClass: 2
Flags: W
LayerCount: 2
Fore
SplineSet
112 715 m 1,0,-1
 116 760 l 1,1,2
 213 760 213 760 252 721.5 c 128,-1,3
 291 683 291 683 291 597 c 0,4,5
 291 486 291 486 276.5 365 c 128,-1,6
 262 244 262 244 243 168 c 128,-1,7
 224 92 224 92 198 27 c 128,-1,8
 172 -38 172 -38 131.5 -76.5 c 128,-1,9
 91 -115 91 -115 42 -115 c 0,10,11
 18 -115 18 -115 -9 -106 c 1,12,13
 -1 -52 -1 -52 8 -42.5 c 128,-1,14
 17 -33 17 -33 62 -33 c 0,15,16
 99 -33 99 -33 134 102.5 c 128,-1,17
 169 238 169 238 187.5 387 c 128,-1,18
 206 536 206 536 206 611.5 c 128,-1,19
 206 687 206 687 170 687 c 128,-1,20
 134 687 134 687 123 692.5 c 128,-1,21
 112 698 112 698 112 715 c 1,0,-1
EndSplineSet
EndChar

StartChar: asterisk
Encoding: 42 42 13
Width: 302
GlyphClass: 2
Flags: W
LayerCount: 2
Fore
SplineSet
325 501 m 1,0,-1
 252 463 l 1,1,-1
 229 525 l 1,2,-1
 190 465 l 1,3,-1
 126 506 l 1,4,-1
 170 556 l 1,5,-1
 103 556 l 1,6,-1
 117 628 l 1,7,-1
 188 628 l 1,8,-1
 156 689 l 1,9,-1
 228 727 l 1,10,-1
 251 666 l 1,11,-1
 290 726 l 1,12,-1
 354 686 l 1,13,-1
 308 633 l 1,14,-1
 374 633 l 1,15,-1
 363 561 l 1,16,-1
 292 561 l 1,17,-1
 325 501 l 1,0,-1
EndSplineSet
EndChar

StartChar: plus
Encoding: 43 43 14
Width: 243
GlyphClass: 2
Flags: W
LayerCount: 2
Fore
SplineSet
278 284 m 1,0,-1
 194 284 l 1,1,-1
 198 266 l 1,2,-1
 184 196 l 1,3,-1
 107 196 l 1,4,-1
 121 268 l 1,5,-1
 129 284 l 1,6,-1
 47 284 l 1,7,-1
 59 361 l 1,8,-1
 142 361 l 1,9,-1
 138 380 l 1,10,-1
 152 448 l 1,11,-1
 229 448 l 1,12,-1
 215 380 l 1,13,-1
 207 361 l 1,14,-1
 290 361 l 1,15,-1
 278 284 l 1,0,-1
EndSplineSet
EndChar

StartChar: comma
Encoding: 44 44 15
Width: 154
GlyphClass: 2
Flags: W
LayerCount: 2
Fore
SplineSet
40 22 m 2,0,-1
 39 55 l 2,1,2
 39 78 39 78 59.5 96.5 c 128,-1,3
 80 115 80 115 103 115 c 0,4,5
 151 115 151 115 151 71 c 0,6,7
 151 50 151 50 99.5 -29 c 128,-1,8
 48 -108 48 -108 41 -108 c 1,9,-1
 10 -89 l 1,10,-1
 5 -70 l 1,11,12
 40 -11 40 -11 40 22 c 2,0,-1
EndSplineSet
EndChar

StartChar: hyphen
Encoding: 45 45 16
Width: 336
GlyphClass: 2
Flags: W
LayerCount: 2
Fore
SplineSet
322 284 m 1,0,-1
 91 284 l 1,1,-1
 102 361 l 1,2,-1
 333 361 l 1,3,-1
 322 284 l 1,0,-1
EndSplineSet
EndChar

StartChar: period
Encoding: 46 46 17
Width: 177
GlyphClass: 2
Flags: W
LayerCount: 2
Fore
SplineSet
131.5 19.5 m 128,-1,1
 112 0 112 0 88 0 c 128,-1,2
 64 0 64 0 49.5 15 c 128,-1,3
 35 30 35 30 35 52.5 c 128,-1,4
 35 75 35 75 54.5 95 c 128,-1,5
 74 115 74 115 98 115 c 128,-1,6
 122 115 122 115 136.5 100.5 c 128,-1,7
 151 86 151 86 151 62.5 c 128,-1,0
 151 39 151 39 131.5 19.5 c 128,-1,1
EndSplineSet
EndChar

StartChar: slash
Encoding: 47 47 18
Width: 372
GlyphClass: 2
Flags: W
LayerCount: 2
Fore
SplineSet
54 -189 m 1,0,-1
 -37 -189 l 1,1,-1
 392 722 l 1,2,-1
 485 722 l 1,3,-1
 54 -189 l 1,0,-1
EndSplineSet
EndChar

StartChar: zero
Encoding: 48 48 19
Width: 410
GlyphClass: 2
Flags: W
LayerCount: 2
Fore
SplineSet
194 -7 m 0,0,1
 124 -7 124 -7 92 27 c 128,-1,2
 60 61 60 61 60 140.5 c 128,-1,3
 60 220 60 220 73.5 316 c 128,-1,4
 87 412 87 412 114 506.5 c 128,-1,5
 141 601 141 601 191 661.5 c 128,-1,6
 241 722 241 722 308 722 c 0,7,8
 439 722 439 722 439 586 c 0,9,10
 439 441 439 441 404 290 c 0,11,12
 362 110 362 110 288 36 c 0,13,14
 245 -7 245 -7 194 -7 c 0,0,1
205 84 m 0,15,16
 241 84 241 84 276 178 c 128,-1,17
 311 272 311 272 329.5 382 c 128,-1,18
 348 492 348 492 348 561 c 0,19,20
 348 596 348 596 334 614 c 128,-1,21
 320 632 320 632 295 632 c 0,22,23
 257 632 257 632 222 538.5 c 128,-1,24
 187 445 187 445 169 336.5 c 128,-1,25
 151 228 151 228 151 157 c 0,26,27
 151 122 151 122 165.5 103 c 128,-1,28
 180 84 180 84 205 84 c 0,15,16
EndSplineSet
EndChar

StartChar: one
Encoding: 49 49 20
Width: 410
GlyphClass: 2
Flags: W
LayerCount: 2
Fore
SplineSet
349 679 m 1,0,1
 349 679 349 679 257 84 c 1,2,-1
 375 84 l 1,3,-1
 362 0 l 1,4,-1
 60 0 l 1,5,-1
 74 84 l 1,6,-1
 168 84 l 1,7,-1
 254 629 l 1,8,-1
 194 619 l 1,9,-1
 205 699 l 1,10,-1
 278 710 l 1,11,-1
 284 710 l 2,12,13
 326 710 326 710 337 705.5 c 128,-1,14
 348 701 348 701 349 679 c 1,0,1
EndSplineSet
EndChar

StartChar: two
Encoding: 50 50 21
Width: 410
GlyphClass: 2
Flags: W
LayerCount: 2
Fore
SplineSet
346 598 m 0,0,1
 346 619 346 619 330 629 c 128,-1,2
 314 639 314 639 271 639 c 2,3,-1
 223 639 l 2,4,5
 186 639 186 639 175.5 643.5 c 128,-1,6
 165 648 165 648 165 668.5 c 128,-1,7
 165 689 165 689 173 711 c 1,8,-1
 284 722 l 1,9,10
 376 722 376 722 409.5 697.5 c 128,-1,11
 443 673 443 673 443 621 c 0,12,13
 443 537 443 537 404.5 476.5 c 128,-1,14
 366 416 366 416 281 338 c 128,-1,15
 196 260 196 260 187 222 c 1,16,-1
 166 95 l 1,17,-1
 160 82 l 1,18,-1
 361 82 l 1,19,-1
 348 0 l 1,20,-1
 60 0 l 1,21,-1
 97 233 l 1,22,23
 106 282 106 282 140 324.5 c 128,-1,24
 174 367 174 367 222 409 c 128,-1,25
 270 451 270 451 288.5 469.5 c 128,-1,26
 307 488 307 488 326.5 524 c 128,-1,27
 346 560 346 560 346 598 c 0,0,1
EndSplineSet
EndChar

StartChar: three
Encoding: 51 51 22
Width: 410
GlyphClass: 2
Flags: W
LayerCount: 2
Fore
SplineSet
195 72 m 0,0,1
 226 72 226 72 248 132 c 0,2,3
 289 240 289 240 289 367 c 0,4,5
 289 391 289 391 278 399.5 c 128,-1,6
 267 408 267 408 238 408 c 2,7,-1
 167 408 l 1,8,-1
 295 632 l 1,9,-1
 158 632 l 1,10,-1
 171 710 l 1,11,-1
 435 710 l 1,12,-1
 305 484 l 1,13,14
 347 477 347 477 363.5 455.5 c 128,-1,15
 380 434 380 434 380 378.5 c 128,-1,16
 380 323 380 323 373 261.5 c 128,-1,17
 366 200 366 200 348 134.5 c 128,-1,18
 330 69 330 69 292.5 30 c 128,-1,19
 255 -9 255 -9 201 -9 c 0,20,21
 185 -9 185 -9 60 12 c 1,22,-1
 71 85 l 1,23,24
 194 72 194 72 195 72 c 0,0,1
EndSplineSet
EndChar

StartChar: four
Encoding: 52 52 23
Width: 410
GlyphClass: 2
Flags: W
LayerCount: 2
Fore
SplineSet
240 32 m 1,0,-1
 267 214 l 1,1,-1
 278 235 l 1,2,-1
 60 235 l 1,3,-1
 336 710 l 1,4,-1
 432 710 l 1,5,-1
 374 339 l 1,6,-1
 364 313 l 1,7,-1
 406 313 l 1,8,-1
 394 235 l 1,9,-1
 350 235 l 1,10,-1
 352 214 l 1,11,-1
 317 0 l 1,12,13
 267 0 267 0 253.5 4.5 c 128,-1,14
 240 9 240 9 240 32 c 1,0,-1
292 313 m 1,15,-1
 287 339 l 1,16,-1
 318 538 l 1,17,-1
 203 313 l 1,18,-1
 292 313 l 1,15,-1
EndSplineSet
EndChar

StartChar: five
Encoding: 53 53 24
Width: 410
GlyphClass: 2
Flags: W
LayerCount: 2
Fore
SplineSet
181 72 m 2,0,1
 211 72 211 72 234 106 c 128,-1,2
 257 140 257 140 268 190 c 0,3,4
 290 292 290 292 290 367 c 0,5,6
 290 391 290 391 279 399.5 c 128,-1,7
 268 408 268 408 239 408 c 2,8,-1
 124 408 l 1,9,-1
 172 710 l 1,10,-1
 428 710 l 1,11,-1
 415 632 l 1,12,-1
 237 632 l 1,13,-1
 244 607 l 1,14,-1
 229 506 l 1,15,-1
 216 487 l 1,16,-1
 276 487 l 2,17,18
 334 487 334 487 357 464.5 c 128,-1,19
 380 442 380 442 380 391 c 128,-1,20
 380 340 380 340 376 293 c 128,-1,21
 372 246 372 246 359.5 189.5 c 128,-1,22
 347 133 347 133 327 91 c 128,-1,23
 307 49 307 49 271 20.5 c 128,-1,24
 235 -8 235 -8 187 -8 c 0,25,26
 186 -8 186 -8 181 -8 c 0,27,28
 145 -4 145 -4 60 1 c 1,29,-1
 70 72 l 1,30,-1
 181 72 l 2,0,1
EndSplineSet
EndChar

StartChar: six
Encoding: 54 54 25
Width: 410
GlyphClass: 2
Flags: W
LayerCount: 2
Fore
SplineSet
154.5 91.5 m 128,-1,1
 161 79 161 79 184 79 c 128,-1,2
 207 79 207 79 229 109.5 c 128,-1,3
 251 140 251 140 264 186 c 0,4,5
 289 281 289 281 289 373 c 0,6,7
 289 395 289 395 276.5 404.5 c 128,-1,8
 264 414 264 414 238 415 c 1,9,-1
 186 396 l 1,10,11
 172 338 172 338 160.5 256 c 128,-1,12
 149 174 149 174 148.5 139 c 128,-1,0
 148 104 148 104 154.5 91.5 c 128,-1,1
379 393 m 0,13,14
 379 0 379 0 172 0 c 0,15,16
 111 0 111 0 85.5 29.5 c 128,-1,17
 60 59 60 59 60 128.5 c 128,-1,18
 60 198 60 198 74 295.5 c 128,-1,19
 88 393 88 393 113.5 491 c 128,-1,20
 139 589 139 589 184 655.5 c 128,-1,21
 229 722 229 722 284 722 c 0,22,23
 289 722 289 722 421 711 c 1,24,25
 413 658 413 658 403.5 648.5 c 128,-1,26
 394 639 394 639 350 639 c 2,27,-1
 284 639 l 2,28,29
 261 639 261 639 245 605 c 128,-1,30
 229 571 229 571 206 479 c 1,31,-1
 243 493 l 1,32,33
 321 493 321 493 350 472.5 c 128,-1,34
 379 452 379 452 379 393 c 0,13,14
EndSplineSet
EndChar

StartChar: seven
Encoding: 55 55 26
Width: 410
GlyphClass: 2
Flags: W
LayerCount: 2
Fore
SplineSet
182 0 m 1,0,-1
 90 0 l 1,1,-1
 374 632 l 1,2,-1
 184 632 l 1,3,-1
 197 710 l 1,4,-1
 488 710 l 1,5,-1
 476 643 l 1,6,-1
 182 0 l 1,0,-1
EndSplineSet
EndChar

StartChar: eight
Encoding: 56 56 27
Width: 410
GlyphClass: 2
Flags: W
LayerCount: 2
Fore
SplineSet
167 391 m 1,0,1
 132 431 132 431 132 490 c 128,-1,2
 132 549 132 549 149 600 c 128,-1,3
 166 651 166 651 206.5 690 c 128,-1,4
 247 729 247 729 301 729 c 128,-1,5
 355 729 355 729 386.5 698 c 128,-1,6
 418 667 418 667 418 596.5 c 128,-1,7
 418 526 418 526 394 469 c 128,-1,8
 370 412 370 412 335 380 c 1,9,10
 382 331 382 331 382 251 c 0,11,12
 382 116 382 116 298 36 c 0,13,14
 253 -7 253 -7 190.5 -7 c 128,-1,15
 128 -7 128 -7 94 33 c 128,-1,16
 60 73 60 73 60 151 c 128,-1,17
 60 229 60 229 90.5 291.5 c 128,-1,18
 121 354 121 354 167 391 c 1,0,1
199 75 m 0,19,20
 238 75 238 75 266 124 c 128,-1,21
 294 173 294 173 294 256 c 0,22,23
 294 298 294 298 280.5 322.5 c 128,-1,24
 267 347 267 347 246 347 c 0,25,26
 210 347 210 347 179 293 c 128,-1,27
 148 239 148 239 148 157 c 128,-1,28
 148 75 148 75 199 75 c 0,19,20
255 431 m 0,29,30
 277 431 277 431 293 449.5 c 128,-1,31
 309 468 309 468 316 497 c 0,32,33
 330 549 330 549 330 598.5 c 128,-1,34
 330 648 330 648 294 648 c 0,35,36
 272 648 272 648 256 630.5 c 128,-1,37
 240 613 240 613 232 585 c 0,38,39
 219 535 219 535 219 483 c 128,-1,40
 219 431 219 431 255 431 c 0,29,30
EndSplineSet
EndChar

StartChar: nine
Encoding: 57 57 28
Width: 410
GlyphClass: 2
Flags: W
LayerCount: 2
Fore
SplineSet
334 491.5 m 128,-1,1
 346 576 346 576 346 601.5 c 128,-1,2
 346 627 346 627 338 635 c 128,-1,3
 330 643 330 643 311 643 c 0,4,5
 274 643 274 643 248 590 c 0,6,7
 202 498 202 498 202 349 c 0,8,9
 202 325 202 325 212 316.5 c 128,-1,10
 222 308 222 308 249 307 c 1,11,-1
 306 333 l 1,12,0
 322 407 322 407 334 491.5 c 128,-1,1
197 82 m 2,13,14
 243 82 243 82 285 247 c 1,15,-1
 248 228 l 1,16,17
 169 228 169 228 140.5 249 c 128,-1,18
 112 270 112 270 112 328 c 0,19,20
 112 722 112 722 318 722 c 0,21,22
 383 722 383 722 408 700.5 c 128,-1,23
 433 679 433 679 433 611 c 128,-1,24
 433 543 433 543 420 444 c 128,-1,25
 407 345 407 345 381.5 242 c 128,-1,26
 356 139 356 139 310 68.5 c 128,-1,27
 264 -2 264 -2 206 -2 c 0,28,29
 203 -2 203 -2 164 1.5 c 128,-1,30
 125 5 125 5 60 10 c 1,31,-1
 71 82 l 1,32,-1
 197 82 l 2,13,14
EndSplineSet
EndChar

StartChar: colon
Encoding: 58 58 29
Width: 181
GlyphClass: 2
Flags: W
LayerCount: 2
Fore
SplineSet
130.5 19.5 m 128,-1,1
 111 0 111 0 87.5 0 c 128,-1,2
 64 0 64 0 49 15 c 128,-1,3
 34 30 34 30 34 52.5 c 128,-1,4
 34 75 34 75 53.5 95 c 128,-1,5
 73 115 73 115 97.5 115 c 128,-1,6
 122 115 122 115 136 100.5 c 128,-1,7
 150 86 150 86 150 62.5 c 128,-1,0
 150 39 150 39 130.5 19.5 c 128,-1,1
203.5 442 m 128,-1,9
 184 422 184 422 160.5 422 c 128,-1,10
 137 422 137 422 122 437 c 128,-1,11
 107 452 107 452 107 475 c 128,-1,12
 107 498 107 498 127.5 517.5 c 128,-1,13
 148 537 148 537 171.5 537 c 128,-1,14
 195 537 195 537 209 523 c 128,-1,15
 223 509 223 509 223 485.5 c 128,-1,8
 223 462 223 462 203.5 442 c 128,-1,9
EndSplineSet
EndChar

StartChar: semicolon
Encoding: 59 59 30
Width: 153
GlyphClass: 2
Flags: W
LayerCount: 2
Fore
SplineSet
197.5 442 m 128,-1,1
 178 422 178 422 154 422 c 128,-1,2
 130 422 130 422 115.5 437 c 128,-1,3
 101 452 101 452 101 475 c 128,-1,4
 101 498 101 498 121.5 517.5 c 128,-1,5
 142 537 142 537 165.5 537 c 128,-1,6
 189 537 189 537 203 523 c 128,-1,7
 217 509 217 509 217 485.5 c 128,-1,0
 217 462 217 462 197.5 442 c 128,-1,1
41 22 m 2,8,-1
 40 55 l 2,9,10
 40 78 40 78 60.5 96.5 c 128,-1,11
 81 115 81 115 104 115 c 0,12,13
 152 115 152 115 152 71 c 0,14,15
 152 50 152 50 100 -29 c 128,-1,16
 48 -108 48 -108 42 -108 c 1,17,-1
 11 -89 l 1,18,-1
 6 -70 l 1,19,20
 41 -11 41 -11 41 22 c 2,8,-1
EndSplineSet
EndChar

StartChar: less
Encoding: 60 60 31
Width: 237
GlyphClass: 2
Flags: W
LayerCount: 2
Fore
SplineSet
222 54 m 1,0,-1
 139 54 l 1,1,-1
 42 285 l 1,2,-1
 46 317 l 1,3,-1
 214 537 l 1,4,-1
 300 537 l 1,5,-1
 121 297 l 1,6,-1
 222 54 l 1,0,-1
EndSplineSet
EndChar

StartChar: equal
Encoding: 61 61 32
Width: 363
GlyphClass: 2
Flags: W
LayerCount: 2
Fore
SplineSet
386 332 m 1,0,-1
 99 332 l 1,1,-1
 111 409 l 1,2,-1
 398 409 l 1,3,-1
 386 332 l 1,0,-1
363 214 m 1,4,-1
 76 214 l 1,5,-1
 88 291 l 1,6,-1
 375 291 l 1,7,-1
 363 214 l 1,4,-1
EndSplineSet
EndChar

StartChar: greater
Encoding: 62 62 33
Width: 236
GlyphClass: 2
Flags: W
LayerCount: 2
Fore
SplineSet
108 54 m 1,0,-1
 20 54 l 1,1,-1
 200 301 l 1,2,-1
 100 537 l 1,3,-1
 182 537 l 1,4,-1
 280 313 l 1,5,-1
 275 282 l 1,6,-1
 108 54 l 1,0,-1
EndSplineSet
EndChar

StartChar: question
Encoding: 63 63 34
Width: 339
GlyphClass: 2
Flags: W
LayerCount: 2
Fore
SplineSet
151.5 19.5 m 128,-1,1
 132 0 132 0 108 0 c 128,-1,2
 84 0 84 0 69 15 c 128,-1,3
 54 30 54 30 54 52.5 c 128,-1,4
 54 75 54 75 74 95 c 128,-1,5
 94 115 94 115 118 115 c 128,-1,6
 142 115 142 115 156.5 100.5 c 128,-1,7
 171 86 171 86 171 62.5 c 128,-1,0
 171 39 171 39 151.5 19.5 c 128,-1,1
287.5 516 m 128,-1,9
 307 554 307 554 307 585 c 128,-1,10
 307 616 307 616 290 627.5 c 128,-1,11
 273 639 273 639 227 639 c 2,12,-1
 189 639 l 2,13,14
 152 639 152 639 141.5 643.5 c 128,-1,15
 131 648 131 648 131 671.5 c 128,-1,16
 131 695 131 695 139 711 c 1,17,-1
 240 722 l 1,18,19
 332 722 332 722 365 697.5 c 128,-1,20
 398 673 398 673 398 621 c 128,-1,21
 398 569 398 569 365 506 c 128,-1,22
 332 443 332 443 292 396 c 0,23,24
 185 268 185 268 180 229 c 2,25,-1
 175 188 l 1,26,-1
 89 188 l 1,27,-1
 97 232 l 1,28,29
 108 301 108 301 182 381 c 0,30,31
 211 413 211 413 239.5 445.5 c 128,-1,8
 268 478 268 478 287.5 516 c 128,-1,9
EndSplineSet
EndChar

StartChar: at
Encoding: 64 64 35
Width: 556
GlyphClass: 2
Flags: W
LayerCount: 2
Fore
SplineSet
338 250 m 1,0,-1
 334 257 l 1,1,-1
 346 331 l 1,2,3
 304 331 304 331 301 324 c 1,4,-1
 283 226 l 1,5,-1
 338 250 l 1,0,-1
188 -15 m 2,6,7
 110 -15 110 -15 89 26 c 128,-1,8
 68 67 68 67 68 180 c 0,9,10
 68 521 68 521 254 531 c 0,11,12
 501 544 501 544 506 544 c 0,13,14
 580 544 580 544 580 470 c 0,15,16
 580 342 580 342 564 282 c 1,17,18
 548 217 548 217 518 186 c 1,19,20
 480 149 480 149 410.5 149 c 128,-1,21
 341 149 341 149 330 173 c 1,22,-1
 278 144 l 1,23,24
 235 144 235 144 218.5 150.5 c 128,-1,25
 202 157 202 157 202 182 c 0,26,27
 202 190 202 190 219 318 c 1,28,29
 227 367 227 367 271.5 388 c 128,-1,30
 316 409 316 409 374 409 c 2,31,-1
 435 409 l 1,32,-1
 407 228 l 1,33,-1
 406 227 l 1,34,35
 456 227 456 227 464 249 c 0,36,37
 467 259 467 259 482.5 354 c 128,-1,38
 498 449 498 449 498 456 c 128,-1,39
 498 463 498 463 490.5 463 c 128,-1,40
 483 463 483 463 247 448 c 0,41,42
 155 442 155 442 155 137 c 0,43,44
 155 63 155 63 198 63 c 2,45,-1
 370 63 l 2,46,47
 407 63 407 63 418 57.5 c 128,-1,48
 429 52 429 52 429 29 c 1,49,-1
 426 -15 l 1,50,-1
 188 -15 l 2,6,7
EndSplineSet
EndChar

StartChar: A
Encoding: 65 65 36
Width: 435
GlyphClass: 2
Flags: W
LayerCount: 2
Fore
SplineSet
393 0 m 2,0,1
 340 0 340 0 330 7.5 c 128,-1,2
 320 15 320 15 318 58 c 2,3,-1
 307 235 l 1,4,-1
 185 235 l 1,5,-1
 96 0 l 1,6,-1
 81 0 l 2,7,8
 25 0 25 0 19 10 c 0,9,10
 16 16 16 16 16 27 c 128,-1,11
 16 38 16 38 65 165 c 2,12,-1
 280 720 l 1,13,-1
 364 720 l 1,14,-1
 413 0 l 1,15,-1
 393 0 l 2,0,1
303 317 m 1,16,-1
 295 332 l 1,17,-1
 295 547 l 1,18,-1
 221 332 l 1,19,-1
 209 317 l 1,20,-1
 303 317 l 1,16,-1
EndSplineSet
EndChar

StartChar: B
Encoding: 66 66 37
Width: 421
GlyphClass: 2
Flags: W
LayerCount: 2
Fore
SplineSet
415.5 703.5 m 128,-1,1
 451 675 451 675 451 614 c 128,-1,2
 451 553 451 553 436 490 c 128,-1,3
 421 427 421 427 397 396 c 1,4,5
 429 368 429 368 429 308.5 c 128,-1,6
 429 249 429 249 426 212 c 128,-1,7
 423 175 423 175 410.5 130 c 128,-1,8
 398 85 398 85 376 57.5 c 128,-1,9
 354 30 354 30 313.5 11 c 128,-1,10
 273 -8 273 -8 216 -8 c 0,11,12
 201 -8 201 -8 60 1 c 1,13,-1
 174 721 l 1,14,-1
 286 732 l 1,15,0
 380 732 380 732 415.5 703.5 c 128,-1,1
231 431 m 2,16,17
 296 431 296 431 328 463 c 0,18,19
 352 487 352 487 356 545 c 0,20,21
 358 565 358 565 358 595 c 128,-1,22
 358 625 358 625 339 636.5 c 128,-1,23
 320 648 320 648 269 648 c 2,24,-1
 250 648 l 1,25,-1
 250 636 l 1,26,-1
 219 436 l 1,27,-1
 217 431 l 1,28,-1
 231 431 l 2,16,17
203 77 m 2,29,30
 239 77 239 77 265 91.5 c 128,-1,31
 291 106 291 106 304.5 126 c 128,-1,32
 318 146 318 146 326 178 c 0,33,34
 337 223 337 223 337 295 c 0,35,36
 337 323 337 323 320.5 335.5 c 128,-1,37
 304 348 304 348 261 348 c 2,38,-1
 203 348 l 1,39,-1
 203 336 l 1,40,-1
 163 82 l 1,41,-1
 161 77 l 1,42,-1
 203 77 l 2,29,30
EndSplineSet
EndChar

StartChar: C
Encoding: 67 67 38
Width: 377
GlyphClass: 2
Flags: W
LayerCount: 2
Fore
SplineSet
230 -7 m 0,0,1
 150 -7 150 -7 117.5 36 c 128,-1,2
 85 79 85 79 85 155 c 128,-1,3
 85 231 85 231 90.5 299.5 c 128,-1,4
 96 368 96 368 113.5 449 c 128,-1,5
 131 530 131 530 158 590 c 128,-1,6
 185 650 185 650 233.5 691 c 128,-1,7
 282 732 282 732 345 732 c 1,8,-1
 452 709 l 1,9,10
 445 670 445 670 430 655.5 c 128,-1,11
 415 641 415 641 392 641 c 0,12,13
 389 641 389 641 332 648 c 1,14,15
 291 648 291 648 259 593.5 c 128,-1,16
 227 539 227 539 210 460 c 0,17,18
 176 300 176 300 176 181 c 0,19,20
 176 84 176 84 241 84 c 0,21,22
 265 84 265 84 303 89 c 128,-1,23
 341 94 341 94 356 94 c 1,24,-1
 342 11 l 1,25,26
 332 10 332 10 292 1.5 c 128,-1,27
 252 -7 252 -7 230 -7 c 0,0,1
EndSplineSet
EndChar

StartChar: D
Encoding: 68 68 39
Width: 472
GlyphClass: 2
Flags: W
LayerCount: 2
Fore
SplineSet
455 689.5 m 128,-1,1
 488 647 488 647 488 573 c 128,-1,2
 488 499 488 499 482 430.5 c 128,-1,3
 476 362 476 362 459 281 c 128,-1,4
 442 200 442 200 415.5 138 c 128,-1,5
 389 76 389 76 342.5 34.5 c 128,-1,6
 296 -7 296 -7 237 -7 c 0,7,8
 232 -7 232 -7 60 1 c 1,9,-1
 175 721 l 1,10,-1
 342 732 l 1,11,0
 422 732 422 732 455 689.5 c 128,-1,1
239 77 m 2,12,13
 280 77 280 77 312.5 133.5 c 128,-1,14
 345 190 345 190 362 272 c 0,15,16
 397 439 397 439 397 551 c 0,17,18
 397 599 397 599 383 623.5 c 128,-1,19
 369 648 369 648 334 648 c 2,20,-1
 250 648 l 1,21,-1
 250 636 l 1,22,-1
 163 82 l 1,23,-1
 161 77 l 1,24,-1
 239 77 l 2,12,13
EndSplineSet
EndChar

StartChar: E
Encoding: 69 69 40
Width: 385
GlyphClass: 2
Flags: W
LayerCount: 2
Fore
SplineSet
252 640 m 1,0,-1
 252 629 l 1,1,-1
 222 435 l 1,2,-1
 220 430 l 1,3,-1
 397 430 l 1,4,-1
 383 347 l 1,5,-1
 206 347 l 1,6,-1
 206 335 l 1,7,-1
 167 91 l 1,8,-1
 167 89 l 2,9,10
 167 85 167 85 166 84 c 1,11,-1
 365 84 l 1,12,-1
 352 0 l 1,13,-1
 60 0 l 1,14,-1
 174 720 l 1,15,-1
 456 720 l 1,16,-1
 443 640 l 1,17,-1
 252 640 l 1,0,-1
EndSplineSet
EndChar

StartChar: F
Encoding: 70 70 41
Width: 375
GlyphClass: 2
Flags: W
LayerCount: 2
Fore
SplineSet
133 0 m 2,0,1
 102 0 102 0 91 2 c 0,2,3
 67 5 67 5 67 33 c 0,4,5
 67 39 67 39 174 720 c 1,6,-1
 457 720 l 1,7,-1
 443 640 l 1,8,-1
 252 640 l 1,9,-1
 252 629 l 1,10,-1
 222 435 l 1,11,-1
 220 430 l 1,12,-1
 397 430 l 1,13,-1
 384 347 l 1,14,-1
 206 347 l 1,15,-1
 206 335 l 1,16,-1
 153 0 l 1,17,-1
 133 0 l 2,0,1
EndSplineSet
EndChar

StartChar: G
Encoding: 71 71 42
Width: 446
GlyphClass: 2
Flags: W
LayerCount: 2
Fore
SplineSet
422 641 m 1,0,-1
 337 648 l 1,1,2
 299 648 299 648 267.5 591.5 c 128,-1,3
 236 535 236 535 219 454 c 0,4,5
 185 292 185 292 185 176 c 0,6,7
 185 77 185 77 249 77 c 1,8,-1
 314 85 l 1,9,-1
 314 98 l 1,10,-1
 348 311 l 2,11,12
 356 362 356 362 364 370.5 c 128,-1,13
 372 379 372 379 415 379 c 2,14,-1
 448 379 l 1,15,-1
 390 11 l 1,16,-1
 240 -7 l 1,17,18
 160 -7 160 -7 127.5 36 c 128,-1,19
 95 79 95 79 95 152.5 c 128,-1,20
 95 226 95 226 100.5 293.5 c 128,-1,21
 106 361 106 361 122.5 442.5 c 128,-1,22
 139 524 139 524 165 586 c 128,-1,23
 191 648 191 648 236.5 690 c 128,-1,24
 282 732 282 732 341 732 c 0,25,26
 350 732 350 732 481 710 c 1,27,28
 474 670 474 670 459 655.5 c 128,-1,29
 444 641 444 641 422 641 c 1,0,-1
EndSplineSet
EndChar

StartChar: H
Encoding: 72 72 43
Width: 457
GlyphClass: 2
Flags: W
LayerCount: 2
Fore
SplineSet
368 0 m 2,0,1
 328 0 328 0 314.5 3.5 c 128,-1,2
 301 7 301 7 301 24 c 0,3,4
 301 30 301 30 349 339 c 1,5,-1
 351 347 l 1,6,-1
 202 347 l 1,7,-1
 202 335 l 1,8,-1
 158 57 l 2,9,10
 151 17 151 17 139.5 8.5 c 128,-1,11
 128 0 128 0 81 0 c 2,12,-1
 60 0 l 1,13,-1
 175 720 l 1,14,-1
 191 720 l 2,15,16
 220 720 220 720 230 718 c 0,17,18
 256 715 256 715 256 688 c 0,19,20
 256 678 256 678 219 435 c 1,21,-1
 217 430 l 1,22,-1
 366 430 l 1,23,-1
 366 442 l 1,24,-1
 410 720 l 1,25,-1
 426 720 l 2,26,27
 481 720 481 720 487 705 c 0,28,29
 490 698 490 698 490 687 c 128,-1,30
 490 676 490 676 385 0 c 1,31,-1
 368 0 l 2,0,1
EndSplineSet
EndChar

StartChar: I
Encoding: 73 73 44
Width: 213
GlyphClass: 2
Flags: W
LayerCount: 2
Fore
SplineSet
131 0 m 2,0,1
 100 0 100 0 89 2 c 0,2,3
 65 5 65 5 65 33 c 0,4,5
 65 39 65 39 172 720 c 1,6,-1
 189 720 l 2,7,8
 231 720 231 720 243 715.5 c 128,-1,9
 255 711 255 711 255 695.5 c 128,-1,10
 255 680 255 680 148 0 c 1,11,-1
 131 0 l 2,0,1
EndSplineSet
EndChar

StartChar: J
Encoding: 74 74 45
Width: 246
GlyphClass: 2
Flags: W
LayerCount: 2
Fore
SplineSet
230 720 m 2,0,1
 259 720 259 720 270 719 c 0,2,3
 298 716 298 716 296 688 c 1,4,-1
 212 146 l 1,5,6
 184 -46 184 -46 149 -100 c 0,7,8
 106 -166 106 -166 50 -182 c 0,9,10
 16 -192 16 -192 -29 -192 c 1,11,-1
 -17 -115 l 1,12,13
 56 -115 56 -115 90 -5 c 1,14,15
 105 47 105 47 122 144 c 0,16,17
 159 365 159 365 213 720 c 1,18,-1
 230 720 l 2,0,1
EndSplineSet
EndChar

StartChar: K
Encoding: 75 75 46
Width: 464
GlyphClass: 2
Flags: W
LayerCount: 2
Fore
SplineSet
404 0 m 2,0,1
 351 0 351 0 336 7.5 c 128,-1,2
 321 15 321 15 309 54 c 1,3,-1
 232 364 l 1,4,-1
 437 720 l 1,5,-1
 449 720 l 2,6,7
 476 720 476 720 486 719 c 0,8,9
 512 717 512 717 512 695 c 0,10,11
 512 688 512 688 477 625 c 2,12,-1
 328 361 l 1,13,-1
 426 0 l 1,14,-1
 404 0 l 2,0,1
81 0 m 2,15,-1
 60 0 l 1,16,-1
 174 720 l 1,17,-1
 191 720 l 2,18,19
 229 720 229 720 243 717 c 128,-1,20
 257 714 257 714 257 701 c 0,21,22
 257 699 257 699 158 57 c 0,23,24
 152 17 152 17 141 8.5 c 128,-1,25
 130 0 130 0 81 0 c 2,15,-1
EndSplineSet
EndChar

StartChar: L
Encoding: 76 76 47
Width: 361
GlyphClass: 2
Flags: W
LayerCount: 2
Fore
SplineSet
193 720 m 2,0,1
 250 720 250 720 256 710 c 0,2,3
 259 706 259 706 259 701 c 128,-1,4
 259 696 259 696 166 98 c 1,5,-1
 158 84 l 1,6,-1
 268 84 l 2,7,8
 310 84 310 84 321.5 79.5 c 128,-1,9
 333 75 333 75 333 52 c 1,10,-1
 329 0 l 1,11,-1
 59 0 l 1,12,-1
 173 720 l 1,13,-1
 193 720 l 2,0,1
EndSplineSet
EndChar

StartChar: M
Encoding: 77 77 48
Width: 584
GlyphClass: 2
Flags: W
LayerCount: 2
Fore
SplineSet
616 696 m 1,0,-1
 508 0 l 1,1,-1
 492 0 l 2,2,3
 432 0 432 0 426 10 c 0,4,5
 423 16 423 16 423 23 c 128,-1,6
 423 30 423 30 496 502 c 1,7,-1
 397 340 l 1,8,-1
 362 289 l 1,9,-1
 311 289 l 1,10,-1
 276 342 l 1,11,-1
 225 505 l 1,12,-1
 155 57 l 2,13,14
 149 17 149 17 137.5 8.5 c 128,-1,15
 126 0 126 0 78 0 c 2,16,-1
 57 0 l 1,17,-1
 171 720 l 1,18,-1
 188 720 l 2,19,20
 235 720 235 720 247 712 c 128,-1,21
 259 704 259 704 271 665 c 2,22,-1
 347 418 l 1,23,-1
 536 720 l 1,24,-1
 549 720 l 2,25,26
 589 720 589 720 602.5 716.5 c 128,-1,27
 616 713 616 713 616 696 c 1,0,-1
EndSplineSet
EndChar

StartChar: N
Encoding: 78 78 49
Width: 455
GlyphClass: 2
Flags: W
LayerCount: 2
Fore
SplineSet
371 0 m 2,0,1
 321 0 321 0 310.5 7 c 128,-1,2
 300 14 300 14 292 56 c 2,3,-1
 216 453 l 1,4,-1
 153 57 l 2,5,6
 147 17 147 17 136 8.5 c 128,-1,7
 125 0 125 0 77 0 c 2,8,-1
 56 0 l 1,9,-1
 170 720 l 1,10,-1
 187 720 l 2,11,12
 236 720 236 720 247 713 c 128,-1,13
 258 706 258 706 265 664 c 2,14,-1
 339 256 l 1,15,-1
 413 720 l 1,16,-1
 429 720 l 2,17,18
 460 720 460 720 472 718 c 0,19,20
 494 716 494 716 494 694 c 0,21,22
 494 691 494 691 494 687 c 2,23,-1
 388 0 l 1,24,-1
 371 0 l 2,0,1
EndSplineSet
EndChar

StartChar: O
Encoding: 79 79 50
Width: 481
GlyphClass: 2
Flags: W
LayerCount: 2
Fore
SplineSet
354 46 m 128,-1,1
 302 -7 302 -7 229.5 -7 c 128,-1,2
 157 -7 157 -7 123 37.5 c 128,-1,3
 89 82 89 82 89 176.5 c 128,-1,4
 89 271 89 271 103.5 364.5 c 128,-1,5
 118 458 118 458 147 542.5 c 128,-1,6
 176 627 176 627 228 679.5 c 128,-1,7
 280 732 280 732 353 732 c 128,-1,8
 426 732 426 732 460 689.5 c 128,-1,9
 494 647 494 647 494 553 c 128,-1,10
 494 459 494 459 479.5 364.5 c 128,-1,11
 465 270 465 270 435.5 184.5 c 128,-1,0
 406 99 406 99 354 46 c 128,-1,1
244 77 m 0,12,13
 291 77 291 77 328.5 165 c 128,-1,14
 366 253 366 253 382.5 356 c 128,-1,15
 399 459 399 459 399 538 c 0,16,17
 399 648 399 648 339 648 c 0,18,19
 291 648 291 648 254 560.5 c 128,-1,20
 217 473 217 473 200.5 370.5 c 128,-1,21
 184 268 184 268 184 188 c 0,22,23
 184 77 184 77 244 77 c 0,12,13
EndSplineSet
EndChar

StartChar: P
Encoding: 80 80 51
Width: 459
GlyphClass: 2
Flags: W
LayerCount: 2
Fore
SplineSet
82 0 m 2,0,-1
 60 0 l 1,1,-1
 175 721 l 1,2,-1
 316 732 l 1,3,4
 415 732 415 732 451.5 703 c 128,-1,5
 488 674 488 674 488 617.5 c 128,-1,6
 488 561 488 561 485 526 c 128,-1,7
 482 491 482 491 468.5 450 c 128,-1,8
 455 409 455 409 431.5 385 c 128,-1,9
 408 361 408 361 364 344.5 c 128,-1,10
 320 328 320 328 258 328 c 2,11,-1
 200 328 l 1,12,-1
 200 317 l 1,13,-1
 159 57 l 1,14,15
 154 17 154 17 142.5 8.5 c 128,-1,16
 131 0 131 0 82 0 c 2,0,-1
267 412 m 2,17,18
 383 412 383 412 394 541 c 0,19,20
 396 565 396 565 396 595 c 128,-1,21
 396 625 396 625 377.5 636.5 c 128,-1,22
 359 648 359 648 308 648 c 2,23,-1
 250 648 l 1,24,-1
 250 636 l 1,25,-1
 217 417 l 1,26,-1
 215 412 l 1,27,-1
 267 412 l 2,17,18
EndSplineSet
EndChar

StartChar: Q
Encoding: 81 81 52
Width: 468
GlyphClass: 2
Flags: W
LayerCount: 2
Fore
SplineSet
523.5 -157.5 m 128,-1,1
 512 -165 512 -165 458 -165 c 128,-1,2
 404 -165 404 -165 282.5 -143 c 128,-1,3
 161 -121 161 -121 102 -120 c 2,4,-1
 59 -119 l 1,5,6
 66 -80 66 -80 69.5 -69 c 128,-1,7
 73 -58 73 -58 82 -53 c 1,8,-1
 162 8 l 1,9,10
 90 39 90 39 90 178 c 0,11,12
 90 340 90 340 127 476 c 0,13,14
 170 635 170 635 250 697 c 0,15,16
 294 732 294 732 348 732 c 0,17,18
 426 732 426 732 459.5 688.5 c 128,-1,19
 493 645 493 645 493 550 c 0,20,21
 493 404 493 404 446 218 c 0,22,23
 424 128 424 128 385 66.5 c 128,-1,24
 346 5 346 5 301 3 c 1,25,-1
 195 -51 l 1,26,27
 414 -80 414 -80 500 -82 c 2,28,-1
 546 -83 l 1,29,-1
 540 -118 l 2,30,0
 535 -150 535 -150 523.5 -157.5 c 128,-1,1
244 77 m 0,31,32
 281 77 281 77 313 127.5 c 128,-1,33
 345 178 345 178 364 252 c 0,34,35
 403 408 403 408 403 528 c 128,-1,36
 403 648 403 648 339 648 c 0,37,38
 290 648 290 648 252 562.5 c 128,-1,39
 214 477 214 477 197.5 376 c 128,-1,40
 181 275 181 275 181 193 c 0,41,42
 181 77 181 77 244 77 c 0,31,32
EndSplineSet
EndChar

StartChar: R
Encoding: 82 82 53
Width: 453
GlyphClass: 2
Flags: W
LayerCount: 2
Fore
SplineSet
401 0 m 2,0,1
 344 0 344 0 332.5 6.5 c 128,-1,2
 321 13 321 13 308 55 c 2,3,-1
 226 328 l 1,4,-1
 200 328 l 1,5,-1
 200 317 l 1,6,-1
 160 57 l 2,7,8
 154 17 154 17 142.5 8.5 c 128,-1,9
 131 0 131 0 83 0 c 2,10,-1
 60 0 l 1,11,-1
 174 721 l 1,12,-1
 296 732 l 1,13,14
 385 732 385 732 418 704 c 128,-1,15
 451 676 451 676 451 618 c 0,16,17
 451 374 451 374 316 331 c 1,18,-1
 424 0 l 1,19,-1
 401 0 l 2,0,1
247 412 m 2,20,21
 358 412 358 412 358 603 c 0,22,23
 358 628 358 628 343 638 c 128,-1,24
 328 648 328 648 288 648 c 2,25,-1
 243 648 l 1,26,-1
 247 620 l 1,27,-1
 219 429 l 1,28,-1
 207 412 l 1,29,-1
 247 412 l 2,20,21
EndSplineSet
EndChar

StartChar: S
Encoding: 83 83 54
Width: 391
GlyphClass: 2
Flags: W
LayerCount: 2
Fore
SplineSet
301 236 m 0,0,1
 301 253 301 253 288 274.5 c 128,-1,2
 275 296 275 296 262.5 309.5 c 128,-1,3
 250 323 250 323 222 352 c 1,4,-1
 222 351 l 1,5,6
 186 388 186 388 167.5 409 c 128,-1,7
 149 430 149 430 130 467 c 128,-1,8
 111 504 111 504 111 545.5 c 128,-1,9
 111 587 111 587 118.5 619 c 128,-1,10
 126 651 126 651 146 678 c 0,11,12
 186 732 186 732 311 732 c 1,13,-1
 424 709 l 1,14,15
 417 670 417 670 404.5 656.5 c 128,-1,16
 392 643 392 643 371 643 c 1,17,-1
 304 650 l 1,18,19
 246 649 246 649 224.5 623.5 c 128,-1,20
 203 598 203 598 203 551 c 0,21,22
 203 507 203 507 270 444 c 0,23,24
 298 417 298 417 326 389.5 c 128,-1,25
 354 362 354 362 373.5 327 c 128,-1,26
 393 292 393 292 393 257 c 0,27,28
 393 -6 393 -6 175 -7 c 1,29,-1
 26 14 l 1,30,-1
 37 96 l 1,31,-1
 189 85 l 1,32,33
 301 91 301 91 301 236 c 0,0,1
EndSplineSet
EndChar

StartChar: T
Encoding: 84 84 55
Width: 333
GlyphClass: 2
Flags: W
LayerCount: 2
Fore
SplineSet
141 0 m 2,0,-1
 116 0 l 1,1,-1
 216 636 l 1,2,-1
 218 640 l 1,3,-1
 113 640 l 1,4,-1
 126 720 l 1,5,-1
 428 720 l 1,6,-1
 414 640 l 1,7,-1
 308 640 l 1,8,-1
 308 629 l 1,9,-1
 218 57 l 2,10,11
 212 17 212 17 200.5 8.5 c 128,-1,12
 189 0 189 0 141 0 c 2,0,-1
EndSplineSet
EndChar

StartChar: U
Encoding: 85 85 56
Width: 468
GlyphClass: 2
Flags: W
LayerCount: 2
Fore
SplineSet
261 697 m 1,0,-1
 179 125 l 1,1,2
 179 106 179 106 193 91.5 c 128,-1,3
 207 77 207 77 238 77 c 0,4,5
 294 77 294 77 314.5 122.5 c 128,-1,6
 335 168 335 168 356 301 c 2,7,-1
 423 720 l 1,8,-1
 442 720 l 2,9,10
 482 720 482 720 495 716.5 c 128,-1,11
 508 713 508 713 508 696 c 0,12,13
 508 695 508 695 494.5 607 c 128,-1,14
 481 519 481 519 460.5 382 c 128,-1,15
 440 245 440 245 434.5 215.5 c 128,-1,16
 429 186 429 186 420 148 c 128,-1,17
 411 110 411 110 401 90.5 c 128,-1,18
 391 71 391 71 375.5 49 c 128,-1,19
 360 27 360 27 340 17 c 0,20,21
 292 -7 292 -7 230 -7 c 0,22,23
 87 -7 87 -7 87 96 c 0,24,25
 87 114 87 114 176 720 c 1,26,-1
 195 720 l 2,27,28
 252 720 252 720 258 710 c 0,29,30
 261 706 261 706 261 697 c 1,0,-1
EndSplineSet
EndChar

StartChar: V
Encoding: 86 86 57
Width: 414
GlyphClass: 2
Flags: W
LayerCount: 2
Fore
SplineSet
396 720 m 2,0,1
 430 720 430 720 439.5 716.5 c 128,-1,2
 449 713 449 713 449 706.5 c 128,-1,3
 449 700 449 700 447 695 c 2,4,-1
 221 85 l 2,5,6
 198 21 198 21 188.5 10.5 c 128,-1,7
 179 0 179 0 144 0 c 0,8,9
 105 0 105 0 87 46 c 0,10,11
 80 65 80 65 80 90 c 2,12,-1
 79 720 l 1,13,-1
 103 720 l 2,14,15
 153 720 153 720 161.5 712.5 c 128,-1,16
 170 705 170 705 170 661 c 2,17,-1
 162 161 l 1,18,-1
 372 720 l 1,19,-1
 396 720 l 2,0,1
EndSplineSet
EndChar

StartChar: W
Encoding: 87 87 58
Width: 572
GlyphClass: 2
Flags: W
LayerCount: 2
Fore
SplineSet
324 90 m 2,0,-1
 324 359 l 1,1,-1
 227 85 l 2,2,3
 205 21 205 21 195 10.5 c 128,-1,4
 185 0 185 0 150 0 c 0,5,6
 111 0 111 0 93 46 c 0,7,8
 86 65 86 65 86 90 c 2,9,-1
 85 720 l 1,10,-1
 111 720 l 2,11,12
 155 720 155 720 162.5 713.5 c 128,-1,13
 170 707 170 707 171 668 c 2,14,-1
 176 173 l 1,15,-1
 282 467 l 1,16,-1
 309 528 l 1,17,-1
 383 528 l 1,18,-1
 409 463 l 1,19,-1
 409 181 l 1,20,-1
 588 720 l 1,21,22
 611 720 611 720 625.5 720 c 128,-1,23
 640 720 640 720 648 719 c 0,24,25
 660 718 660 718 666 714 c 128,-1,26
 672 710 672 710 672 707 c 2,27,-1
 670 695 l 1,28,-1
 465 85 l 2,29,30
 444 21 444 21 434 10.5 c 128,-1,31
 424 0 424 0 388 0 c 0,32,33
 349 0 349 0 331 46 c 0,34,35
 324 65 324 65 324 90 c 2,0,-1
EndSplineSet
EndChar

StartChar: X
Encoding: 88 88 59
Width: 383
GlyphClass: 2
Flags: W
LayerCount: 2
Fore
SplineSet
325 0 m 2,0,1
 283 0 283 0 274.5 7 c 128,-1,2
 266 14 266 14 260 56 c 2,3,-1
 230 265 l 1,4,-1
 128 52 l 2,5,6
 109 13 109 13 98.5 6.5 c 128,-1,7
 88 0 88 0 51 0 c 2,8,-1
 5 0 l 1,9,-1
 194 357 l 1,10,-1
 131 720 l 1,11,-1
 170 720 l 2,12,13
 210 720 210 720 218.5 712.5 c 128,-1,14
 227 705 227 705 234 663 c 1,15,-1
 265 440 l 1,16,-1
 393 720 l 1,17,-1
 408 720 l 2,18,19
 442 720 442 720 455.5 715 c 128,-1,20
 469 710 469 710 469 694 c 0,21,22
 469 670 469 670 298 354 c 1,23,-1
 363 0 l 1,24,-1
 325 0 l 2,0,1
EndSplineSet
EndChar

StartChar: Y
Encoding: 89 89 60
Width: 375
GlyphClass: 2
Flags: W
LayerCount: 2
Fore
SplineSet
231 0 m 1,0,1
 210 0 210 0 196 0 c 128,-1,2
 182 0 182 0 171.5 2 c 128,-1,3
 161 4 161 4 158 8 c 0,4,5
 148 17 148 17 148 33.5 c 128,-1,6
 148 50 148 50 195 347 c 1,7,-1
 122 720 l 1,8,-1
 154 720 l 2,9,10
 197 720 197 720 207.5 711.5 c 128,-1,11
 218 703 218 703 225 664 c 2,12,-1
 259 467 l 1,13,-1
 389 720 l 1,14,-1
 408 720 l 2,15,16
 438 720 438 720 451 718 c 128,-1,17
 464 716 464 716 464 709 c 128,-1,18
 464 702 464 702 284 344 c 1,19,-1
 231 0 l 1,0,1
EndSplineSet
EndChar

StartChar: Z
Encoding: 90 90 61
Width: 370
GlyphClass: 2
Flags: W
LayerCount: 2
Fore
SplineSet
325 0 m 1,0,-1
 23 0 l 1,1,-1
 35 73 l 1,2,-1
 336 640 l 1,3,-1
 133 640 l 1,4,-1
 147 720 l 1,5,-1
 451 720 l 1,6,-1
 440 652 l 1,7,-1
 135 84 l 1,8,-1
 338 84 l 1,9,-1
 325 0 l 1,0,-1
EndSplineSet
EndChar

StartChar: bracketleft
Encoding: 91 91 62
Width: 201
GlyphClass: 2
Flags: W
LayerCount: 2
Fore
SplineSet
100 -66 m 2,0,1
 72 -66 72 -66 62 -65 c 0,2,3
 40 -63 40 -63 40 -36 c 0,4,5
 40 -29 40 -29 40.5 -24.5 c 128,-1,6
 41 -20 41 -20 41.5 -13.5 c 128,-1,7
 42 -7 42 -7 44 4.5 c 128,-1,8
 46 16 46 16 49 32.5 c 128,-1,9
 52 49 52 49 57 79 c 128,-1,10
 62 109 62 109 68.5 147 c 128,-1,11
 75 185 75 185 84.5 244.5 c 128,-1,12
 94 304 94 304 105 374 c 128,-1,13
 116 444 116 444 132 544.5 c 128,-1,14
 148 645 148 645 165 760 c 1,15,-1
 253 760 l 2,16,17
 292 760 292 760 303 755.5 c 128,-1,18
 314 751 314 751 314 729 c 1,19,-1
 307 688 l 1,20,-1
 232 688 l 1,21,-1
 125 6 l 1,22,-1
 134 6 l 2,23,24
 172 6 172 6 183 1.5 c 128,-1,25
 194 -3 194 -3 194 -25 c 1,26,-1
 188 -66 l 1,27,-1
 100 -66 l 2,0,1
EndSplineSet
EndChar

StartChar: backslash
Encoding: 92 92 63
Width: 372
GlyphClass: 2
Flags: W
LayerCount: 2
Fore
SplineSet
336 -189 m 1,0,-1
 247 -189 l 1,1,-1
 103 722 l 1,2,-1
 193 722 l 1,3,-1
 336 -189 l 1,0,-1
EndSplineSet
EndChar

StartChar: bracketright
Encoding: 93 93 64
Width: 204
GlyphClass: 2
Flags: W
LayerCount: 2
Fore
SplineSet
75 -66 m 2,0,-1
 -16 -66 l 1,1,2
 -8 -12 -8 -12 1.5 -3 c 128,-1,3
 11 6 11 6 57 6 c 2,4,-1
 71 6 l 1,5,-1
 178 688 l 1,6,-1
 102 688 l 1,7,8
 111 742 111 742 120.5 751 c 128,-1,9
 130 760 130 760 177 760 c 2,10,-1
 270 760 l 1,11,-1
 147 -10 l 1,12,13
 142 -50 142 -50 131 -58 c 128,-1,14
 120 -66 120 -66 75 -66 c 2,0,-1
EndSplineSet
EndChar

StartChar: asciicircum
Encoding: 94 94 65
Width: 411
GlyphClass: 2
Flags: W
LayerCount: 2
Fore
SplineSet
465 567 m 1,0,-1
 304 645 l 1,1,-1
 118 566 l 1,2,-1
 129 652 l 1,3,-1
 295 722 l 1,4,-1
 327 722 l 1,5,-1
 475 649 l 1,6,-1
 465 567 l 1,0,-1
EndSplineSet
EndChar

StartChar: underscore
Encoding: 95 95 66
Width: 613
GlyphClass: 2
Flags: W
LayerCount: 2
Fore
SplineSet
542 -1 m 1,0,-1
 48 -1 l 1,1,-1
 59 76 l 1,2,-1
 554 76 l 1,3,-1
 542 -1 l 1,0,-1
EndSplineSet
EndChar

StartChar: grave
Encoding: 96 96 67
Width: 172
GlyphClass: 2
Flags: W
LayerCount: 2
Fore
SplineSet
116 695 m 2,0,1
 146 722 146 722 161 722 c 128,-1,2
 176 722 176 722 207 685 c 1,3,-1
 267 602 l 1,4,-1
 209 550 l 1,5,-1
 99 680 l 1,6,-1
 116 695 l 2,0,1
EndSplineSet
EndChar

StartChar: a
Encoding: 97 97 68
Width: 367
GlyphClass: 2
Flags: W
LayerCount: 2
Fore
SplineSet
64 17 m 128,-1,1
 43 41 43 41 43 101.5 c 128,-1,2
 43 162 43 162 51 230.5 c 128,-1,3
 59 299 59 299 77 374.5 c 128,-1,4
 95 450 95 450 131.5 499 c 128,-1,5
 168 548 168 548 218 548 c 0,6,7
 245 548 245 548 323 522 c 1,8,9
 351 520 351 520 369 505.5 c 128,-1,10
 387 491 387 491 387 467 c 0,11,12
 387 466 387 466 314 0 c 1,13,14
 264 0 264 0 250.5 5 c 128,-1,15
 237 10 237 10 237 29 c 0,16,17
 237 31 237 31 237 34 c 2,18,-1
 240 67 l 1,19,-1
 152 -7 l 1,20,0
 85 -7 85 -7 64 17 c 128,-1,1
227 466 m 0,21,22
 197 466 197 466 172.5 388.5 c 128,-1,23
 148 311 148 311 138.5 234.5 c 128,-1,24
 129 158 129 158 129 127.5 c 128,-1,25
 129 97 129 97 133.5 87.5 c 128,-1,26
 138 78 138 78 152 78 c 1,27,-1
 255 155 l 1,28,-1
 255 172 l 1,29,-1
 298 434 l 1,30,-1
 301 445 l 1,31,32
 242 466 242 466 227 466 c 0,21,22
EndSplineSet
EndChar

StartChar: b
Encoding: 98 98 69
Width: 373
GlyphClass: 2
Flags: W
LayerCount: 2
Fore
SplineSet
224 712 m 128,-1,1
 232 705 232 705 232 691 c 128,-1,2
 232 677 232 677 210 544 c 1,3,-1
 264 544 l 2,4,5
 331 544 331 544 358 517.5 c 128,-1,6
 385 491 385 491 385 428 c 128,-1,7
 385 365 385 365 377 296.5 c 128,-1,8
 369 228 369 228 351.5 155 c 128,-1,9
 334 82 334 82 297.5 35 c 128,-1,10
 261 -12 261 -12 212 -12 c 0,11,12
 195 -12 195 -12 131 37 c 1,13,14
 125 10 125 10 111.5 5 c 128,-1,15
 98 0 98 0 41 0 c 1,16,-1
 154 722 l 1,17,18
 190 722 190 722 203 720.5 c 128,-1,0
 216 719 216 719 224 712 c 128,-1,1
195 465 m 1,19,20
 195 464 195 464 196 461 c 1,21,-1
 144 122 l 1,22,-1
 139 108 l 1,23,-1
 197 72 l 2,24,25
 199 71 199 71 203 71 c 0,26,27
 242 71 242 71 270 202 c 128,-1,28
 298 333 298 333 298 408 c 0,29,30
 298 465 298 465 260 465 c 2,31,-1
 195 465 l 1,19,20
EndSplineSet
EndChar

StartChar: c
Encoding: 99 99 70
Width: 313
GlyphClass: 2
Flags: W
LayerCount: 2
Fore
SplineSet
295 460 m 1,0,-1
 245 465 l 1,1,2
 217 465 217 465 196 421.5 c 128,-1,3
 175 378 175 378 164 316 c 0,4,5
 145 201 145 201 145 148.5 c 128,-1,6
 145 96 145 96 153.5 84 c 128,-1,7
 162 72 162 72 184 72 c 1,8,-1
 284 83 l 1,9,-1
 274 11 l 1,10,-1
 177 -7 l 1,11,12
 111 -7 111 -7 85 19 c 128,-1,13
 59 45 59 45 59 105.5 c 128,-1,14
 59 166 59 166 66.5 232.5 c 128,-1,15
 74 299 74 299 92 374 c 128,-1,16
 110 449 110 449 148.5 497.5 c 128,-1,17
 187 546 187 546 240 546 c 0,18,19
 247 546 247 546 352 529 c 1,20,21
 340 460 340 460 295 460 c 1,0,-1
EndSplineSet
EndChar

StartChar: d
Encoding: 100 100 71
Width: 378
GlyphClass: 2
Flags: W
LayerCount: 2
Fore
SplineSet
428 698 m 0,0,1
 428 697 428 697 320 0 c 1,2,3
 270 0 270 0 256 4.5 c 128,-1,4
 242 9 242 9 242 32 c 0,5,6
 242 34 242 34 243 36 c 1,7,-1
 181 -7 l 1,8,9
 113 -7 113 -7 86.5 18.5 c 128,-1,10
 60 44 60 44 60 105.5 c 128,-1,11
 60 167 60 167 68.5 234 c 128,-1,12
 77 301 77 301 97 375.5 c 128,-1,13
 117 450 117 450 160.5 497 c 128,-1,14
 204 544 204 544 264 544 c 2,15,-1
 322 544 l 1,16,-1
 349 722 l 1,17,18
 396 722 396 722 412 718.5 c 128,-1,19
 428 715 428 715 428 698 c 0,0,1
252 465 m 2,20,21
 216 465 216 465 190 387.5 c 128,-1,22
 164 310 164 310 155 236 c 128,-1,23
 146 162 146 162 146 128.5 c 128,-1,24
 146 95 146 95 154 84 c 128,-1,25
 162 73 162 73 183 72 c 1,26,-1
 256 109 l 1,27,-1
 256 126 l 1,28,-1
 308 460 l 1,29,-1
 310 465 l 1,30,-1
 252 465 l 2,20,21
EndSplineSet
EndChar

StartChar: e
Encoding: 101 101 72
Width: 353
GlyphClass: 2
Flags: W
LayerCount: 2
Fore
SplineSet
183 -7 m 0,0,1
 113 -7 113 -7 86 18 c 128,-1,2
 59 43 59 43 59 104 c 0,3,4
 59 452 59 452 194 526 c 0,5,6
 226 544 226 544 275 544 c 128,-1,7
 324 544 324 544 347 519.5 c 128,-1,8
 370 495 370 495 370 442 c 0,9,10
 370 394 370 394 352 334 c 0,11,12
 340 297 340 297 310.5 273 c 128,-1,13
 281 249 281 249 237 249 c 2,14,-1
 149 249 l 1,15,-1
 149 238 l 1,16,17
 143 194 143 194 143 160 c 128,-1,18
 143 126 143 126 144 115.5 c 128,-1,19
 145 105 145 105 149 93 c 128,-1,20
 153 81 153 81 163 77.5 c 128,-1,21
 173 74 173 74 207 74 c 128,-1,22
 241 74 241 74 321 91 c 1,23,-1
 310 11 l 1,24,25
 220 -7 220 -7 183 -7 c 0,0,1
226 318 m 2,26,27
 248 318 248 318 262 341 c 0,28,29
 285 377 285 377 285 421 c 128,-1,30
 285 465 285 465 258 465 c 0,31,32
 215 465 215 465 195 433.5 c 128,-1,33
 175 402 175 402 165 334 c 1,34,-1
 159 318 l 1,35,-1
 226 318 l 2,26,27
EndSplineSet
EndChar

StartChar: f
Encoding: 102 102 73
Width: 231
GlyphClass: 2
Flags: W
LayerCount: 2
Fore
SplineSet
-81 -189 m 1,0,-1
 -70 -119 l 1,1,2
 -4 -119 -4 -119 19.5 -87.5 c 128,-1,3
 43 -56 43 -56 54 16 c 2,4,-1
 119 433 l 1,5,-1
 129 457 l 1,6,-1
 76 457 l 1,7,-1
 89 537 l 1,8,-1
 144 537 l 1,9,-1
 139 564 l 1,10,11
 156 669 156 669 184 689 c 0,12,13
 218 714 218 714 261.5 717.5 c 128,-1,14
 305 721 305 721 352 721 c 1,15,-1
 342 648 l 1,16,17
 270 648 270 648 251 635 c 0,18,19
 237 625 237 625 232.5 603.5 c 128,-1,20
 228 582 228 582 224 558 c 1,21,-1
 212 537 l 1,22,-1
 302 537 l 1,23,-1
 289 457 l 1,24,-1
 197 457 l 1,25,-1
 203 436 l 1,26,-1
 136 12 l 2,27,28
 120 -83 120 -83 101 -112 c 0,29,30
 72 -155 72 -155 45 -166 c 0,31,32
 -10 -189 -10 -189 -81 -189 c 1,0,-1
EndSplineSet
EndChar

StartChar: g
Encoding: 103 103 74
Width: 394
GlyphClass: 2
Flags: W
LayerCount: 2
Fore
SplineSet
161 -189 m 2,0,-1
 118 -189 l 2,1,2
 84 -189 84 -189 74 -185.5 c 128,-1,3
 64 -182 64 -182 62 -175.5 c 128,-1,4
 60 -169 60 -169 60 -156 c 1,5,-1
 64 -117 l 1,6,-1
 167 -110 l 1,7,8
 212 -110 212 -110 222.5 -97.5 c 128,-1,9
 233 -85 233 -85 242 -34 c 2,10,-1
 252 26 l 1,11,-1
 194 -7 l 1,12,13
 123 -7 123 -7 95.5 21 c 128,-1,14
 68 49 68 49 68 113.5 c 128,-1,15
 68 178 68 178 77 246 c 0,16,17
 102 434 102 434 170 505 c 0,18,19
 209 545 209 545 259 545 c 0,20,21
 265 545 265 545 271 544 c 2,22,-1
 346 537 l 1,23,24
 389 537 389 537 400.5 533 c 128,-1,25
 412 529 412 529 412 514 c 0,26,27
 412 510 412 510 411 506 c 2,28,-1
 324 -52 l 2,29,30
 312 -131 312 -131 281.5 -160 c 128,-1,31
 251 -189 251 -189 161 -189 c 2,0,-1
267 465 m 2,32,33
 230 465 230 465 202 395.5 c 128,-1,34
 174 326 174 326 164 254.5 c 128,-1,35
 154 183 154 183 154 143 c 128,-1,36
 154 103 154 103 164.5 88 c 128,-1,37
 175 73 175 73 199 72 c 1,38,-1
 269 108 l 1,39,-1
 267 126 l 1,40,-1
 319 457 l 1,41,-1
 322 465 l 1,42,-1
 267 465 l 2,32,33
EndSplineSet
EndChar

StartChar: h
Encoding: 104 104 75
Width: 390
GlyphClass: 2
Flags: W
LayerCount: 2
Fore
SplineSet
238 697 m 1,0,-1
 215 544 l 1,1,-1
 289 544 l 2,2,3
 399 544 399 544 399 459 c 0,4,5
 399 450 399 450 335 0 c 1,6,7
 284 0 284 0 270.5 5 c 128,-1,8
 257 10 257 10 257 34 c 1,9,10
 311 418 311 418 311 427 c 0,11,12
 311 465 311 465 281 465 c 2,13,-1
 195 465 l 1,14,-1
 201 440 l 1,15,-1
 139 56 l 1,16,17
 134 16 134 16 120.5 8 c 128,-1,18
 107 0 107 0 46 0 c 1,19,-1
 159 722 l 1,20,21
 228 722 228 722 234 712 c 0,22,23
 238 706 238 706 238 697 c 1,0,-1
EndSplineSet
EndChar

StartChar: i
Encoding: 105 105 76
Width: 187
GlyphClass: 2
Flags: W
LayerCount: 2
Fore
SplineSet
210.5 615 m 128,-1,1
 193 596 193 596 169.5 596 c 128,-1,2
 146 596 146 596 134 610 c 128,-1,3
 122 624 122 624 122 647.5 c 128,-1,4
 122 671 122 671 139.5 690.5 c 128,-1,5
 157 710 157 710 181 710 c 0,6,7
 228 710 228 710 228 660 c 0,8,0
 228 634 228 634 210.5 615 c 128,-1,1
195 514 m 1,9,-1
 115 -4 l 1,10,11
 46 -4 46 -4 38 6 c 0,12,13
 35 10 35 10 35 17 c 128,-1,14
 35 24 35 24 36 27 c 2,15,-1
 116 537 l 1,16,17
 183 537 183 537 191 528 c 0,18,19
 195 523 195 523 195 514 c 1,9,-1
EndSplineSet
EndChar

StartChar: j
Encoding: 106 106 77
Width: 193
GlyphClass: 2
Flags: W
LayerCount: 2
Fore
SplineSet
220.5 615 m 128,-1,1
 203 596 203 596 179 596 c 128,-1,2
 155 596 155 596 143 610 c 128,-1,3
 131 624 131 624 131 648 c 128,-1,4
 131 672 131 672 149 691 c 128,-1,5
 167 710 167 710 190.5 710 c 128,-1,6
 214 710 214 710 226 696.5 c 128,-1,7
 238 683 238 683 238 658.5 c 128,-1,0
 238 634 238 634 220.5 615 c 128,-1,1
-90 -189 m 1,8,-1
 -79 -119 l 1,9,10
 -13 -119 -13 -119 10.5 -87.5 c 128,-1,11
 34 -56 34 -56 45 16 c 2,12,-1
 127 537 l 1,13,14
 194 537 194 537 202 528 c 1,15,16
 205 523 205 523 205 515 c 1,17,-1
 127 12 l 2,18,19
 121 -28 121 -28 116 -50 c 128,-1,20
 111 -72 111 -72 96.5 -103 c 128,-1,21
 82 -134 82 -134 61 -150 c 0,22,23
 7 -189 7 -189 -90 -189 c 1,8,-1
EndSplineSet
EndChar

StartChar: k
Encoding: 107 107 78
Width: 355
GlyphClass: 2
Flags: W
LayerCount: 2
Fore
SplineSet
384 0 m 1,0,-1
 293 0 l 1,1,-1
 205 295 l 1,2,-1
 363 537 l 1,3,-1
 455 537 l 1,4,-1
 293 289 l 1,5,-1
 384 0 l 1,0,-1
124 0 m 1,6,7
 80 0 80 0 68.5 4 c 128,-1,8
 57 8 57 8 57 17.5 c 128,-1,9
 57 27 57 27 58 31 c 2,10,-1
 165 722 l 1,11,12
 212 722 212 722 226 718.5 c 128,-1,13
 240 715 240 715 242 709.5 c 128,-1,14
 244 704 244 704 244 699 c 128,-1,15
 244 694 244 694 243 689 c 2,16,-1
 138 12 l 1,17,-1
 124 0 l 1,6,7
EndSplineSet
EndChar

StartChar: l
Encoding: 108 108 79
Width: 199
GlyphClass: 2
Flags: W
LayerCount: 2
Fore
SplineSet
57 6 m 0,0,1
 54 10 54 10 54 17 c 128,-1,2
 54 24 54 24 163 722 c 1,3,4
 230 722 230 722 238 712 c 0,5,6
 242 706 242 706 242 701 c 128,-1,7
 242 696 242 696 222 567.5 c 128,-1,8
 202 439 202 439 135 9 c 1,9,-1
 121 -4 l 1,10,11
 63 -4 63 -4 57 6 c 0,0,1
EndSplineSet
EndChar

StartChar: m
Encoding: 109 109 80
Width: 603
GlyphClass: 2
Flags: W
LayerCount: 2
Fore
SplineSet
258 23 m 1,0,-1
 315 429 l 1,1,2
 315 465 315 465 280 465 c 1,3,-1
 196 418 l 1,4,-1
 196 401 l 1,5,-1
 134 0 l 1,6,7
 65 0 65 0 58 10 c 0,8,9
 54 14 54 14 54 21 c 128,-1,10
 54 28 54 28 134 537 c 1,11,12
 137 537 137 537 152 537 c 128,-1,13
 167 537 167 537 178 535.5 c 128,-1,14
 189 534 189 534 198.5 524.5 c 128,-1,15
 208 515 208 515 208 495 c 2,16,-1
 208 487 l 1,17,18
 217 493 217 493 236 509 c 0,19,20
 276 544 276 544 288 544 c 0,21,22
 332 544 332 544 356.5 533 c 128,-1,23
 381 522 381 522 387 510 c 128,-1,24
 393 498 393 498 396 476 c 1,25,26
 407 502 407 502 438.5 523 c 128,-1,27
 470 544 470 544 490 544 c 0,28,29
 551 544 551 544 579 529.5 c 128,-1,30
 607 515 607 515 607 474 c 0,31,32
 607 467 607 467 540 0 c 1,33,34
 471 0 471 0 464 10 c 0,35,36
 460 14 460 14 460 22 c 0,37,38
 466 78 466 78 519 438 c 1,39,40
 519 465 519 465 482 465 c 0,41,42
 470 465 470 465 399 419 c 1,43,-1
 399 401 l 1,44,-1
 337 0 l 1,45,46
 269 0 269 0 262 10 c 0,47,48
 258 14 258 14 258 23 c 1,0,-1
EndSplineSet
EndChar

StartChar: n
Encoding: 110 110 81
Width: 390
GlyphClass: 2
Flags: W
LayerCount: 2
Fore
SplineSet
256 24 m 1,0,-1
 314 429 l 1,1,2
 314 450 314 450 306.5 457.5 c 128,-1,3
 299 465 299 465 281 465 c 1,4,-1
 196 420 l 1,5,-1
 196 403 l 1,6,-1
 131 0 l 1,7,8
 63 0 63 0 56 10 c 0,9,10
 52 14 52 14 52 21 c 128,-1,11
 52 28 52 28 131 537 c 1,12,-1
 154 537 l 2,13,14
 209 537 209 537 211 506 c 1,15,16
 219 510 219 510 233 520 c 0,17,18
 264 544 264 544 286 544 c 0,19,20
 345 544 345 544 373 528 c 128,-1,21
 401 512 401 512 401 470 c 0,22,23
 401 462 401 462 336 0 c 1,24,25
 287 0 287 0 271.5 3.5 c 128,-1,26
 256 7 256 7 256 24 c 1,0,-1
EndSplineSet
EndChar

StartChar: o
Encoding: 111 111 82
Width: 374
GlyphClass: 2
Flags: W
LayerCount: 2
Fore
SplineSet
262.5 15.5 m 128,-1,1
 227 -7 227 -7 170 -7 c 128,-1,2
 113 -7 113 -7 86.5 19 c 128,-1,3
 60 45 60 45 60 115.5 c 128,-1,4
 60 186 60 186 69 256.5 c 128,-1,5
 78 327 78 327 99 395 c 128,-1,6
 120 463 120 463 162.5 503.5 c 128,-1,7
 205 544 205 544 268.5 544 c 128,-1,8
 332 544 332 544 359 518.5 c 128,-1,9
 386 493 386 493 386 442 c 128,-1,10
 386 391 386 391 384 353.5 c 128,-1,11
 382 316 382 316 376 261 c 128,-1,12
 370 206 370 206 355.5 162.5 c 128,-1,13
 341 119 341 119 319.5 78.5 c 128,-1,0
 298 38 298 38 262.5 15.5 c 128,-1,1
190 72 m 0,14,15
 223 72 223 72 247 115.5 c 128,-1,16
 271 159 271 159 281 222 c 0,17,18
 300 342 300 342 300 413 c 0,19,20
 300 441 300 441 290 453 c 128,-1,21
 280 465 280 465 256 465 c 0,22,23
 220 465 220 465 193 396 c 0,24,25
 146 277 146 277 146 125 c 0,26,27
 146 97 146 97 156 84.5 c 128,-1,28
 166 72 166 72 190 72 c 0,14,15
EndSplineSet
EndChar

StartChar: p
Encoding: 112 112 83
Width: 380
GlyphClass: 2
Flags: W
LayerCount: 2
Fore
SplineSet
20 -180 m 0,0,1
 16 -175 16 -175 16 -168 c 128,-1,2
 16 -161 16 -161 126 536 c 1,3,-1
 269 544 l 1,4,5
 335 544 335 544 361.5 514 c 128,-1,6
 388 484 388 484 388 420.5 c 128,-1,7
 388 357 388 357 380 290 c 128,-1,8
 372 223 372 223 353.5 151 c 128,-1,9
 335 79 335 79 298.5 33 c 128,-1,10
 262 -13 262 -13 213 -13 c 0,11,12
 194 -13 194 -13 129 27 c 1,13,-1
 95 -189 l 1,14,15
 27 -189 27 -189 20 -180 c 0,0,1
205 69 m 0,16,17
 246 69 246 69 273.5 191 c 128,-1,18
 301 313 301 313 301 375.5 c 128,-1,19
 301 438 301 438 293.5 451.5 c 128,-1,20
 286 465 286 465 256 465 c 2,21,-1
 197 465 l 1,22,-1
 197 454 l 1,23,-1
 145 121 l 1,24,-1
 139 106 l 1,25,26
 200 69 200 69 205 69 c 0,16,17
EndSplineSet
EndChar

StartChar: q
Encoding: 113 113 84
Width: 385
GlyphClass: 2
Flags: W
LayerCount: 2
Fore
SplineSet
406 514 m 1,0,-1
 296 -189 l 1,1,2
 228 -189 228 -189 220 -180 c 1,3,4
 217 -175 217 -175 217 -168 c 128,-1,5
 217 -161 217 -161 247 26 c 1,6,-1
 188 -7 l 1,7,8
 118 -7 118 -7 90 21 c 128,-1,9
 62 49 62 49 62 113 c 128,-1,10
 62 177 62 177 71 243.5 c 128,-1,11
 80 310 80 310 99.5 381.5 c 128,-1,12
 119 453 119 453 159 498.5 c 128,-1,13
 199 544 199 544 254 544 c 2,14,-1
 266 544 l 1,15,-1
 341 537 l 1,16,17
 397 537 397 537 403 527 c 0,18,19
 406 522 406 522 406 514 c 1,0,-1
261 465 m 2,20,21
 224 465 224 465 196.5 395.5 c 128,-1,22
 169 326 169 326 158.5 254.5 c 128,-1,23
 148 183 148 183 148 143 c 128,-1,24
 148 103 148 103 158.5 88 c 128,-1,25
 169 73 169 73 193 72 c 1,26,-1
 263 108 l 1,27,-1
 261 126 l 1,28,-1
 315 457 l 1,29,-1
 318 465 l 1,30,-1
 261 465 l 2,20,21
EndSplineSet
EndChar

StartChar: r
Encoding: 114 114 85
Width: 269
GlyphClass: 2
Flags: W
LayerCount: 2
Fore
SplineSet
34 10 m 0,0,1
 31 14 31 14 31 21 c 128,-1,2
 31 28 31 28 111 537 c 1,3,4
 163 537 163 537 176.5 533 c 128,-1,5
 190 529 190 529 190 510 c 2,6,-1
 190 502 l 1,7,8
 232 544 232 544 274 544 c 0,9,10
 291 544 291 544 318 530 c 1,11,12
 310 483 310 483 301 474 c 128,-1,13
 292 465 292 465 252 465 c 0,14,15
 240 465 240 465 172 409 c 1,16,-1
 172 389 l 1,17,-1
 111 0 l 1,18,19
 42 0 42 0 34 10 c 0,0,1
EndSplineSet
EndChar

StartChar: s
Encoding: 115 115 86
Width: 314
GlyphClass: 2
Flags: W
LayerCount: 2
Fore
SplineSet
225 178 m 0,0,1
 225 207 225 207 154 264 c 0,2,3
 127 285 127 285 104.5 318 c 128,-1,4
 82 351 82 351 81 384 c 1,5,6
 81 463 81 463 117 502.5 c 128,-1,7
 153 542 153 542 228 546 c 1,8,-1
 331 533 l 1,9,10
 323 465 323 465 277 463 c 1,11,-1
 224 469 l 1,12,13
 164 465 164 465 164 409 c 0,14,15
 164 370 164 370 238 310 c 0,16,17
 266 287 266 287 289.5 255 c 128,-1,18
 313 223 313 223 313 185.5 c 128,-1,19
 313 148 313 148 299.5 104.5 c 128,-1,20
 286 61 286 61 251 27 c 128,-1,21
 216 -7 216 -7 166 -7 c 1,22,-1
 38 5 l 1,23,-1
 48 82 l 1,24,-1
 172 77 l 1,25,26
 195 78 195 78 210 108.5 c 128,-1,27
 225 139 225 139 225 178 c 0,0,1
EndSplineSet
EndChar

StartChar: t
Encoding: 116 116 87
Width: 250
GlyphClass: 2
Flags: W
LayerCount: 2
Fore
SplineSet
59 62 m 0,0,1
 59 68 59 68 113 453 c 1,2,-1
 115 457 l 1,3,-1
 77 457 l 1,4,-1
 90 537 l 1,5,-1
 129 537 l 1,6,-1
 129 548 l 1,7,-1
 140 612 l 1,8,9
 191 612 191 612 205 607.5 c 128,-1,10
 219 603 219 603 219 580 c 1,11,-1
 212 546 l 1,12,-1
 210 537 l 1,13,-1
 296 537 l 1,14,15
 287 483 287 483 276.5 470 c 128,-1,16
 266 457 266 457 225 457 c 2,17,-1
 197 457 l 1,18,-1
 197 446 l 1,19,20
 145 96 145 96 145 90 c 0,21,22
 145 72 145 72 159 72 c 2,23,-1
 240 72 l 1,24,-1
 229 1 l 1,25,-1
 151 -5 l 1,26,27
 59 -5 59 -5 59 62 c 0,0,1
EndSplineSet
EndChar

StartChar: u
Encoding: 117 117 88
Width: 385
GlyphClass: 2
Flags: W
LayerCount: 2
Fore
SplineSet
387 528 m 0,0,1
 391 523 391 523 391 517 c 128,-1,2
 391 511 391 511 312 0 c 1,3,4
 260 0 260 0 246 4.5 c 128,-1,5
 232 9 232 9 232 31 c 1,6,-1
 233 41 l 1,7,-1
 159 -7 l 1,8,9
 43 -7 43 -7 43 80 c 0,10,11
 43 88 43 88 107 537 c 1,12,13
 155 537 155 537 170.5 533.5 c 128,-1,14
 186 530 186 530 186 513 c 1,15,-1
 131 109 l 1,16,17
 131 72 131 72 157 72 c 1,18,-1
 249 128 l 1,19,-1
 249 145 l 1,20,-1
 312 537 l 1,21,22
 379 537 379 537 387 528 c 0,0,1
EndSplineSet
EndChar

StartChar: v
Encoding: 118 118 89
Width: 327
GlyphClass: 2
Flags: W
LayerCount: 2
Fore
SplineSet
395 519 m 0,0,1
 395 514 395 514 246 85 c 0,2,3
 223 21 223 21 213.5 10.5 c 128,-1,4
 204 0 204 0 169 0 c 0,5,6
 148 0 148 0 134 14 c 0,7,8
 107 41 107 41 105 90 c 2,9,-1
 92 537 l 1,10,11
 146 537 146 537 160 526 c 128,-1,12
 174 515 174 515 174 479 c 2,13,-1
 174 116 l 1,14,-1
 317 537 l 1,15,16
 364 537 364 537 379.5 534.5 c 128,-1,17
 395 532 395 532 395 519 c 0,0,1
EndSplineSet
EndChar

StartChar: w
Encoding: 119 119 90
Width: 548
GlyphClass: 2
Flags: W
LayerCount: 2
Fore
SplineSet
310 90 m 2,0,-1
 311 319 l 1,1,-1
 237 85 l 2,2,3
 218 24 218 24 207 12 c 128,-1,4
 196 0 196 0 168 0 c 0,5,6
 131 0 131 0 113 46 c 0,7,8
 106 65 106 65 105 90 c 2,9,-1
 94 537 l 1,10,11
 156 537 156 537 167.5 529.5 c 128,-1,12
 179 522 179 522 179 479 c 2,13,-1
 180 152 l 1,14,15
 259 382 259 382 282.5 434 c 128,-1,16
 306 486 306 486 332 486 c 0,17,18
 373 486 373 486 381.5 480 c 128,-1,19
 390 474 390 474 390 442 c 2,20,-1
 390 155 l 1,21,-1
 516 537 l 1,22,23
 519 537 519 537 539 537 c 128,-1,24
 559 537 559 537 573.5 535 c 128,-1,25
 588 533 588 533 588 524 c 1,26,-1
 573 477 l 2,27,28
 522 316 522 316 448 85 c 1,29,30
 425 21 425 21 415.5 10.5 c 128,-1,31
 406 0 406 0 378.5 0 c 128,-1,32
 351 0 351 0 330.5 20.5 c 128,-1,33
 310 41 310 41 310 90 c 2,0,-1
EndSplineSet
EndChar

StartChar: x
Encoding: 120 120 91
Width: 318
GlyphClass: 2
Flags: W
LayerCount: 2
Fore
SplineSet
10 16 m 0,0,1
 10 21 10 21 147 292 c 1,2,-1
 97 537 l 1,3,4
 158 537 158 537 170.5 530 c 128,-1,5
 183 523 183 523 193 484 c 1,6,-1
 208 364 l 1,7,-1
 288 537 l 1,8,9
 357 537 357 537 357 521 c 0,10,11
 357 517 357 517 245 278 c 1,12,-1
 305 0 l 1,13,-1
 221 0 l 1,14,-1
 182 201 l 1,15,-1
 82 0 l 1,16,17
 10 0 10 0 10 16 c 0,0,1
EndSplineSet
EndChar

StartChar: y
Encoding: 121 121 92
Width: 317
GlyphClass: 2
Flags: W
LayerCount: 2
Fore
SplineSet
171 487 m 0,0,1
 171 483 171 483 171 479 c 2,2,-1
 171 110 l 1,3,-1
 305 537 l 1,4,5
 345 537 345 537 362 533.5 c 128,-1,6
 379 530 379 530 379 517 c 0,7,8
 379 514 379 514 291.5 257.5 c 128,-1,9
 204 1 204 1 198 -15 c 0,10,11
 163 -102 163 -102 137 -131 c 0,12,13
 90 -185 90 -185 -16 -189 c 1,14,-1
 -6 -116 l 1,15,16
 46 -116 46 -116 75.5 -80.5 c 128,-1,17
 105 -45 105 -45 105 6 c 1,18,-1
 90 537 l 1,19,20
 152 537 152 537 161.5 530 c 128,-1,21
 171 523 171 523 171 487 c 0,0,1
EndSplineSet
EndChar

StartChar: z
Encoding: 122 122 93
Width: 333
GlyphClass: 2
Flags: W
LayerCount: 2
Fore
SplineSet
186 537 m 2,0,-1
 379 537 l 1,1,-1
 366 466 l 1,2,-1
 131 79 l 1,3,-1
 236 79 l 2,4,5
 276 79 276 79 288.5 75 c 128,-1,6
 301 71 301 71 301 52 c 0,7,8
 301 47 301 47 297 0 c 1,9,-1
 27 0 l 1,10,-1
 37 69 l 1,11,-1
 264 457 l 1,12,-1
 117 457 l 1,13,14
 127 517 127 517 136 527 c 128,-1,15
 145 537 145 537 186 537 c 2,0,-1
EndSplineSet
EndChar

StartChar: braceleft
Encoding: 123 123 94
Width: 240
GlyphClass: 2
Flags: W
LayerCount: 2
Fore
SplineSet
338 750 m 0,0,1
 341 746 341 746 341 742 c 2,2,-1
 341 736 l 1,3,4
 341 736 341 736 333 688 c 1,5,-1
 258 688 l 1,6,-1
 229 505 l 1,7,-1
 135 349 l 1,8,-1
 180 193 l 1,9,-1
 150 6 l 1,10,-1
 160 6 l 2,11,12
 198 6 198 6 209 1.5 c 128,-1,13
 220 -3 220 -3 220 -25.5 c 128,-1,14
 220 -48 220 -48 214 -66 c 1,15,-1
 127 -66 l 2,16,17
 99 -66 99 -66 89 -65 c 0,18,19
 66 -63 66 -63 66 -36 c 0,20,21
 66 -30 66 -30 101 194 c 1,22,-1
 57 339 l 1,23,-1
 61 368 l 1,24,-1
 151 515 l 1,25,-1
 191 760 l 1,26,-1
 279 760 l 2,27,28
 332 760 332 760 338 750 c 0,0,1
EndSplineSet
EndChar

StartChar: bar
Encoding: 124 124 95
Width: 190
GlyphClass: 2
Flags: W
LayerCount: 2
Fore
SplineSet
25 -180 m 0,0,1
 22 -175 22 -175 22 -168 c 128,-1,2
 22 -161 22 -161 161 722 c 1,3,4
 228 722 228 722 236 712 c 0,5,6
 240 706 240 706 240 701 c 128,-1,7
 240 696 240 696 214.5 533 c 128,-1,8
 189 370 189 370 104 -177 c 1,9,-1
 90 -189 l 1,10,11
 31 -189 31 -189 25 -180 c 0,0,1
EndSplineSet
EndChar

StartChar: braceright
Encoding: 125 125 96
Width: 239
GlyphClass: 2
Flags: W
LayerCount: 2
Fore
SplineSet
87 -66 m 2,0,-1
 -6 -66 l 1,1,2
 4 -12 4 -12 13.5 -3 c 128,-1,3
 23 6 23 6 69 6 c 2,4,-1
 82 6 l 1,5,-1
 113 199 l 1,6,-1
 207 355 l 1,7,-1
 162 510 l 1,8,-1
 190 688 l 1,9,-1
 114 688 l 1,10,11
 123 742 123 742 132.5 751 c 128,-1,12
 142 760 142 760 188 760 c 2,13,-1
 281 760 l 1,14,-1
 241 510 l 1,15,-1
 285 364 l 1,16,-1
 281 334 l 1,17,-1
 189 188 l 1,18,-1
 159 -10 l 2,19,20
 153 -50 153 -50 143 -58 c 128,-1,21
 133 -66 133 -66 87 -66 c 2,0,-1
EndSplineSet
EndChar

StartChar: asciitilde
Encoding: 126 126 97
Width: 377
GlyphClass: 2
Flags: W
LayerCount: 2
Fore
SplineSet
161 368 m 1,0,-1
 321 358 l 1,1,-1
 349 361 l 1,2,-1
 381 359 l 1,3,-1
 375 322 l 2,4,5
 370 292 370 292 361 287 c 128,-1,6
 352 282 352 282 301 282 c 1,7,-1
 139 292 l 1,8,-1
 111 290 l 1,9,-1
 81 292 l 1,10,-1
 87 328 l 2,11,12
 92 358 92 358 101 363 c 128,-1,13
 110 368 110 368 161 368 c 1,0,-1
EndSplineSet
EndChar

StartChar: exclamdown
Encoding: 161 161 99
Width: 162
GlyphClass: 2
Flags: W
LayerCount: 2
Fore
SplineSet
211 492 m 2,0,-1
 211 483 l 1,1,2
 207 460 207 460 188 443.5 c 128,-1,3
 169 427 169 427 146.5 427 c 128,-1,4
 124 427 124 427 109.5 442 c 128,-1,5
 95 457 95 457 95 480 c 128,-1,6
 95 503 95 503 115 522.5 c 128,-1,7
 135 542 135 542 158.5 542 c 128,-1,8
 182 542 182 542 196.5 528 c 128,-1,9
 211 514 211 514 211 492 c 2,0,-1
-12 -169 m 1,10,-1
 84 313 l 2,11,12
 92 354 92 354 103 360.5 c 128,-1,13
 114 367 114 367 175 368 c 1,14,-1
 90 -114 l 2,15,16
 83 -150 83 -150 65 -159.5 c 128,-1,17
 47 -169 47 -169 -12 -169 c 1,10,-1
EndSplineSet
EndChar

StartChar: cent
Encoding: 162 162 100
Width: 344
GlyphClass: 2
Flags: W
LayerCount: 2
Fore
SplineSet
289 542 m 1,0,-1
 372 536 l 1,1,2
 363 483 363 483 354 474 c 128,-1,3
 345 465 345 465 300 465 c 2,4,-1
 244 465 l 2,5,6
 203 465 203 465 175 392 c 0,7,8
 130 275 130 275 130 130 c 0,9,10
 130 99 130 99 141 85.5 c 128,-1,11
 152 72 152 72 175 72 c 128,-1,12
 198 72 198 72 298 82 c 1,13,-1
 288 11 l 1,14,-1
 203 -3 l 1,15,16
 197 -33 197 -33 192.5 -67.5 c 128,-1,17
 188 -102 188 -102 186 -112 c 1,18,19
 140 -112 140 -112 128 -107.5 c 128,-1,20
 116 -103 116 -103 116 -86.5 c 128,-1,21
 116 -70 116 -70 118 -57.5 c 128,-1,22
 120 -45 120 -45 123 -29.5 c 128,-1,23
 126 -14 126 -14 127 -4 c 1,24,25
 81 4 81 4 62.5 30 c 128,-1,26
 44 56 44 56 44 104.5 c 128,-1,27
 44 153 44 153 47.5 202.5 c 128,-1,28
 51 252 51 252 62 315 c 128,-1,29
 73 378 73 378 90.5 426.5 c 128,-1,30
 108 475 108 475 139.5 508.5 c 128,-1,31
 171 542 171 542 212 542 c 1,32,-1
 226 629 l 1,33,34
 271 629 271 629 283.5 624.5 c 128,-1,35
 296 620 296 620 296 598.5 c 128,-1,36
 296 577 296 577 289 542 c 1,0,-1
EndSplineSet
EndChar

StartChar: sterling
Encoding: 163 163 101
Width: 381
GlyphClass: 2
Flags: W
LayerCount: 2
Fore
SplineSet
240 537 m 1,0,-1
 200 277 l 1,1,2
 216 276 216 276 236.5 276 c 128,-1,3
 257 276 257 276 275 278 c 1,4,-1
 306 277 l 1,5,-1
 301 241 l 2,6,7
 297 210 297 210 287 205 c 128,-1,8
 277 200 277 200 226 200 c 2,9,-1
 188 200 l 1,10,-1
 171 86 l 1,11,-1
 169 81 l 1,12,-1
 271 81 l 2,13,14
 300 81 300 81 310 80 c 0,15,16
 336 78 336 78 336 55 c 0,17,18
 336 50 336 50 332 -1 c 1,19,-1
 72 -1 l 1,20,-1
 106 208 l 1,21,22
 94 209 94 209 76 209 c 128,-1,23
 58 209 58 209 44 207 c 1,24,-1
 14 209 l 1,25,-1
 19 245 l 2,26,27
 23 276 23 276 33 281 c 128,-1,28
 43 286 43 286 76 286 c 128,-1,29
 109 286 109 286 117 285 c 1,30,-1
 162 561 l 1,31,32
 208 561 208 561 224 557.5 c 128,-1,33
 240 554 240 554 240 537 c 1,0,-1
EndSplineSet
EndChar

StartChar: currency
Encoding: 164 164 102
Width: 486
GlyphClass: 2
Flags: W
LayerCount: 2
Fore
SplineSet
340.5 334 m 128,-1,1
 363 355 363 355 363 379.5 c 128,-1,2
 363 404 363 404 349 417.5 c 128,-1,3
 335 431 335 431 311 431 c 128,-1,4
 287 431 287 431 263.5 410 c 128,-1,5
 240 389 240 389 240 364.5 c 128,-1,6
 240 340 240 340 254 326.5 c 128,-1,7
 268 313 268 313 293 313 c 128,-1,0
 318 313 318 313 340.5 334 c 128,-1,1
283 234 m 128,-1,9
 250 234 250 234 221 249 c 1,10,-1
 137 186 l 1,11,12
 107 219 107 219 107 232.5 c 128,-1,13
 107 246 107 246 117 258.5 c 128,-1,14
 127 271 127 271 148 286.5 c 128,-1,15
 169 302 169 302 172 305 c 1,16,17
 161 329 161 329 161 365 c 128,-1,18
 161 401 161 401 193 442 c 1,19,-1
 142 514 l 1,20,21
 179 548 179 548 195 548 c 128,-1,22
 211 548 211 548 235 518 c 2,23,-1
 255 493 l 1,24,25
 293 510 293 510 327 510 c 128,-1,26
 361 510 361 510 389 491 c 1,27,-1
 471 553 l 1,28,29
 502 520 502 520 501.5 503.5 c 128,-1,30
 501 487 501 487 435 434 c 1,31,32
 443 413 443 413 443 390 c 0,33,34
 443 343 443 343 413 302 c 1,35,-1
 464 229 l 1,36,37
 426 195 426 195 412 195.5 c 128,-1,38
 398 196 398 196 388 204.5 c 128,-1,39
 378 213 378 213 365.5 230 c 128,-1,40
 353 247 353 247 350 250 c 1,41,8
 316 234 316 234 283 234 c 128,-1,9
EndSplineSet
EndChar

StartChar: yen
Encoding: 165 165 103
Width: 402
GlyphClass: 2
Flags: W
LayerCount: 2
Fore
SplineSet
155 23 m 1,0,-1
 163 83 l 1,1,2
 131 85 131 85 121 85 c 128,-1,3
 111 85 111 85 93 83 c 1,4,-1
 64 85 l 1,5,-1
 68 121 l 2,6,7
 71 151 71 151 81.5 156.5 c 128,-1,8
 92 162 92 162 127.5 162 c 128,-1,9
 163 162 163 162 175 161 c 1,10,-1
 177 174 l 1,11,12
 145 176 145 176 134.5 176 c 128,-1,13
 124 176 124 176 108 174 c 1,14,-1
 78 176 l 1,15,-1
 83 212 l 2,16,17
 88 243 88 243 97 248 c 128,-1,18
 106 253 106 253 143.5 253 c 128,-1,19
 181 253 181 253 192 252 c 1,20,-1
 192 261 l 1,21,-1
 100 537 l 1,22,-1
 134 537 l 2,23,24
 172 537 172 537 181 530.5 c 128,-1,25
 190 524 190 524 203 484 c 2,26,-1
 247 350 l 1,27,-1
 362 537 l 1,28,-1
 385 537 l 2,29,30
 387 537 387 537 391 537 c 0,31,32
 443 537 443 537 443 525 c 0,33,34
 443 520 443 520 275 258 c 1,35,36
 274 254 274 254 272.5 251.5 c 128,-1,37
 271 249 271 249 269 243 c 1,38,39
 284 242 284 242 306 242 c 128,-1,40
 328 242 328 242 342 245 c 1,41,-1
 372 243 l 1,42,-1
 368 207 l 2,43,44
 364 178 364 178 354 172.5 c 128,-1,45
 344 167 344 167 293 167 c 2,46,-1
 261 167 l 1,47,-1
 259 152 l 1,48,49
 318 152 318 152 328 154 c 1,50,-1
 358 152 l 1,51,-1
 353 116 l 2,52,53
 349 86 349 86 339.5 81 c 128,-1,54
 330 76 330 76 279 76 c 2,55,-1
 246 76 l 1,56,-1
 235 0 l 1,57,-1
 218 0 l 2,58,59
 164 0 164 0 158 10 c 0,60,61
 155 14 155 14 155 23 c 1,0,-1
EndSplineSet
EndChar

StartChar: brokenbar
Encoding: 166 166 104
Width: 176
GlyphClass: 2
Flags: W
LayerCount: 2
Fore
SplineSet
100 314 m 0,0,1
 96 319 96 319 96 325.5 c 128,-1,2
 96 332 96 332 157 722 c 1,3,4
 206 722 206 722 222.5 718 c 128,-1,5
 239 714 239 714 239 695 c 0,6,7
 239 694 239 694 228.5 625 c 128,-1,8
 218 556 218 556 182 317 c 1,9,-1
 167 305 l 1,10,11
 107 305 107 305 100 314 c 0,0,1
162 204 m 0,12,13
 162 203 162 203 158 179 c 128,-1,14
 154 155 154 155 150 127.5 c 128,-1,15
 146 100 146 100 133 17 c 128,-1,16
 120 -66 120 -66 104 -173 c 1,17,-1
 90 -186 l 1,18,19
 30 -186 30 -186 22 -176 c 0,20,21
 19 -172 19 -172 19 -163 c 1,22,-1
 79 231 l 1,23,24
 129 231 129 231 145.5 227 c 128,-1,25
 162 223 162 223 162 204 c 0,12,13
EndSplineSet
EndChar

StartChar: section
Encoding: 167 167 105
Width: 326
GlyphClass: 2
Flags: W
LayerCount: 2
Fore
SplineSet
35 93 m 1,0,1
 143 72 143 72 161 72 c 128,-1,2
 179 72 179 72 191 78 c 128,-1,3
 203 84 203 84 209.5 91 c 128,-1,4
 216 98 216 98 221 114 c 0,5,6
 228 136 228 136 234 170 c 1,7,8
 234 198 234 198 158 262 c 1,9,10
 130 287 130 287 106.5 323 c 128,-1,11
 83 359 83 359 83 392 c 0,12,13
 83 477 83 477 127 513 c 1,14,15
 112 540 112 540 112 566 c 0,16,17
 112 647 112 647 151 683 c 128,-1,18
 190 719 190 719 277 721 c 1,19,-1
 380 706 l 1,20,21
 367 635 367 635 321 635 c 0,22,23
 309 635 309 635 269 642 c 1,24,25
 227 642 227 642 212.5 627 c 128,-1,26
 198 612 198 612 198 587.5 c 128,-1,27
 198 563 198 563 222 536 c 128,-1,28
 246 509 246 509 274.5 485.5 c 128,-1,29
 303 462 303 462 327 427.5 c 128,-1,30
 351 393 351 393 351 361 c 0,31,32
 351 277 351 277 311 225 c 1,33,34
 322 204 322 204 322 183 c 0,35,36
 322 102 322 102 282.5 47.5 c 128,-1,37
 243 -7 243 -7 153 -7 c 0,38,39
 126 -7 126 -7 24 22 c 1,40,-1
 35 93 l 1,0,1
255 299 m 1,41,42
 263 329 263 329 263 342 c 128,-1,43
 263 355 263 355 258.5 363.5 c 128,-1,44
 254 372 254 372 244.5 382.5 c 128,-1,45
 235 393 235 393 226 402 c 0,46,47
 199 427 199 427 179 447 c 1,48,49
 173 439 173 439 169 408 c 1,50,-1
 168 403 l 1,51,52
 168 381 168 381 196 354 c 0,53,54
 207 344 207 344 226.5 326 c 128,-1,55
 246 308 246 308 255 299 c 1,41,42
EndSplineSet
EndChar

StartChar: dieresis
Encoding: 168 168 106
Width: 341
GlyphClass: 2
Flags: W
LayerCount: 2
Fore
SplineSet
239.5 615.5 m 128,-1,1
 220 596 220 596 196.5 596 c 128,-1,2
 173 596 173 596 158 610.5 c 128,-1,3
 143 625 143 625 143 648 c 128,-1,4
 143 671 143 671 163 690.5 c 128,-1,5
 183 710 183 710 207 710 c 128,-1,6
 231 710 231 710 245 696 c 128,-1,7
 259 682 259 682 259 658.5 c 128,-1,0
 259 635 259 635 239.5 615.5 c 128,-1,1
380.5 696 m 128,-1,9
 395 682 395 682 395 658.5 c 128,-1,10
 395 635 395 635 375 615.5 c 128,-1,11
 355 596 355 596 331.5 596 c 128,-1,12
 308 596 308 596 293 610.5 c 128,-1,13
 278 625 278 625 278 648 c 128,-1,14
 278 671 278 671 298.5 690.5 c 128,-1,15
 319 710 319 710 342.5 710 c 128,-1,8
 366 710 366 710 380.5 696 c 128,-1,9
EndSplineSet
EndChar

StartChar: copyright
Encoding: 169 169 107
Width: 653
GlyphClass: 2
Flags: W
LayerCount: 2
Fore
SplineSet
247 198 m 128,-1,1
 247 243 247 243 252.5 287 c 128,-1,2
 258 331 258 331 270.5 379.5 c 128,-1,3
 283 428 283 428 311 458 c 128,-1,4
 339 488 339 488 378 488 c 0,5,6
 383 488 383 488 473 482 c 1,7,8
 466 436 466 436 459 428.5 c 128,-1,9
 452 421 452 421 420 421 c 2,10,-1
 379 421 l 2,11,12
 352 421 352 421 335 341.5 c 128,-1,13
 318 262 318 262 318 219.5 c 128,-1,14
 318 177 318 177 334 176 c 1,15,16
 391 185 391 185 436 188 c 1,17,-1
 425 119 l 1,18,-1
 331 105 l 1,19,20
 285 105 285 105 266 129 c 128,-1,0
 247 153 247 153 247 198 c 128,-1,1
319 0 m 0,21,22
 209 0 209 0 141.5 69.5 c 128,-1,23
 74 139 74 139 74 245 c 0,24,25
 74 376 74 376 172 481.5 c 128,-1,26
 270 587 270 587 407 587 c 0,27,28
 515 587 515 587 582.5 517 c 128,-1,29
 650 447 650 447 650 341 c 0,30,31
 650 203 650 203 550.5 101.5 c 128,-1,32
 451 0 451 0 319 0 c 0,21,22
326 77 m 0,33,34
 426 77 426 77 499 153.5 c 128,-1,35
 572 230 572 230 572 334 c 0,36,37
 572 410 572 410 524.5 460 c 128,-1,38
 477 510 477 510 399 510 c 0,39,40
 301 510 301 510 226.5 432.5 c 128,-1,41
 152 355 152 355 152 254 c 0,42,43
 152 177 152 177 200 127 c 128,-1,44
 248 77 248 77 326 77 c 0,33,34
EndSplineSet
EndChar

StartChar: ordfeminine
Encoding: 170 170 108
Width: 271
GlyphClass: 2
Flags: W
LayerCount: 2
Fore
SplineSet
218 460 m 1,0,-1
 228 521 l 1,1,2
 186 519 186 519 184 507 c 2,3,-1
 174 439 l 1,4,-1
 175 438 l 1,5,-1
 218 460 l 1,0,-1
150 681 m 1,6,-1
 152 712 l 1,7,-1
 232 723 l 1,8,9
 320 723 320 723 320 674 c 1,10,-1
 276 373 l 1,11,12
 222 373 222 373 218 379 c 128,-1,13
 214 385 214 385 213 393 c 1,14,-1
 174 368 l 1,15,16
 145 368 145 368 133 369.5 c 128,-1,17
 121 371 121 371 111 379 c 128,-1,18
 101 387 101 387 101 400.5 c 128,-1,19
 101 414 101 414 114 510 c 0,20,21
 125 590 125 590 242 594 c 1,22,-1
 250 647 l 1,23,24
 250 655 250 655 227 655 c 0,25,26
 202 655 202 655 176 655 c 128,-1,27
 150 655 150 655 150 681 c 1,6,-1
EndSplineSet
EndChar

StartChar: guillemotleft
Encoding: 171 171 109
Width: 323
GlyphClass: 2
Flags: W
LayerCount: 2
Fore
SplineSet
166 128 m 1,0,-1
 85 128 l 1,1,-1
 37 288 l 1,2,-1
 41 318 l 1,3,-1
 138 474 l 1,4,-1
 223 474 l 1,5,-1
 115 297 l 1,6,-1
 166 128 l 1,0,-1
303 128 m 1,7,-1
 222 128 l 1,8,-1
 174 288 l 1,9,-1
 178 318 l 1,10,-1
 275 474 l 1,11,-1
 360 474 l 1,12,-1
 252 297 l 1,13,-1
 303 128 l 1,7,-1
EndSplineSet
EndChar

StartChar: logicalnot
Encoding: 172 172 110
Width: 356
GlyphClass: 2
Flags: W
LayerCount: 2
Fore
SplineSet
258 210 m 1,0,-1
 269 286 l 1,1,-1
 61 286 l 1,2,-1
 74 365 l 1,3,-1
 355 365 l 1,4,-1
 340 272 l 2,5,6
 332 225 332 225 322 217.5 c 128,-1,7
 312 210 312 210 258 210 c 1,0,-1
EndSplineSet
EndChar

StartChar: registered
Encoding: 174 174 111
Width: 653
GlyphClass: 2
Flags: W
LayerCount: 2
Fore
SplineSet
460.5 471.5 m 128,-1,1
 481 455 481 455 481 419.5 c 128,-1,2
 481 384 481 384 477 358 c 128,-1,3
 473 332 473 332 455 305 c 128,-1,4
 437 278 437 278 404 270 c 1,5,-1
 467 125 l 1,6,7
 415 125 415 125 402 131 c 128,-1,8
 389 137 389 137 380 158 c 2,9,-1
 338 250 l 1,10,-1
 325 164 l 2,11,12
 320 135 320 135 310.5 130 c 128,-1,13
 301 125 301 125 247 125 c 1,14,-1
 304 482 l 1,15,-1
 384 488 l 1,16,0
 440 488 440 488 460.5 471.5 c 128,-1,1
360 333 m 2,17,18
 389 333 389 333 399 349.5 c 128,-1,19
 409 366 409 366 409 407 c 0,20,21
 409 420 409 420 379 420 c 2,22,-1
 365 420 l 1,23,-1
 352 333 l 1,24,-1
 360 333 l 2,17,18
319 0 m 0,25,26
 209 0 209 0 141.5 69.5 c 128,-1,27
 74 139 74 139 74 245 c 0,28,29
 74 376 74 376 172 481.5 c 128,-1,30
 270 587 270 587 407 587 c 0,31,32
 515 587 515 587 582.5 517 c 128,-1,33
 650 447 650 447 650 341 c 0,34,35
 650 203 650 203 550.5 101.5 c 128,-1,36
 451 0 451 0 319 0 c 0,25,26
326 77 m 0,37,38
 426 77 426 77 499 153.5 c 128,-1,39
 572 230 572 230 572 334 c 0,40,41
 572 410 572 410 524.5 460 c 128,-1,42
 477 510 477 510 399 510 c 0,43,44
 301 510 301 510 226.5 432.5 c 128,-1,45
 152 355 152 355 152 254 c 0,46,47
 152 177 152 177 200 127 c 128,-1,48
 248 77 248 77 326 77 c 0,37,38
EndSplineSet
EndChar

StartChar: macron
Encoding: 175 175 112
Width: 336
GlyphClass: 2
Flags: W
LayerCount: 2
Fore
SplineSet
379 634 m 1,0,-1
 147 634 l 1,1,-1
 160 710 l 1,2,-1
 392 710 l 1,3,-1
 379 634 l 1,0,-1
EndSplineSet
EndChar

StartChar: degree
Encoding: 176 176 113
Width: 348
GlyphClass: 2
Flags: W
LayerCount: 2
Fore
SplineSet
368.5 687 m 128,-1,1
 403 653 403 653 403 596.5 c 128,-1,2
 403 540 403 540 353 492.5 c 128,-1,3
 303 445 303 445 246.5 445 c 128,-1,4
 190 445 190 445 155 479.5 c 128,-1,5
 120 514 120 514 120 569.5 c 128,-1,6
 120 625 120 625 168.5 673 c 128,-1,7
 217 721 217 721 275.5 721 c 128,-1,0
 334 721 334 721 368.5 687 c 128,-1,1
300 544.5 m 128,-1,9
 323 565 323 565 323 589.5 c 128,-1,10
 323 614 323 614 308.5 628 c 128,-1,11
 294 642 294 642 269.5 642 c 128,-1,12
 245 642 245 642 222.5 621 c 128,-1,13
 200 600 200 600 200 575.5 c 128,-1,14
 200 551 200 551 214 537.5 c 128,-1,15
 228 524 228 524 252.5 524 c 128,-1,8
 277 524 277 524 300 544.5 c 128,-1,9
EndSplineSet
EndChar

StartChar: plusminus
Encoding: 177 177 114
Width: 279
GlyphClass: 2
Flags: W
LayerCount: 2
Fore
SplineSet
231 386 m 1,0,-1
 231 375 l 1,1,-1
 217 299 l 1,2,-1
 139 299 l 1,3,-1
 155 382 l 1,4,-1
 157 386 l 1,5,-1
 80 386 l 1,6,-1
 91 463 l 1,7,-1
 170 463 l 1,8,-1
 170 474 l 1,9,-1
 184 550 l 1,10,-1
 262 550 l 1,11,-1
 245 463 l 1,12,-1
 322 463 l 1,13,-1
 311 386 l 1,14,-1
 231 386 l 1,0,-1
275 185 m 1,15,-1
 43 185 l 1,16,-1
 55 261 l 1,17,-1
 286 261 l 1,18,-1
 275 185 l 1,15,-1
EndSplineSet
EndChar

StartChar: twosuperior
Encoding: 178 178 115
Width: 270
GlyphClass: 2
Flags: W
LayerCount: 2
Fore
SplineSet
243 648 m 0,0,1
 243 654 243 654 228 654 c 2,2,-1
 195 654 l 2,3,4
 172 654 172 654 164.5 658 c 128,-1,5
 157 662 157 662 157 681 c 1,6,-1
 162 719 l 1,7,-1
 237 725 l 1,8,9
 284 724 284 724 301.5 709 c 128,-1,10
 319 694 319 694 319 660.5 c 128,-1,11
 319 627 319 627 303.5 601 c 128,-1,12
 288 575 288 575 269 562 c 0,13,14
 214 526 214 526 203 500 c 1,15,-1
 197 471 l 1,16,-1
 292 471 l 1,17,-1
 281 401 l 1,18,-1
 112 401 l 1,19,-1
 130 509 l 2,20,21
 137 548 137 548 192 586 c 0,22,23
 243 621 243 621 243 648 c 0,0,1
EndSplineSet
EndChar

StartChar: threesuperior
Encoding: 179 179 116
Width: 256
GlyphClass: 2
Flags: W
LayerCount: 2
Fore
SplineSet
198 465 m 0,0,1
 209 465 209 465 216 504.5 c 128,-1,2
 223 544 223 544 223 569 c 0,3,4
 223 574 223 574 218 574 c 2,5,-1
 159 574 l 1,6,-1
 212 652 l 1,7,-1
 154 652 l 1,8,-1
 164 722 l 1,9,-1
 334 722 l 1,10,-1
 266 626 l 1,11,12
 284 619 284 619 291 608 c 128,-1,13
 298 597 298 597 298 576 c 0,14,15
 298 394 298 394 205 394 c 0,16,17
 197 394 197 394 115 405 c 1,18,-1
 124 470 l 1,19,-1
 197 465 l 1,20,21
 197 465 197 465 198 465 c 0,0,1
EndSplineSet
EndChar

StartChar: acute
Encoding: 180 180 117
Width: 173
GlyphClass: 2
Flags: W
LayerCount: 2
Fore
SplineSet
231 722 m 128,-1,1
 246 722 246 722 280 684 c 0,2,3
 283 680 283 680 285 678 c 1,4,-1
 136 549 l 1,5,-1
 91 606 l 1,6,-1
 182 692 l 1,7,0
 216 722 216 722 231 722 c 128,-1,1
EndSplineSet
EndChar

StartChar: mu
Encoding: 181 181 118
Width: 380
GlyphClass: 2
Flags: W
LayerCount: 2
Fore
SplineSet
210 507 m 0,0,1
 210 501 210 501 148 111 c 1,2,-1
 144 103 l 1,3,-1
 216 74 l 1,4,5
 262 75 262 75 282.5 146 c 128,-1,6
 303 217 303 217 346 483 c 0,7,8
 353 525 353 525 364.5 532 c 128,-1,9
 376 539 376 539 440 539 c 1,10,-1
 397 271 l 2,11,12
 373 121 373 121 354 82 c 0,13,14
 327 28 327 28 300 16 c 1,15,16
 258 -5 258 -5 203 -5 c 1,17,-1
 132 25 l 1,18,-1
 132 16 l 1,19,-1
 109 -127 l 1,20,21
 104 -167 104 -167 91 -175 c 128,-1,22
 78 -183 78 -183 17 -183 c 1,23,-1
 131 539 l 1,24,25
 182 539 182 539 196 534.5 c 128,-1,26
 210 530 210 530 210 507 c 0,0,1
EndSplineSet
EndChar

StartChar: paragraph
Encoding: 182 182 119
Width: 510
GlyphClass: 2
Flags: W
LayerCount: 2
Fore
SplineSet
112 564 m 0,0,1
 112 625 112 625 159 670.5 c 128,-1,2
 206 716 206 716 271 721 c 1,3,-1
 589 721 l 1,4,-1
 576 633 l 1,5,-1
 476 633 l 1,6,-1
 378 0 l 1,7,-1
 289 0 l 1,8,-1
 389 633 l 1,9,-1
 332 633 l 1,10,-1
 234 0 l 1,11,-1
 145 0 l 1,12,-1
 216 446 l 1,13,14
 173 454 173 454 142.5 487.5 c 128,-1,15
 112 521 112 521 112 564 c 0,0,1
EndSplineSet
EndChar

StartChar: periodcentered
Encoding: 183 183 120
Width: 176
GlyphClass: 2
Flags: W
LayerCount: 2
Fore
SplineSet
170.5 261.5 m 128,-1,1
 151 242 151 242 127 242 c 128,-1,2
 103 242 103 242 88.5 256.5 c 128,-1,3
 74 271 74 271 74 294 c 128,-1,4
 74 317 74 317 94 336.5 c 128,-1,5
 114 356 114 356 137.5 356 c 128,-1,6
 161 356 161 356 175.5 342 c 128,-1,7
 190 328 190 328 190 304.5 c 128,-1,0
 190 281 190 281 170.5 261.5 c 128,-1,1
EndSplineSet
EndChar

StartChar: cedilla
Encoding: 184 184 121
Width: 177
GlyphClass: 2
Flags: W
LayerCount: 2
Fore
SplineSet
69 -175 m 2,0,-1
 36 -175 l 2,1,2
 -12 -175 -12 -175 -18 -166 c 0,3,4
 -21 -162 -21 -162 -21 -147.5 c 128,-1,5
 -21 -133 -21 -133 -17 -103 c 1,6,-1
 66 -103 l 1,7,-1
 82 0 l 1,8,-1
 154 0 l 1,9,-1
 136 -117 l 2,10,11
 130 -155 130 -155 119 -165 c 128,-1,12
 108 -175 108 -175 69 -175 c 2,0,-1
EndSplineSet
EndChar

StartChar: onesuperior
Encoding: 185 185 122
Width: 184
GlyphClass: 2
Flags: W
LayerCount: 2
Fore
SplineSet
210 723 m 2,0,1
 240 723 240 723 246 718 c 128,-1,2
 252 713 252 713 252 707.5 c 128,-1,3
 252 702 252 702 249 685 c 2,4,-1
 205 401 l 1,5,-1
 129 401 l 1,6,-1
 169 647 l 1,7,-1
 126 636 l 1,8,-1
 137 708 l 1,9,-1
 183 723 l 1,10,-1
 210 723 l 2,0,1
EndSplineSet
EndChar

StartChar: ordmasculine
Encoding: 186 186 123
Width: 282
GlyphClass: 2
Flags: W
LayerCount: 2
Fore
SplineSet
262.5 400.5 m 128,-1,1
 233 370 233 370 189 370 c 128,-1,2
 145 370 145 370 126.5 387 c 128,-1,3
 108 404 108 404 108 466.5 c 128,-1,4
 108 529 108 529 120 587 c 128,-1,5
 132 645 132 645 163.5 683.5 c 128,-1,6
 195 722 195 722 243 722 c 128,-1,7
 291 722 291 722 309.5 707.5 c 128,-1,8
 328 693 328 693 328 650.5 c 128,-1,9
 328 608 328 608 323 567.5 c 128,-1,10
 318 527 318 527 305 479 c 128,-1,0
 292 431 292 431 262.5 400.5 c 128,-1,1
200 447 m 0,11,12
 221 447 221 447 237.5 510.5 c 128,-1,13
 254 574 254 574 254 627 c 0,14,15
 254 639 254 639 249.5 642 c 128,-1,16
 245 645 245 645 235 645 c 0,17,18
 216 645 216 645 202 606 c 0,19,20
 181 543 181 543 181 470 c 0,21,22
 181 456 181 456 185 451.5 c 128,-1,23
 189 447 189 447 200 447 c 0,11,12
EndSplineSet
EndChar

StartChar: guillemotright
Encoding: 187 187 124
Width: 323
GlyphClass: 2
Flags: W
LayerCount: 2
Fore
SplineSet
240 128 m 1,0,-1
 154 128 l 1,1,-1
 261 304 l 1,2,-1
 212 474 l 1,3,-1
 291 474 l 1,4,-1
 339 313 l 1,5,-1
 335 283 l 1,6,-1
 240 128 l 1,0,-1
95 128 m 1,7,-1
 9 128 l 1,8,-1
 116 304 l 1,9,-1
 67 474 l 1,10,-1
 146 474 l 1,11,-1
 194 313 l 1,12,-1
 190 283 l 1,13,-1
 95 128 l 1,7,-1
EndSplineSet
EndChar

StartChar: onequarter
Encoding: 188 188 125
Width: 277
GlyphClass: 2
Flags: W
LayerCount: 2
Fore
SplineSet
246 723 m 2,0,1
 272 723 272 723 279.5 719 c 128,-1,2
 287 715 287 715 287 700 c 128,-1,3
 287 685 287 685 245 428 c 1,4,-1
 169 428 l 1,5,-1
 205 646 l 1,6,-1
 161 636 l 1,7,-1
 172 710 l 1,8,-1
 215 723 l 1,9,-1
 246 723 l 2,0,1
297 324 m 1,10,-1
 76 324 l 1,11,-1
 87 397 l 1,12,-1
 307 397 l 1,13,-1
 297 324 l 1,10,-1
198 71 m 1,14,-1
 199 68 l 1,15,-1
 188 0 l 1,16,-1
 121 0 l 1,17,-1
 132 70 l 1,18,-1
 132 71 l 1,19,-1
 8 71 l 1,20,-1
 159 288 l 1,21,-1
 230 288 l 1,22,-1
 206 125 l 1,23,-1
 228 125 l 1,24,-1
 221 71 l 1,25,-1
 198 71 l 1,14,-1
150 126 m 1,26,-1
 150 131 l 1,27,-1
 167 210 l 1,28,-1
 108 126 l 1,29,-1
 150 126 l 1,26,-1
EndSplineSet
EndChar

StartChar: onehalf
Encoding: 189 189 126
Width: 302
GlyphClass: 2
Flags: W
LayerCount: 2
Fore
SplineSet
137 162 m 128,-1,1
 158 172 158 172 178 187.5 c 128,-1,2
 198 203 198 203 198 228 c 0,3,4
 198 234 198 234 183 234 c 2,5,-1
 150 234 l 2,6,7
 133 234 133 234 127 235 c 0,8,9
 112 238 112 238 112 260 c 0,10,11
 112 266 112 266 117 298 c 1,12,-1
 192 304 l 1,13,14
 239 303 239 303 256.5 288 c 128,-1,15
 274 273 274 273 274 241 c 128,-1,16
 274 209 274 209 257.5 184.5 c 128,-1,17
 241 160 241 160 206 132 c 128,-1,18
 171 104 171 104 158 89 c 1,19,-1
 152 60 l 1,20,-1
 247 60 l 1,21,-1
 238 0 l 1,22,-1
 69 0 l 1,23,-1
 85 98 l 1,24,25
 84 118 84 118 100 135 c 128,-1,0
 116 152 116 152 137 162 c 128,-1,1
263 723 m 2,26,27
 290 723 290 723 299 718.5 c 128,-1,28
 308 714 308 714 305 695 c 2,29,-1
 261 428 l 1,30,-1
 185 428 l 1,31,-1
 222 647 l 1,32,-1
 180 636 l 1,33,-1
 190 708 l 1,34,-1
 236 723 l 1,35,-1
 263 723 l 2,26,27
317 324 m 1,36,-1
 96 323 l 1,37,-1
 107 397 l 1,38,-1
 327 397 l 1,39,-1
 317 324 l 1,36,-1
EndSplineSet
EndChar

StartChar: threequarters
Encoding: 190 190 127
Width: 282
GlyphClass: 2
Flags: W
LayerCount: 2
Fore
SplineSet
297 324 m 1,0,-1
 77 324 l 1,1,-1
 87 397 l 1,2,-1
 308 397 l 1,3,-1
 297 324 l 1,0,-1
198 71 m 1,4,-1
 199 68 l 1,5,-1
 188 0 l 1,6,-1
 121 0 l 1,7,-1
 132 70 l 1,8,-1
 132 71 l 1,9,-1
 8 71 l 1,10,-1
 159 288 l 1,11,-1
 230 288 l 1,12,-1
 206 125 l 1,13,-1
 228 125 l 1,14,-1
 221 71 l 1,15,-1
 198 71 l 1,4,-1
150 126 m 1,16,-1
 150 131 l 1,17,-1
 167 210 l 1,18,-1
 108 126 l 1,19,-1
 150 126 l 1,16,-1
222 569 m 0,20,21
 222 574 222 574 217 574 c 2,22,-1
 157 574 l 1,23,-1
 210 652 l 1,24,-1
 152 652 l 1,25,-1
 163 722 l 1,26,-1
 332 722 l 1,27,-1
 264 626 l 1,28,29
 283 619 283 619 289.5 608 c 128,-1,30
 296 597 296 597 296 576 c 0,31,32
 296 494 296 494 273.5 456 c 128,-1,33
 251 418 251 418 190 418 c 1,34,-1
 114 428 l 1,35,-1
 123 493 l 1,36,-1
 196 488 l 2,37,38
 207 488 207 488 214.5 518.5 c 128,-1,39
 222 549 222 549 222 569 c 0,20,21
EndSplineSet
EndChar

StartChar: questiondown
Encoding: 191 191 128
Width: 339
GlyphClass: 2
Flags: W
LayerCount: 2
Fore
SplineSet
355 527 m 128,-1,1
 370 512 370 512 370 489.5 c 128,-1,2
 370 467 370 467 350 447 c 128,-1,3
 330 427 330 427 306 427 c 128,-1,4
 282 427 282 427 267.5 441.5 c 128,-1,5
 253 456 253 456 253 479.5 c 128,-1,6
 253 503 253 503 272.5 522.5 c 128,-1,7
 292 542 292 542 316 542 c 128,-1,0
 340 542 340 542 355 527 c 128,-1,1
26 -79 m 128,-1,9
 26 -27 26 -27 59 36 c 128,-1,10
 92 99 92 99 132 146 c 0,11,12
 239 274 239 274 244 313 c 2,13,-1
 249 354 l 1,14,-1
 335 354 l 1,15,-1
 327 310 l 1,16,17
 316 241 316 241 242 161 c 0,18,19
 213 129 213 129 184 96 c 0,20,21
 117 20 117 20 117 -51 c 0,22,23
 117 -74 117 -74 134 -85.5 c 128,-1,24
 151 -97 151 -97 197 -97 c 2,25,-1
 235 -97 l 2,26,27
 272 -97 272 -97 282.5 -101.5 c 128,-1,28
 293 -106 293 -106 293 -129.5 c 128,-1,29
 293 -153 293 -153 285 -169 c 1,30,-1
 184 -180 l 1,31,32
 92 -180 92 -180 59 -155.5 c 128,-1,8
 26 -131 26 -131 26 -79 c 128,-1,9
EndSplineSet
EndChar

StartChar: Aacute
Encoding: 193 193 130
Width: 435
GlyphClass: 2
Flags: W
LayerCount: 2
Fore
SplineSet
393 0 m 2,0,1
 340 0 340 0 330 7.5 c 128,-1,2
 320 15 320 15 318 58 c 2,3,-1
 307 235 l 1,4,-1
 185 235 l 1,5,-1
 96 0 l 1,6,-1
 81 0 l 2,7,8
 25 0 25 0 19 10 c 0,9,10
 16 16 16 16 16 27 c 128,-1,11
 16 38 16 38 65 165 c 2,12,-1
 280 720 l 1,13,-1
 364 720 l 1,14,-1
 413 0 l 1,15,-1
 393 0 l 2,0,1
303 317 m 1,16,-1
 295 332 l 1,17,-1
 295 547 l 1,18,-1
 221 332 l 1,19,-1
 209 317 l 1,20,-1
 303 317 l 1,16,-1
443 917 m 128,-1,22
 458 917 458 917 492 879 c 0,23,24
 495 875 495 875 497 873 c 1,25,-1
 348 744 l 1,26,-1
 303 801 l 1,27,-1
 394 887 l 1,28,21
 428 917 428 917 443 917 c 128,-1,22
EndSplineSet
EndChar

StartChar: Atilde
Encoding: 195 195 132
Width: 435
GlyphClass: 2
Flags: W
LayerCount: 2
Fore
SplineSet
393 0 m 2,0,1
 340 0 340 0 330 7.5 c 128,-1,2
 320 15 320 15 318 58 c 2,3,-1
 307 235 l 1,4,-1
 185 235 l 1,5,-1
 96 0 l 1,6,-1
 81 0 l 2,7,8
 25 0 25 0 19 10 c 0,9,10
 16 16 16 16 16 27 c 128,-1,11
 16 38 16 38 65 165 c 2,12,-1
 280 720 l 1,13,-1
 364 720 l 1,14,-1
 413 0 l 1,15,-1
 393 0 l 2,0,1
303 317 m 1,16,-1
 295 332 l 1,17,-1
 295 547 l 1,18,-1
 221 332 l 1,19,-1
 209 317 l 1,20,-1
 303 317 l 1,16,-1
301 837 m 1,21,-1
 411 834 l 2,22,23
 438 834 438 834 453 837 c 1,24,-1
 483 835 l 1,25,-1
 478 799 l 2,26,27
 474 769 474 769 464 764 c 128,-1,28
 454 759 454 759 403 759 c 1,29,-1
 293 762 l 2,30,31
 265 762 265 762 252 759 c 1,32,-1
 221 761 l 1,33,-1
 226 797 l 1,34,35
 233 827 233 827 241.5 832 c 128,-1,36
 250 837 250 837 301 837 c 1,21,-1
EndSplineSet
EndChar

StartChar: Adieresis
Encoding: 196 196 133
Width: 435
GlyphClass: 2
Flags: W
LayerCount: 2
Fore
SplineSet
393 0 m 2,0,1
 340 0 340 0 330 7.5 c 128,-1,2
 320 15 320 15 318 58 c 2,3,-1
 307 235 l 1,4,-1
 185 235 l 1,5,-1
 96 0 l 1,6,-1
 81 0 l 2,7,8
 25 0 25 0 19 10 c 0,9,10
 16 16 16 16 16 27 c 128,-1,11
 16 38 16 38 65 165 c 2,12,-1
 280 720 l 1,13,-1
 364 720 l 1,14,-1
 413 0 l 1,15,-1
 393 0 l 2,0,1
303 317 m 1,16,-1
 295 332 l 1,17,-1
 295 547 l 1,18,-1
 221 332 l 1,19,-1
 209 317 l 1,20,-1
 303 317 l 1,16,-1
313.5 809.5 m 128,-1,22
 294 790 294 790 270.5 790 c 128,-1,23
 247 790 247 790 232 804.5 c 128,-1,24
 217 819 217 819 217 842 c 128,-1,25
 217 865 217 865 237 884.5 c 128,-1,26
 257 904 257 904 281 904 c 128,-1,27
 305 904 305 904 319 890 c 128,-1,28
 333 876 333 876 333 852.5 c 128,-1,21
 333 829 333 829 313.5 809.5 c 128,-1,22
454.5 890 m 128,-1,30
 469 876 469 876 469 852.5 c 128,-1,31
 469 829 469 829 449 809.5 c 128,-1,32
 429 790 429 790 405.5 790 c 128,-1,33
 382 790 382 790 367 804.5 c 128,-1,34
 352 819 352 819 352 842 c 128,-1,35
 352 865 352 865 372.5 884.5 c 128,-1,36
 393 904 393 904 416.5 904 c 128,-1,29
 440 904 440 904 454.5 890 c 128,-1,30
EndSplineSet
EndChar

StartChar: Aring
Encoding: 197 197 134
Width: 435
GlyphClass: 2
Flags: W
LayerCount: 2
Fore
SplineSet
393 0 m 2,0,1
 340 0 340 0 330 7.5 c 128,-1,2
 320 15 320 15 318 58 c 2,3,-1
 307 235 l 1,4,-1
 185 235 l 1,5,-1
 96 0 l 1,6,-1
 81 0 l 2,7,8
 25 0 25 0 19 10 c 0,9,10
 16 16 16 16 16 27 c 128,-1,11
 16 38 16 38 65 165 c 2,12,-1
 280 720 l 1,13,-1
 364 720 l 1,14,-1
 413 0 l 1,15,-1
 393 0 l 2,0,1
303 317 m 1,16,-1
 295 332 l 1,17,-1
 295 547 l 1,18,-1
 221 332 l 1,19,-1
 209 317 l 1,20,-1
 303 317 l 1,16,-1
408.5 926.5 m 128,-1,22
 432 904 432 904 432 866.5 c 128,-1,23
 432 829 432 829 399.5 797.5 c 128,-1,24
 367 766 367 766 328.5 766 c 128,-1,25
 290 766 290 766 267 788.5 c 128,-1,26
 244 811 244 811 244 848.5 c 128,-1,27
 244 886 244 886 276 917.5 c 128,-1,28
 308 949 308 949 346.5 949 c 128,-1,21
 385 949 385 949 408.5 926.5 c 128,-1,22
363 864 m 0,29,30
 363 881 363 881 345 881 c 0,31,32
 334 881 334 881 323 872.5 c 128,-1,33
 312 864 312 864 312 854 c 128,-1,34
 312 844 312 844 318 838.5 c 128,-1,35
 324 833 324 833 334 833 c 128,-1,36
 344 833 344 833 353.5 842 c 128,-1,37
 363 851 363 851 363 864 c 0,29,30
EndSplineSet
EndChar

StartChar: AE
Encoding: 198 198 135
Width: 629
GlyphClass: 2
Flags: W
LayerCount: 2
Fore
SplineSet
107 0 m 2,0,1
 71 0 71 0 55.5 3 c 128,-1,2
 40 6 40 6 40 17 c 0,3,4
 40 19 40 19 42 25 c 2,5,-1
 296 720 l 1,6,-1
 691 720 l 1,7,-1
 678 640 l 1,8,-1
 477 640 l 1,9,-1
 477 629 l 1,10,-1
 447 435 l 1,11,-1
 445 430 l 1,12,-1
 631 430 l 1,13,-1
 618 347 l 1,14,-1
 431 347 l 1,15,-1
 431 335 l 1,16,-1
 390 84 l 1,17,-1
 600 84 l 1,18,-1
 586 0 l 1,19,-1
 285 0 l 1,20,-1
 320 230 l 1,21,-1
 322 235 l 1,22,-1
 211 235 l 1,23,-1
 122 0 l 1,24,-1
 107 0 l 2,0,1
337 317 m 1,25,-1
 337 328 l 1,26,-1
 386 640 l 1,27,-1
 349 640 l 1,28,-1
 244 322 l 1,29,-1
 241 317 l 1,30,-1
 337 317 l 1,25,-1
EndSplineSet
EndChar

StartChar: Ccedilla
Encoding: 199 199 136
Width: 377
GlyphClass: 2
Flags: W
LayerCount: 2
Fore
SplineSet
173 -175 m 2,0,-1
 140 -175 l 2,1,2
 92 -175 92 -175 86 -166 c 0,3,4
 83 -162 83 -162 83 -147.5 c 128,-1,5
 83 -133 83 -133 87 -103 c 1,6,-1
 170 -103 l 1,7,-1
 185 -2 l 1,8,9
 85 17 85 17 85 162 c 0,10,11
 85 317 85 317 108 423.5 c 128,-1,12
 131 530 131 530 158 590 c 128,-1,13
 185 650 185 650 233.5 691 c 128,-1,14
 282 732 282 732 345 732 c 1,15,-1
 452 709 l 1,16,17
 445 670 445 670 430 655.5 c 128,-1,18
 415 641 415 641 392 641 c 0,19,20
 389 641 389 641 332 648 c 1,21,22
 291 648 291 648 259 593.5 c 128,-1,23
 227 539 227 539 210 460 c 0,24,25
 176 300 176 300 176 181 c 0,26,27
 176 84 176 84 241 84 c 0,28,29
 265 84 265 84 303 89 c 128,-1,30
 341 94 341 94 356 94 c 1,31,-1
 342 11 l 1,32,33
 327 9 327 9 299 3 c 128,-1,34
 271 -3 271 -3 257 -5 c 1,35,-1
 240 -117 l 2,36,37
 234 -155 234 -155 223 -165 c 128,-1,38
 212 -175 212 -175 173 -175 c 2,0,-1
EndSplineSet
EndChar

StartChar: Egrave
Encoding: 200 200 137
Width: 385
GlyphClass: 2
Flags: W
LayerCount: 2
Fore
SplineSet
252 640 m 1,0,-1
 252 629 l 1,1,-1
 222 435 l 1,2,-1
 220 430 l 1,3,-1
 397 430 l 1,4,-1
 383 347 l 1,5,-1
 206 347 l 1,6,-1
 206 335 l 1,7,-1
 167 91 l 1,8,-1
 167 89 l 2,9,10
 167 85 167 85 166 84 c 1,11,-1
 365 84 l 1,12,-1
 352 0 l 1,13,-1
 60 0 l 1,14,-1
 174 720 l 1,15,-1
 456 720 l 1,16,-1
 443 640 l 1,17,-1
 252 640 l 1,0,-1
265 890 m 2,18,19
 295 917 295 917 310 917 c 128,-1,20
 325 917 325 917 356 880 c 1,21,-1
 416 797 l 1,22,-1
 358 745 l 1,23,-1
 248 875 l 1,24,-1
 265 890 l 2,18,19
EndSplineSet
EndChar

StartChar: Eacute
Encoding: 201 201 138
Width: 385
GlyphClass: 2
Flags: W
LayerCount: 2
Fore
SplineSet
252 640 m 1,0,-1
 252 629 l 1,1,-1
 222 435 l 1,2,-1
 220 430 l 1,3,-1
 397 430 l 1,4,-1
 383 347 l 1,5,-1
 206 347 l 1,6,-1
 206 335 l 1,7,-1
 167 91 l 1,8,-1
 167 89 l 2,9,10
 167 85 167 85 166 84 c 1,11,-1
 365 84 l 1,12,-1
 352 0 l 1,13,-1
 60 0 l 1,14,-1
 174 720 l 1,15,-1
 456 720 l 1,16,-1
 443 640 l 1,17,-1
 252 640 l 1,0,-1
385 887 m 1,18,19
 420 917 420 917 434.5 917 c 128,-1,20
 449 917 449 917 483 879 c 0,21,22
 486 875 486 875 488 873 c 1,23,-1
 339 744 l 1,24,-1
 294 801 l 1,25,-1
 385 887 l 1,18,19
EndSplineSet
EndChar

StartChar: Ecircumflex
Encoding: 202 202 139
Width: 385
GlyphClass: 2
Flags: W
LayerCount: 2
Fore
SplineSet
252 640 m 1,0,-1
 252 629 l 1,1,-1
 222 435 l 1,2,-1
 220 430 l 1,3,-1
 397 430 l 1,4,-1
 383 347 l 1,5,-1
 206 347 l 1,6,-1
 206 335 l 1,7,-1
 167 91 l 1,8,-1
 167 89 l 2,9,10
 167 85 167 85 166 84 c 1,11,-1
 365 84 l 1,12,-1
 352 0 l 1,13,-1
 60 0 l 1,14,-1
 174 720 l 1,15,-1
 456 720 l 1,16,-1
 443 640 l 1,17,-1
 252 640 l 1,0,-1
446 770 m 1,18,-1
 333 839 l 1,19,-1
 194 768 l 1,20,-1
 208 854 l 1,21,-1
 326 917 l 1,22,-1
 358 917 l 1,23,-1
 460 852 l 1,24,-1
 446 770 l 1,18,-1
EndSplineSet
EndChar

StartChar: Edieresis
Encoding: 203 203 140
Width: 385
GlyphClass: 2
Flags: W
LayerCount: 2
Fore
SplineSet
252 640 m 1,0,-1
 252 629 l 1,1,-1
 222 435 l 1,2,-1
 220 430 l 1,3,-1
 397 430 l 1,4,-1
 383 347 l 1,5,-1
 206 347 l 1,6,-1
 206 335 l 1,7,-1
 167 91 l 1,8,-1
 167 89 l 2,9,10
 167 85 167 85 166 84 c 1,11,-1
 365 84 l 1,12,-1
 352 0 l 1,13,-1
 60 0 l 1,14,-1
 174 720 l 1,15,-1
 456 720 l 1,16,-1
 443 640 l 1,17,-1
 252 640 l 1,0,-1
314.5 810.5 m 128,-1,19
 295 791 295 791 271.5 791 c 128,-1,20
 248 791 248 791 233 805.5 c 128,-1,21
 218 820 218 820 218 843 c 128,-1,22
 218 866 218 866 238 885.5 c 128,-1,23
 258 905 258 905 282 905 c 128,-1,24
 306 905 306 905 320 891 c 128,-1,25
 334 877 334 877 334 853.5 c 128,-1,18
 334 830 334 830 314.5 810.5 c 128,-1,19
455.5 891 m 128,-1,27
 470 877 470 877 470 853.5 c 128,-1,28
 470 830 470 830 450 810.5 c 128,-1,29
 430 791 430 791 406.5 791 c 128,-1,30
 383 791 383 791 368 805.5 c 128,-1,31
 353 820 353 820 353 843 c 128,-1,32
 353 866 353 866 373.5 885.5 c 128,-1,33
 394 905 394 905 417.5 905 c 128,-1,26
 441 905 441 905 455.5 891 c 128,-1,27
EndSplineSet
EndChar

StartChar: Iacute
Encoding: 205 205 142
Width: 213
GlyphClass: 2
Flags: W
LayerCount: 2
Fore
SplineSet
131 0 m 2,0,1
 100 0 100 0 89 2 c 0,2,3
 65 5 65 5 65 33 c 0,4,5
 65 39 65 39 172 720 c 1,6,-1
 189 720 l 2,7,8
 231 720 231 720 243 715.5 c 128,-1,9
 255 711 255 711 255 695.5 c 128,-1,10
 255 680 255 680 148 0 c 1,11,-1
 131 0 l 2,0,1
335 917 m 128,-1,13
 350 917 350 917 384 879 c 0,14,15
 387 875 387 875 389 873 c 1,16,-1
 240 744 l 1,17,-1
 195 801 l 1,18,-1
 286 887 l 1,19,12
 320 917 320 917 335 917 c 128,-1,13
EndSplineSet
EndChar

StartChar: Icircumflex
Encoding: 206 206 143
Width: 213
GlyphClass: 2
Flags: W
LayerCount: 2
Fore
SplineSet
131 0 m 2,0,1
 100 0 100 0 89 2 c 0,2,3
 65 5 65 5 65 33 c 0,4,5
 65 39 65 39 172 720 c 1,6,-1
 189 720 l 2,7,8
 231 720 231 720 243 715.5 c 128,-1,9
 255 711 255 711 255 695.5 c 128,-1,10
 255 680 255 680 148 0 c 1,11,-1
 131 0 l 2,0,1
361 770 m 1,12,-1
 248 839 l 1,13,-1
 109 768 l 1,14,-1
 123 854 l 1,15,-1
 241 917 l 1,16,-1
 273 917 l 1,17,-1
 375 852 l 1,18,-1
 361 770 l 1,12,-1
EndSplineSet
EndChar

StartChar: Idieresis
Encoding: 207 207 144
Width: 213
GlyphClass: 2
Flags: W
LayerCount: 2
Fore
SplineSet
131 0 m 2,0,1
 100 0 100 0 89 2 c 0,2,3
 65 5 65 5 65 33 c 0,4,5
 65 39 65 39 172 720 c 1,6,-1
 189 720 l 2,7,8
 231 720 231 720 243 715.5 c 128,-1,9
 255 711 255 711 255 695.5 c 128,-1,10
 255 680 255 680 148 0 c 1,11,-1
 131 0 l 2,0,1
207.5 810.5 m 128,-1,13
 188 791 188 791 164.5 791 c 128,-1,14
 141 791 141 791 126 805.5 c 128,-1,15
 111 820 111 820 111 843 c 128,-1,16
 111 866 111 866 131 885.5 c 128,-1,17
 151 905 151 905 175 905 c 128,-1,18
 199 905 199 905 213 891 c 128,-1,19
 227 877 227 877 227 853.5 c 128,-1,12
 227 830 227 830 207.5 810.5 c 128,-1,13
348.5 891 m 128,-1,21
 363 877 363 877 363 853.5 c 128,-1,22
 363 830 363 830 343 810.5 c 128,-1,23
 323 791 323 791 299.5 791 c 128,-1,24
 276 791 276 791 261 805.5 c 128,-1,25
 246 820 246 820 246 843 c 128,-1,26
 246 866 246 866 266.5 885.5 c 128,-1,27
 287 905 287 905 310.5 905 c 128,-1,20
 334 905 334 905 348.5 891 c 128,-1,21
EndSplineSet
EndChar

StartChar: Eth
Encoding: 208 208 145
Width: 463
GlyphClass: 2
Flags: W
LayerCount: 2
Fore
SplineSet
460 689.5 m 128,-1,1
 493 647 493 647 493 563.5 c 128,-1,2
 493 480 493 480 482 392 c 128,-1,3
 471 304 471 304 445.5 208.5 c 128,-1,4
 420 113 420 113 367 53 c 128,-1,5
 314 -7 314 -7 241 -7 c 0,6,7
 236 -7 236 -7 46 1 c 1,8,-1
 160 721 l 1,9,-1
 346 732 l 1,10,0
 427 732 427 732 460 689.5 c 128,-1,1
244 77 m 2,11,12
 285 77 285 77 317.5 133.5 c 128,-1,13
 350 190 350 190 367 272 c 0,14,15
 402 439 402 439 402 551 c 0,16,17
 402 599 402 599 388 623.5 c 128,-1,18
 374 648 374 648 339 648 c 2,19,-1
 232 648 l 1,20,-1
 234 624 l 1,21,-1
 207 453 l 1,22,-1
 201 432 l 1,23,-1
 321 432 l 1,24,-1
 310 354 l 1,25,-1
 188 354 l 1,26,-1
 188 330 l 1,27,-1
 149 86 l 1,28,-1
 146 77 l 1,29,-1
 244 77 l 2,11,12
EndSplineSet
EndChar

StartChar: Ntilde
Encoding: 209 209 146
Width: 455
GlyphClass: 2
Flags: W
LayerCount: 2
Fore
SplineSet
371 0 m 2,0,1
 321 0 321 0 310.5 7 c 128,-1,2
 300 14 300 14 292 56 c 2,3,-1
 216 453 l 1,4,-1
 153 57 l 2,5,6
 147 17 147 17 136 8.5 c 128,-1,7
 125 0 125 0 77 0 c 2,8,-1
 56 0 l 1,9,-1
 170 720 l 1,10,-1
 187 720 l 2,11,12
 236 720 236 720 247 713 c 128,-1,13
 258 706 258 706 265 664 c 2,14,-1
 339 256 l 1,15,-1
 413 720 l 1,16,-1
 429 720 l 2,17,18
 460 720 460 720 472 718 c 0,19,20
 494 716 494 716 494 694 c 0,21,22
 494 691 494 691 494 687 c 2,23,-1
 388 0 l 1,24,-1
 371 0 l 2,0,1
301 837 m 1,25,-1
 411 834 l 2,26,27
 438 834 438 834 453 837 c 1,28,-1
 483 835 l 1,29,-1
 478 799 l 2,30,31
 474 769 474 769 464 764 c 128,-1,32
 454 759 454 759 403 759 c 1,33,-1
 293 762 l 2,34,35
 265 762 265 762 252 759 c 1,36,-1
 221 761 l 1,37,-1
 226 797 l 1,38,39
 233 827 233 827 241.5 832 c 128,-1,40
 250 837 250 837 301 837 c 1,25,-1
EndSplineSet
EndChar

StartChar: Ograve
Encoding: 210 210 147
Width: 481
GlyphClass: 2
Flags: W
LayerCount: 2
Fore
SplineSet
354 46 m 128,-1,1
 302 -7 302 -7 229.5 -7 c 128,-1,2
 157 -7 157 -7 123 37.5 c 128,-1,3
 89 82 89 82 89 176.5 c 128,-1,4
 89 271 89 271 103.5 364.5 c 128,-1,5
 118 458 118 458 147 542.5 c 128,-1,6
 176 627 176 627 228 679.5 c 128,-1,7
 280 732 280 732 353 732 c 128,-1,8
 426 732 426 732 460 689.5 c 128,-1,9
 494 647 494 647 494 553 c 128,-1,10
 494 459 494 459 479.5 364.5 c 128,-1,11
 465 270 465 270 435.5 184.5 c 128,-1,0
 406 99 406 99 354 46 c 128,-1,1
244 77 m 0,12,13
 291 77 291 77 328.5 165 c 128,-1,14
 366 253 366 253 382.5 356 c 128,-1,15
 399 459 399 459 399 538 c 0,16,17
 399 648 399 648 339 648 c 0,18,19
 291 648 291 648 254 560.5 c 128,-1,20
 217 473 217 473 200.5 370.5 c 128,-1,21
 184 268 184 268 184 188 c 0,22,23
 184 77 184 77 244 77 c 0,12,13
283 890 m 2,24,25
 313 917 313 917 328 917 c 128,-1,26
 343 917 343 917 374 880 c 1,27,-1
 434 797 l 1,28,-1
 376 745 l 1,29,-1
 266 875 l 1,30,-1
 283 890 l 2,24,25
EndSplineSet
EndChar

StartChar: Oacute
Encoding: 211 211 148
Width: 481
GlyphClass: 2
Flags: W
LayerCount: 2
Fore
SplineSet
354 46 m 128,-1,1
 302 -7 302 -7 229.5 -7 c 128,-1,2
 157 -7 157 -7 123 37.5 c 128,-1,3
 89 82 89 82 89 176.5 c 128,-1,4
 89 271 89 271 103.5 364.5 c 128,-1,5
 118 458 118 458 147 542.5 c 128,-1,6
 176 627 176 627 228 679.5 c 128,-1,7
 280 732 280 732 353 732 c 128,-1,8
 426 732 426 732 460 689.5 c 128,-1,9
 494 647 494 647 494 553 c 128,-1,10
 494 459 494 459 479.5 364.5 c 128,-1,11
 465 270 465 270 435.5 184.5 c 128,-1,0
 406 99 406 99 354 46 c 128,-1,1
244 77 m 0,12,13
 291 77 291 77 328.5 165 c 128,-1,14
 366 253 366 253 382.5 356 c 128,-1,15
 399 459 399 459 399 538 c 0,16,17
 399 648 399 648 339 648 c 0,18,19
 291 648 291 648 254 560.5 c 128,-1,20
 217 473 217 473 200.5 370.5 c 128,-1,21
 184 268 184 268 184 188 c 0,22,23
 184 77 184 77 244 77 c 0,12,13
441 917 m 128,-1,25
 456 917 456 917 490 879 c 0,26,27
 493 875 493 875 495 873 c 1,28,-1
 346 744 l 1,29,-1
 301 801 l 1,30,-1
 392 887 l 1,31,24
 426 917 426 917 441 917 c 128,-1,25
EndSplineSet
EndChar

StartChar: Ocircumflex
Encoding: 212 212 149
Width: 481
GlyphClass: 2
Flags: W
LayerCount: 2
Fore
SplineSet
354 46 m 128,-1,1
 302 -7 302 -7 229.5 -7 c 128,-1,2
 157 -7 157 -7 123 37.5 c 128,-1,3
 89 82 89 82 89 176.5 c 128,-1,4
 89 271 89 271 103.5 364.5 c 128,-1,5
 118 458 118 458 147 542.5 c 128,-1,6
 176 627 176 627 228 679.5 c 128,-1,7
 280 732 280 732 353 732 c 128,-1,8
 426 732 426 732 460 689.5 c 128,-1,9
 494 647 494 647 494 553 c 128,-1,10
 494 459 494 459 479.5 364.5 c 128,-1,11
 465 270 465 270 435.5 184.5 c 128,-1,0
 406 99 406 99 354 46 c 128,-1,1
244 77 m 0,12,13
 291 77 291 77 328.5 165 c 128,-1,14
 366 253 366 253 382.5 356 c 128,-1,15
 399 459 399 459 399 538 c 0,16,17
 399 648 399 648 339 648 c 0,18,19
 291 648 291 648 254 560.5 c 128,-1,20
 217 473 217 473 200.5 370.5 c 128,-1,21
 184 268 184 268 184 188 c 0,22,23
 184 77 184 77 244 77 c 0,12,13
497 770 m 1,24,-1
 384 839 l 1,25,-1
 245 768 l 1,26,-1
 259 854 l 1,27,-1
 377 917 l 1,28,-1
 409 917 l 1,29,-1
 511 852 l 1,30,-1
 497 770 l 1,24,-1
EndSplineSet
EndChar

StartChar: Odieresis
Encoding: 214 214 151
Width: 481
GlyphClass: 2
Flags: W
LayerCount: 2
Fore
SplineSet
354 46 m 128,-1,1
 302 -7 302 -7 229.5 -7 c 128,-1,2
 157 -7 157 -7 123 37.5 c 128,-1,3
 89 82 89 82 89 176.5 c 128,-1,4
 89 271 89 271 103.5 364.5 c 128,-1,5
 118 458 118 458 147 542.5 c 128,-1,6
 176 627 176 627 228 679.5 c 128,-1,7
 280 732 280 732 353 732 c 128,-1,8
 426 732 426 732 460 689.5 c 128,-1,9
 494 647 494 647 494 553 c 128,-1,10
 494 459 494 459 479.5 364.5 c 128,-1,11
 465 270 465 270 435.5 184.5 c 128,-1,0
 406 99 406 99 354 46 c 128,-1,1
244 77 m 0,12,13
 291 77 291 77 328.5 165 c 128,-1,14
 366 253 366 253 382.5 356 c 128,-1,15
 399 459 399 459 399 538 c 0,16,17
 399 648 399 648 339 648 c 0,18,19
 291 648 291 648 254 560.5 c 128,-1,20
 217 473 217 473 200.5 370.5 c 128,-1,21
 184 268 184 268 184 188 c 0,22,23
 184 77 184 77 244 77 c 0,12,13
341.5 810.5 m 128,-1,25
 322 791 322 791 298.5 791 c 128,-1,26
 275 791 275 791 260 805.5 c 128,-1,27
 245 820 245 820 245 843 c 128,-1,28
 245 866 245 866 265 885.5 c 128,-1,29
 285 905 285 905 309 905 c 128,-1,30
 333 905 333 905 347 891 c 128,-1,31
 361 877 361 877 361 853.5 c 128,-1,24
 361 830 361 830 341.5 810.5 c 128,-1,25
482.5 891 m 128,-1,33
 497 877 497 877 497 853.5 c 128,-1,34
 497 830 497 830 477 810.5 c 128,-1,35
 457 791 457 791 433.5 791 c 128,-1,36
 410 791 410 791 395 805.5 c 128,-1,37
 380 820 380 820 380 843 c 128,-1,38
 380 866 380 866 400.5 885.5 c 128,-1,39
 421 905 421 905 444.5 905 c 128,-1,32
 468 905 468 905 482.5 891 c 128,-1,33
EndSplineSet
EndChar

StartChar: multiply
Encoding: 215 215 152
Width: 271
GlyphClass: 2
Flags: W
LayerCount: 2
Fore
SplineSet
214 189 m 1,0,-1
 173 250 l 1,1,-1
 167 267 l 1,2,-1
 102 202 l 1,3,-1
 56 265 l 1,4,-1
 122 331 l 1,5,-1
 106 341 l 1,6,-1
 68 399 l 1,7,-1
 122 454 l 1,8,-1
 160 396 l 1,9,-1
 168 377 l 1,10,-1
 234 443 l 1,11,-1
 280 380 l 1,12,-1
 213 313 l 1,13,-1
 229 303 l 1,14,-1
 269 244 l 1,15,-1
 214 189 l 1,0,-1
EndSplineSet
EndChar

StartChar: Oslash
Encoding: 216 216 153
Width: 476
GlyphClass: 2
Flags: W
LayerCount: 2
Fore
SplineSet
110 71 m 1,0,1
 95 108 95 108 95 190 c 128,-1,2
 95 272 95 272 109 365 c 128,-1,3
 123 458 123 458 152 542.5 c 128,-1,4
 181 627 181 627 233 679.5 c 128,-1,5
 285 732 285 732 353 732 c 0,6,7
 368 732 368 732 392 728 c 1,8,-1
 433 799 l 1,9,-1
 531 799 l 1,10,-1
 468 685 l 1,11,12
 499 642 499 642 499 550.5 c 128,-1,13
 499 459 499 459 484.5 365 c 128,-1,14
 470 271 470 271 441.5 185 c 128,-1,15
 413 99 413 99 360.5 46 c 128,-1,16
 308 -7 308 -7 241 -7 c 0,17,18
 201 -7 201 -7 172 6 c 1,19,-1
 142 -48 l 1,20,-1
 44 -48 l 1,21,-1
 110 71 l 1,0,1
250 77 m 0,22,23
 287 77 287 77 318 126.5 c 128,-1,24
 349 176 349 176 368 249 c 0,25,26
 407 405 407 405 407 526.5 c 128,-1,27
 407 648 407 648 345 648 c 0,28,29
 308 648 308 648 276.5 598.5 c 128,-1,30
 245 549 245 549 226 476 c 0,31,32
 186 322 186 322 186 199.5 c 128,-1,33
 186 77 186 77 250 77 c 0,22,23
EndSplineSet
EndChar

StartChar: Ugrave
Encoding: 217 217 154
Width: 468
GlyphClass: 2
Flags: W
LayerCount: 2
Fore
SplineSet
261 697 m 1,0,-1
 179 125 l 1,1,2
 179 106 179 106 193 91.5 c 128,-1,3
 207 77 207 77 238 77 c 0,4,5
 294 77 294 77 314.5 122.5 c 128,-1,6
 335 168 335 168 356 301 c 2,7,-1
 423 720 l 1,8,-1
 442 720 l 2,9,10
 482 720 482 720 495 716.5 c 128,-1,11
 508 713 508 713 508 696 c 0,12,13
 508 695 508 695 494.5 607 c 128,-1,14
 481 519 481 519 460.5 382 c 128,-1,15
 440 245 440 245 434.5 215.5 c 128,-1,16
 429 186 429 186 420 148 c 128,-1,17
 411 110 411 110 401 90.5 c 128,-1,18
 391 71 391 71 375.5 49 c 128,-1,19
 360 27 360 27 340 17 c 0,20,21
 292 -7 292 -7 230 -7 c 0,22,23
 87 -7 87 -7 87 96 c 0,24,25
 87 114 87 114 176 720 c 1,26,-1
 195 720 l 2,27,28
 252 720 252 720 258 710 c 0,29,30
 261 706 261 706 261 697 c 1,0,-1
286 890 m 2,31,32
 316 917 316 917 331 917 c 128,-1,33
 346 917 346 917 377 880 c 1,34,-1
 437 797 l 1,35,-1
 379 745 l 1,36,-1
 269 875 l 1,37,-1
 286 890 l 2,31,32
EndSplineSet
EndChar

StartChar: Uacute
Encoding: 218 218 155
Width: 468
GlyphClass: 2
Flags: W
LayerCount: 2
Fore
SplineSet
261 697 m 1,0,-1
 179 125 l 1,1,2
 179 106 179 106 193 91.5 c 128,-1,3
 207 77 207 77 238 77 c 0,4,5
 294 77 294 77 314.5 122.5 c 128,-1,6
 335 168 335 168 356 301 c 2,7,-1
 423 720 l 1,8,-1
 442 720 l 2,9,10
 482 720 482 720 495 716.5 c 128,-1,11
 508 713 508 713 508 696 c 0,12,13
 508 695 508 695 494.5 607 c 128,-1,14
 481 519 481 519 460.5 382 c 128,-1,15
 440 245 440 245 434.5 215.5 c 128,-1,16
 429 186 429 186 420 148 c 128,-1,17
 411 110 411 110 401 90.5 c 128,-1,18
 391 71 391 71 375.5 49 c 128,-1,19
 360 27 360 27 340 17 c 0,20,21
 292 -7 292 -7 230 -7 c 0,22,23
 87 -7 87 -7 87 96 c 0,24,25
 87 114 87 114 176 720 c 1,26,-1
 195 720 l 2,27,28
 252 720 252 720 258 710 c 0,29,30
 261 706 261 706 261 697 c 1,0,-1
395 887 m 1,31,32
 430 917 430 917 444.5 917 c 128,-1,33
 459 917 459 917 493 879 c 0,34,35
 496 875 496 875 498 873 c 1,36,-1
 349 744 l 1,37,-1
 304 801 l 1,38,-1
 395 887 l 1,31,32
EndSplineSet
EndChar

StartChar: Udieresis
Encoding: 220 220 157
Width: 468
GlyphClass: 2
Flags: W
LayerCount: 2
Fore
SplineSet
261 697 m 1,0,-1
 179 125 l 1,1,2
 179 106 179 106 193 91.5 c 128,-1,3
 207 77 207 77 238 77 c 0,4,5
 294 77 294 77 314.5 122.5 c 128,-1,6
 335 168 335 168 356 301 c 2,7,-1
 423 720 l 1,8,-1
 442 720 l 2,9,10
 482 720 482 720 495 716.5 c 128,-1,11
 508 713 508 713 508 696 c 0,12,13
 508 695 508 695 494.5 607 c 128,-1,14
 481 519 481 519 460.5 382 c 128,-1,15
 440 245 440 245 434.5 215.5 c 128,-1,16
 429 186 429 186 420 148 c 128,-1,17
 411 110 411 110 401 90.5 c 128,-1,18
 391 71 391 71 375.5 49 c 128,-1,19
 360 27 360 27 340 17 c 0,20,21
 292 -7 292 -7 230 -7 c 0,22,23
 87 -7 87 -7 87 96 c 0,24,25
 87 114 87 114 176 720 c 1,26,-1
 195 720 l 2,27,28
 252 720 252 720 258 710 c 0,29,30
 261 706 261 706 261 697 c 1,0,-1
340.5 810.5 m 128,-1,32
 321 791 321 791 297.5 791 c 128,-1,33
 274 791 274 791 259 805.5 c 128,-1,34
 244 820 244 820 244 843 c 128,-1,35
 244 866 244 866 264 885.5 c 128,-1,36
 284 905 284 905 308 905 c 128,-1,37
 332 905 332 905 346 891 c 128,-1,38
 360 877 360 877 360 853.5 c 128,-1,31
 360 830 360 830 340.5 810.5 c 128,-1,32
481.5 891 m 128,-1,40
 496 877 496 877 496 853.5 c 128,-1,41
 496 830 496 830 476 810.5 c 128,-1,42
 456 791 456 791 432.5 791 c 128,-1,43
 409 791 409 791 394 805.5 c 128,-1,44
 379 820 379 820 379 843 c 128,-1,45
 379 866 379 866 399.5 885.5 c 128,-1,46
 420 905 420 905 443.5 905 c 128,-1,39
 467 905 467 905 481.5 891 c 128,-1,40
EndSplineSet
EndChar

StartChar: Thorn
Encoding: 222 222 159
Width: 395
GlyphClass: 2
Flags: W
LayerCount: 2
Fore
SplineSet
399 579 m 128,-1,1
 427 549 427 549 427 486.5 c 128,-1,2
 427 424 427 424 416.5 343 c 128,-1,3
 406 262 406 262 385.5 178.5 c 128,-1,4
 365 95 365 95 328 38 c 128,-1,5
 291 -19 291 -19 246 -19 c 0,6,7
 227 -19 227 -19 135 31 c 1,8,-1
 100 -192 l 1,9,10
 49 -192 49 -192 35 -187.5 c 128,-1,11
 21 -183 21 -183 21 -160 c 0,12,13
 21 -153 21 -153 24 -132 c 2,14,-1
 152 679 l 2,15,16
 158 719 158 719 171 727 c 128,-1,17
 184 735 184 735 246 735 c 1,18,-1
 222 588 l 1,19,-1
 301 609 l 1,20,0
 371 609 371 609 399 579 c 128,-1,1
226 71 m 0,21,22
 272 71 272 71 306 219.5 c 128,-1,23
 340 368 340 368 340 463 c 0,24,25
 340 528 340 528 295 529 c 1,26,-1
 209 508 l 1,27,-1
 209 493 l 1,28,-1
 150 123 l 1,29,-1
 146 108 l 1,30,31
 223 71 223 71 226 71 c 0,21,22
EndSplineSet
EndChar

StartChar: germandbls
Encoding: 223 223 160
Width: 524
GlyphClass: 2
Flags: W
LayerCount: 2
Fore
SplineSet
345 79 m 2,0,1
 379 79 379 79 394 105.5 c 128,-1,2
 409 132 409 132 409 172 c 0,3,4
 409 201 409 201 336 260 c 0,5,6
 308 282 308 282 285 316 c 128,-1,7
 262 350 262 350 262 380.5 c 128,-1,8
 262 411 262 411 268 437 c 128,-1,9
 274 463 274 463 287 487 c 128,-1,10
 300 511 300 511 325 525.5 c 128,-1,11
 350 540 350 540 384 540 c 0,12,13
 389 540 389 540 392 544 c 0,14,15
 399 555 399 555 410 623 c 1,16,-1
 410 627 l 2,17,18
 410 643 410 643 360 643 c 2,19,-1
 315 643 l 2,20,21
 258 643 258 643 245.5 631.5 c 128,-1,22
 233 620 233 620 223 559 c 2,23,-1
 145 67 l 2,24,25
 138 22 138 22 122.5 11 c 128,-1,26
 107 0 107 0 46 0 c 1,27,-1
 136 563 l 1,28,29
 150 657 150 657 162 677 c 1,30,31
 181 705 181 705 195 708.5 c 128,-1,32
 209 712 209 712 229 716 c 0,33,34
 254 721 254 721 323 721 c 2,35,-1
 373 721 l 2,36,37
 448 721 448 721 481 681 c 0,38,39
 494 665 494 665 494 643 c 0,40,41
 494 509 494 509 443 476 c 0,42,43
 419 460 419 460 386 460 c 0,44,45
 348 460 348 460 348 393 c 0,46,47
 348 363 348 363 425 304 c 0,48,49
 454 281 454 281 478 245.5 c 128,-1,50
 502 210 502 210 502 174 c 0,51,52
 502 0 502 0 333 -7 c 1,53,-1
 203 1 l 1,54,-1
 214 79 l 1,55,-1
 345 79 l 2,0,1
EndSplineSet
EndChar

StartChar: ae
Encoding: 230 230 167
Width: 588
GlyphClass: 2
Flags: W
LayerCount: 2
Fore
SplineSet
469 422 m 0,0,1
 469 445 469 445 459.5 455 c 128,-1,2
 450 465 450 465 424.5 465 c 128,-1,3
 399 465 399 465 390 442.5 c 128,-1,4
 381 420 381 420 371 349 c 1,5,-1
 369 341 l 1,6,7
 469 343 469 343 469 422 c 0,0,1
499 11 m 1,8,9
 401 -7 401 -7 353 -7 c 128,-1,10
 305 -7 305 -7 288 4.5 c 128,-1,11
 271 16 271 16 261 47 c 1,12,-1
 148 -7 l 1,13,14
 101 -7 101 -7 82.5 9.5 c 128,-1,15
 64 26 64 26 64 68 c 1,16,-1
 85 229 l 1,17,18
 106 339 106 339 280 343 c 1,19,-1
 280 354 l 1,20,21
 283 371 283 371 286 386 c 2,22,-1
 290 410 l 2,23,24
 291 419 291 419 292 426.5 c 128,-1,25
 293 434 293 434 294 438 c 128,-1,26
 295 442 295 442 295.5 445 c 128,-1,27
 296 448 296 448 296 449 c 128,-1,28
 296 450 296 450 296 451 c 0,29,30
 296 465 296 465 264 465 c 1,31,32
 204 456 204 456 200 456 c 0,33,34
 157 456 157 456 157 499 c 1,35,-1
 159 526 l 1,36,-1
 271 544 l 1,37,38
 337 544 337 544 361 520 c 1,39,40
 393 544 393 544 435 544 c 0,41,42
 503 544 503 544 529 520 c 128,-1,43
 555 496 555 496 555 443 c 0,44,45
 555 424 555 424 553.5 408.5 c 128,-1,46
 552 393 552 393 541 363 c 128,-1,47
 530 333 530 333 510.5 313 c 128,-1,48
 491 293 491 293 449 277 c 128,-1,49
 407 261 407 261 349 261 c 1,50,-1
 332 114 l 1,51,52
 332 72 332 72 360 72 c 0,53,54
 406 72 406 72 509 87 c 1,55,-1
 499 11 l 1,8,9
169 233 m 0,56,57
 147 100 147 100 147 87 c 128,-1,58
 147 74 147 74 150 72 c 1,59,60
 170 80 170 80 241 113 c 1,61,-1
 265 259 l 1,62,-1
 266 261 l 1,63,64
 173 259 173 259 169 233 c 0,56,57
EndSplineSet
EndChar

StartChar: ccedilla
Encoding: 231 231 168
Width: 313
GlyphClass: 2
Flags: W
LayerCount: 2
Fore
SplineSet
295 460 m 1,0,-1
 245 465 l 1,1,2
 217 465 217 465 196 421.5 c 128,-1,3
 175 378 175 378 164 316 c 0,4,5
 145 201 145 201 145 148.5 c 128,-1,6
 145 96 145 96 153.5 84 c 128,-1,7
 162 72 162 72 184 72 c 1,8,-1
 284 83 l 1,9,-1
 274 11 l 1,10,-1
 199 -3 l 1,11,-1
 182 -117 l 2,12,13
 176 -155 176 -155 165 -165 c 128,-1,14
 154 -175 154 -175 115 -175 c 2,15,-1
 82 -175 l 2,16,17
 34 -175 34 -175 28 -166 c 0,18,19
 25 -162 25 -162 25 -147.5 c 128,-1,20
 25 -133 25 -133 29 -103 c 1,21,-1
 112 -103 l 1,22,-1
 127 -2 l 1,23,24
 90 6 90 6 74.5 31.5 c 128,-1,25
 59 57 59 57 59 111.5 c 128,-1,26
 59 166 59 166 66.5 232.5 c 128,-1,27
 74 299 74 299 92 374 c 128,-1,28
 110 449 110 449 148.5 497.5 c 128,-1,29
 187 546 187 546 240 546 c 0,30,31
 247 546 247 546 352 529 c 1,32,33
 340 460 340 460 295 460 c 1,0,-1
EndSplineSet
EndChar

StartChar: egrave
Encoding: 232 232 169
Width: 353
GlyphClass: 2
Flags: W
LayerCount: 2
Fore
SplineSet
183 -7 m 0,0,1
 113 -7 113 -7 86 18 c 128,-1,2
 59 43 59 43 59 104 c 0,3,4
 59 452 59 452 194 526 c 0,5,6
 226 544 226 544 275 544 c 128,-1,7
 324 544 324 544 347 519.5 c 128,-1,8
 370 495 370 495 370 442 c 0,9,10
 370 394 370 394 352 334 c 0,11,12
 340 297 340 297 310.5 273 c 128,-1,13
 281 249 281 249 237 249 c 2,14,-1
 149 249 l 1,15,-1
 149 238 l 1,16,17
 143 194 143 194 143 160 c 128,-1,18
 143 126 143 126 144 115.5 c 128,-1,19
 145 105 145 105 149 93 c 128,-1,20
 153 81 153 81 163 77.5 c 128,-1,21
 173 74 173 74 207 74 c 128,-1,22
 241 74 241 74 321 91 c 1,23,-1
 310 11 l 1,24,25
 220 -7 220 -7 183 -7 c 0,0,1
226 318 m 2,26,27
 248 318 248 318 262 341 c 0,28,29
 285 377 285 377 285 421 c 128,-1,30
 285 465 285 465 258 465 c 0,31,32
 215 465 215 465 195 433.5 c 128,-1,33
 175 402 175 402 165 334 c 1,34,-1
 159 318 l 1,35,-1
 226 318 l 2,26,27
204 713 m 2,36,37
 234 740 234 740 249 740 c 128,-1,38
 264 740 264 740 295 703 c 1,39,-1
 355 620 l 1,40,-1
 297 568 l 1,41,-1
 187 698 l 1,42,-1
 204 713 l 2,36,37
EndSplineSet
EndChar

StartChar: eacute
Encoding: 233 233 170
Width: 353
GlyphClass: 2
Flags: W
LayerCount: 2
Fore
SplineSet
183 -7 m 0,0,1
 113 -7 113 -7 86 18 c 128,-1,2
 59 43 59 43 59 104 c 0,3,4
 59 452 59 452 194 526 c 0,5,6
 226 544 226 544 275 544 c 128,-1,7
 324 544 324 544 347 519.5 c 128,-1,8
 370 495 370 495 370 442 c 0,9,10
 370 394 370 394 352 334 c 0,11,12
 340 297 340 297 310.5 273 c 128,-1,13
 281 249 281 249 237 249 c 2,14,-1
 149 249 l 1,15,-1
 149 238 l 1,16,17
 143 194 143 194 143 160 c 128,-1,18
 143 126 143 126 144 115.5 c 128,-1,19
 145 105 145 105 149 93 c 128,-1,20
 153 81 153 81 163 77.5 c 128,-1,21
 173 74 173 74 207 74 c 128,-1,22
 241 74 241 74 321 91 c 1,23,-1
 310 11 l 1,24,25
 220 -7 220 -7 183 -7 c 0,0,1
226 318 m 2,26,27
 248 318 248 318 262 341 c 0,28,29
 285 377 285 377 285 421 c 128,-1,30
 285 465 285 465 258 465 c 0,31,32
 215 465 215 465 195 433.5 c 128,-1,33
 175 402 175 402 165 334 c 1,34,-1
 159 318 l 1,35,-1
 226 318 l 2,26,27
313 710 m 1,36,37
 348 740 348 740 362.5 740 c 128,-1,38
 377 740 377 740 411 702 c 0,39,40
 414 698 414 698 416 696 c 1,41,-1
 267 567 l 1,42,-1
 222 624 l 1,43,-1
 313 710 l 1,36,37
EndSplineSet
EndChar

StartChar: ecircumflex
Encoding: 234 234 171
Width: 353
GlyphClass: 2
Flags: W
LayerCount: 2
Fore
SplineSet
183 -7 m 0,0,1
 113 -7 113 -7 86 18 c 128,-1,2
 59 43 59 43 59 104 c 0,3,4
 59 452 59 452 194 526 c 0,5,6
 226 544 226 544 275 544 c 128,-1,7
 324 544 324 544 347 519.5 c 128,-1,8
 370 495 370 495 370 442 c 0,9,10
 370 394 370 394 352 334 c 0,11,12
 340 297 340 297 310.5 273 c 128,-1,13
 281 249 281 249 237 249 c 2,14,-1
 149 249 l 1,15,-1
 149 238 l 1,16,17
 143 194 143 194 143 160 c 128,-1,18
 143 126 143 126 144 115.5 c 128,-1,19
 145 105 145 105 149 93 c 128,-1,20
 153 81 153 81 163 77.5 c 128,-1,21
 173 74 173 74 207 74 c 128,-1,22
 241 74 241 74 321 91 c 1,23,-1
 310 11 l 1,24,25
 220 -7 220 -7 183 -7 c 0,0,1
226 318 m 2,26,27
 248 318 248 318 262 341 c 0,28,29
 285 377 285 377 285 421 c 128,-1,30
 285 465 285 465 258 465 c 0,31,32
 215 465 215 465 195 433.5 c 128,-1,33
 175 402 175 402 165 334 c 1,34,-1
 159 318 l 1,35,-1
 226 318 l 2,26,27
395 587 m 1,36,-1
 282 656 l 1,37,-1
 143 585 l 1,38,-1
 157 671 l 1,39,-1
 275 734 l 1,40,-1
 307 734 l 1,41,-1
 409 669 l 1,42,-1
 395 587 l 1,36,-1
EndSplineSet
EndChar

StartChar: edieresis
Encoding: 235 235 172
Width: 353
GlyphClass: 2
Flags: W
LayerCount: 2
Fore
SplineSet
183 -7 m 0,0,1
 113 -7 113 -7 86 18 c 128,-1,2
 59 43 59 43 59 104 c 0,3,4
 59 452 59 452 194 526 c 0,5,6
 226 544 226 544 275 544 c 128,-1,7
 324 544 324 544 347 519.5 c 128,-1,8
 370 495 370 495 370 442 c 0,9,10
 370 394 370 394 352 334 c 0,11,12
 340 297 340 297 310.5 273 c 128,-1,13
 281 249 281 249 237 249 c 2,14,-1
 149 249 l 1,15,-1
 149 238 l 1,16,17
 143 194 143 194 143 160 c 128,-1,18
 143 126 143 126 144 115.5 c 128,-1,19
 145 105 145 105 149 93 c 128,-1,20
 153 81 153 81 163 77.5 c 128,-1,21
 173 74 173 74 207 74 c 128,-1,22
 241 74 241 74 321 91 c 1,23,-1
 310 11 l 1,24,25
 220 -7 220 -7 183 -7 c 0,0,1
226 318 m 2,26,27
 248 318 248 318 262 341 c 0,28,29
 285 377 285 377 285 421 c 128,-1,30
 285 465 285 465 258 465 c 0,31,32
 215 465 215 465 195 433.5 c 128,-1,33
 175 402 175 402 165 334 c 1,34,-1
 159 318 l 1,35,-1
 226 318 l 2,26,27
251.5 608.5 m 128,-1,37
 232 589 232 589 208.5 589 c 128,-1,38
 185 589 185 589 170 603.5 c 128,-1,39
 155 618 155 618 155 641 c 128,-1,40
 155 664 155 664 175 683.5 c 128,-1,41
 195 703 195 703 219 703 c 128,-1,42
 243 703 243 703 257 689 c 128,-1,43
 271 675 271 675 271 651.5 c 128,-1,36
 271 628 271 628 251.5 608.5 c 128,-1,37
392.5 689 m 128,-1,45
 407 675 407 675 407 651.5 c 128,-1,46
 407 628 407 628 387 608.5 c 128,-1,47
 367 589 367 589 343.5 589 c 128,-1,48
 320 589 320 589 305 603.5 c 128,-1,49
 290 618 290 618 290 641 c 128,-1,50
 290 664 290 664 310.5 683.5 c 128,-1,51
 331 703 331 703 354.5 703 c 128,-1,44
 378 703 378 703 392.5 689 c 128,-1,45
EndSplineSet
EndChar

StartChar: igrave
Encoding: 236 236 173
Width: 211
GlyphClass: 2
Flags: W
LayerCount: 2
Fore
SplineSet
220 514 m 1,0,-1
 140 -4 l 1,1,2
 71 -4 71 -4 64 6 c 0,3,4
 60 10 60 10 60 19 c 1,5,-1
 141 537 l 1,6,7
 208 537 208 537 216 528 c 0,8,9
 220 523 220 523 220 514 c 1,0,-1
119 729 m 2,10,11
 149 756 149 756 164 756 c 128,-1,12
 179 756 179 756 210 719 c 1,13,-1
 270 636 l 1,14,-1
 212 584 l 1,15,-1
 102 714 l 1,16,-1
 119 729 l 2,10,11
EndSplineSet
EndChar

StartChar: iacute
Encoding: 237 237 174
Width: 220
GlyphClass: 2
Flags: W
LayerCount: 2
Fore
SplineSet
224 514 m 1,0,-1
 144 -4 l 1,1,2
 75 -4 75 -4 68 6 c 0,3,4
 64 10 64 10 64 17 c 128,-1,5
 64 24 64 24 144 537 c 1,6,7
 212 537 212 537 220 528 c 0,8,9
 224 523 224 523 224 514 c 1,0,-1
282 754 m 128,-1,11
 297 754 297 754 331 716 c 0,12,13
 334 712 334 712 336 710 c 1,14,-1
 187 581 l 1,15,-1
 142 638 l 1,16,-1
 233 724 l 1,17,10
 267 754 267 754 282 754 c 128,-1,11
EndSplineSet
EndChar

StartChar: icircumflex
Encoding: 238 238 175
Width: 246
GlyphClass: 2
Flags: W
LayerCount: 2
Fore
SplineSet
238 513 m 0,0,1
 238 510 238 510 238 506 c 2,2,-1
 158 -4 l 1,3,4
 106 -4 106 -4 92.5 0 c 128,-1,5
 79 4 79 4 79 20 c 0,6,7
 79 23 79 23 80 27 c 2,8,-1
 159 537 l 1,9,10
 211 537 211 537 224.5 533 c 128,-1,11
 238 529 238 529 238 513 c 0,0,1
344 597 m 1,12,-1
 231 666 l 1,13,-1
 92 595 l 1,14,-1
 106 681 l 1,15,-1
 224 744 l 1,16,-1
 256 744 l 1,17,-1
 358 679 l 1,18,-1
 344 597 l 1,12,-1
EndSplineSet
EndChar

StartChar: idieresis
Encoding: 239 239 176
Width: 260
GlyphClass: 2
Flags: W
LayerCount: 2
Fore
SplineSet
256 513 m 0,0,1
 256 510 256 510 255 506 c 2,2,-1
 176 -4 l 1,3,4
 123 -4 123 -4 109.5 0 c 128,-1,5
 96 4 96 4 96 20 c 0,6,7
 96 23 96 23 97 27 c 2,8,-1
 177 537 l 1,9,10
 228 537 228 537 242 533 c 128,-1,11
 256 529 256 529 256 513 c 0,0,1
213.5 623.5 m 128,-1,13
 194 604 194 604 170.5 604 c 128,-1,14
 147 604 147 604 132 618.5 c 128,-1,15
 117 633 117 633 117 656 c 128,-1,16
 117 679 117 679 137 698.5 c 128,-1,17
 157 718 157 718 181 718 c 128,-1,18
 205 718 205 718 219 704 c 128,-1,19
 233 690 233 690 233 666.5 c 128,-1,12
 233 643 233 643 213.5 623.5 c 128,-1,13
354.5 704 m 128,-1,21
 369 690 369 690 369 666.5 c 128,-1,22
 369 643 369 643 349 623.5 c 128,-1,23
 329 604 329 604 305.5 604 c 128,-1,24
 282 604 282 604 267 618.5 c 128,-1,25
 252 633 252 633 252 656 c 128,-1,26
 252 679 252 679 272.5 698.5 c 128,-1,27
 293 718 293 718 316.5 718 c 128,-1,20
 340 718 340 718 354.5 704 c 128,-1,21
EndSplineSet
EndChar

StartChar: eth
Encoding: 240 240 177
Width: 376
GlyphClass: 2
Flags: W
LayerCount: 2
Fore
SplineSet
220 418 m 0,0,1
 186 418 186 418 164 352 c 0,2,3
 129 250 129 250 129 122 c 0,4,5
 129 97 129 97 140 88 c 128,-1,6
 151 79 151 79 178.5 79 c 128,-1,7
 206 79 206 79 225.5 104 c 128,-1,8
 245 129 245 129 258 180 c 0,9,10
 278 256 278 256 297 389 c 1,11,-1
 236 415 l 2,12,13
 227 418 227 418 220 418 c 0,0,1
305 531 m 0,14,15
 305 586 305 586 288.5 612.5 c 128,-1,16
 272 639 272 639 235 639 c 1,17,-1
 248 722 l 1,18,19
 331 722 331 722 365.5 675.5 c 128,-1,20
 400 629 400 629 400 540 c 0,21,22
 400 420 400 420 382 316 c 128,-1,23
 364 212 364 212 341 150.5 c 128,-1,24
 318 89 318 89 274.5 44.5 c 128,-1,25
 231 0 231 0 173 0 c 0,26,27
 97 0 97 0 68 22 c 128,-1,28
 39 44 39 44 39 102 c 128,-1,29
 39 160 39 160 46.5 222.5 c 128,-1,30
 54 285 54 285 70.5 352 c 128,-1,31
 87 419 87 419 120.5 462 c 128,-1,32
 154 505 154 505 199 505 c 0,33,34
 222 505 222 505 249 493 c 2,35,-1
 304 468 l 1,36,-1
 305 525 l 2,37,38
 305 528 305 528 305 531 c 0,14,15
EndSplineSet
EndChar

StartChar: ograve
Encoding: 242 242 179
Width: 374
GlyphClass: 2
Flags: W
LayerCount: 2
Fore
SplineSet
262.5 15.5 m 128,-1,1
 227 -7 227 -7 170 -7 c 128,-1,2
 113 -7 113 -7 86.5 19 c 128,-1,3
 60 45 60 45 60 115.5 c 128,-1,4
 60 186 60 186 69 256.5 c 128,-1,5
 78 327 78 327 99 395 c 128,-1,6
 120 463 120 463 162.5 503.5 c 128,-1,7
 205 544 205 544 268.5 544 c 128,-1,8
 332 544 332 544 359 518.5 c 128,-1,9
 386 493 386 493 386 442 c 128,-1,10
 386 391 386 391 384 353.5 c 128,-1,11
 382 316 382 316 376 261 c 128,-1,12
 370 206 370 206 355.5 162.5 c 128,-1,13
 341 119 341 119 319.5 78.5 c 128,-1,0
 298 38 298 38 262.5 15.5 c 128,-1,1
190 72 m 0,14,15
 223 72 223 72 247 115.5 c 128,-1,16
 271 159 271 159 281 222 c 0,17,18
 300 342 300 342 300 413 c 0,19,20
 300 441 300 441 290 453 c 128,-1,21
 280 465 280 465 256 465 c 0,22,23
 220 465 220 465 193 396 c 0,24,25
 146 277 146 277 146 125 c 0,26,27
 146 97 146 97 156 84.5 c 128,-1,28
 166 72 166 72 190 72 c 0,14,15
221 717 m 2,29,30
 251 744 251 744 266 744 c 128,-1,31
 281 744 281 744 312 707 c 1,32,-1
 372 624 l 1,33,-1
 314 572 l 1,34,-1
 204 702 l 1,35,-1
 221 717 l 2,29,30
EndSplineSet
EndChar

StartChar: oacute
Encoding: 243 243 180
Width: 374
GlyphClass: 2
Flags: W
LayerCount: 2
Fore
SplineSet
262.5 15.5 m 128,-1,1
 227 -7 227 -7 170 -7 c 128,-1,2
 113 -7 113 -7 86.5 19 c 128,-1,3
 60 45 60 45 60 115.5 c 128,-1,4
 60 186 60 186 69 256.5 c 128,-1,5
 78 327 78 327 99 395 c 128,-1,6
 120 463 120 463 162.5 503.5 c 128,-1,7
 205 544 205 544 268.5 544 c 128,-1,8
 332 544 332 544 359 518.5 c 128,-1,9
 386 493 386 493 386 442 c 128,-1,10
 386 391 386 391 384 353.5 c 128,-1,11
 382 316 382 316 376 261 c 128,-1,12
 370 206 370 206 355.5 162.5 c 128,-1,13
 341 119 341 119 319.5 78.5 c 128,-1,0
 298 38 298 38 262.5 15.5 c 128,-1,1
190 72 m 0,14,15
 223 72 223 72 247 115.5 c 128,-1,16
 271 159 271 159 281 222 c 0,17,18
 300 342 300 342 300 413 c 0,19,20
 300 441 300 441 290 453 c 128,-1,21
 280 465 280 465 256 465 c 0,22,23
 220 465 220 465 193 396 c 0,24,25
 146 277 146 277 146 125 c 0,26,27
 146 97 146 97 156 84.5 c 128,-1,28
 166 72 166 72 190 72 c 0,14,15
363 744 m 128,-1,30
 378 744 378 744 412 706 c 0,31,32
 415 702 415 702 417 700 c 1,33,-1
 268 571 l 1,34,-1
 223 628 l 1,35,-1
 314 714 l 1,36,29
 348 744 348 744 363 744 c 128,-1,30
EndSplineSet
EndChar

StartChar: otilde
Encoding: 245 245 182
Width: 374
GlyphClass: 2
Flags: W
LayerCount: 2
Fore
SplineSet
240 689 m 1,0,-1
 366 679 l 2,1,2
 378 679 378 679 390 682 c 1,3,-1
 420 680 l 1,4,-1
 416 644 l 2,5,6
 412 614 412 614 402 608.5 c 128,-1,7
 392 603 392 603 341 603 c 1,8,-1
 214 613 l 2,9,10
 206 613 206 613 190 611 c 1,11,-1
 160 613 l 1,12,-1
 165 649 l 2,13,14
 169 679 169 679 178.5 684 c 128,-1,15
 188 689 188 689 240 689 c 1,0,-1
262.5 29.5 m 128,-1,17
 227 7 227 7 170 7 c 128,-1,18
 113 7 113 7 86.5 33 c 128,-1,19
 60 59 60 59 60 129.5 c 128,-1,20
 60 200 60 200 69 270.5 c 128,-1,21
 78 341 78 341 99 409 c 128,-1,22
 120 477 120 477 162.5 517.5 c 128,-1,23
 205 558 205 558 268.5 558 c 128,-1,24
 332 558 332 558 359 532.5 c 128,-1,25
 386 507 386 507 386 456 c 128,-1,26
 386 405 386 405 384 367.5 c 128,-1,27
 382 330 382 330 376 275 c 128,-1,28
 370 220 370 220 355.5 176.5 c 128,-1,29
 341 133 341 133 319.5 92.5 c 128,-1,16
 298 52 298 52 262.5 29.5 c 128,-1,17
190 86 m 0,30,31
 223 86 223 86 247 129.5 c 128,-1,32
 271 173 271 173 281 236 c 0,33,34
 300 356 300 356 300 427 c 0,35,36
 300 455 300 455 290 467 c 128,-1,37
 280 479 280 479 256 479 c 0,38,39
 220 479 220 479 193 410 c 0,40,41
 146 291 146 291 146 139 c 0,42,43
 146 111 146 111 156 98.5 c 128,-1,44
 166 86 166 86 190 86 c 0,30,31
EndSplineSet
EndChar

StartChar: odieresis
Encoding: 246 246 183
Width: 374
GlyphClass: 2
Flags: W
LayerCount: 2
Fore
SplineSet
262.5 15.5 m 128,-1,1
 227 -7 227 -7 170 -7 c 128,-1,2
 113 -7 113 -7 86.5 19 c 128,-1,3
 60 45 60 45 60 115.5 c 128,-1,4
 60 186 60 186 69 256.5 c 128,-1,5
 78 327 78 327 99 395 c 128,-1,6
 120 463 120 463 162.5 503.5 c 128,-1,7
 205 544 205 544 268.5 544 c 128,-1,8
 332 544 332 544 359 518.5 c 128,-1,9
 386 493 386 493 386 442 c 128,-1,10
 386 391 386 391 384 353.5 c 128,-1,11
 382 316 382 316 376 261 c 128,-1,12
 370 206 370 206 355.5 162.5 c 128,-1,13
 341 119 341 119 319.5 78.5 c 128,-1,0
 298 38 298 38 262.5 15.5 c 128,-1,1
190 72 m 0,14,15
 223 72 223 72 247 115.5 c 128,-1,16
 271 159 271 159 281 222 c 0,17,18
 300 342 300 342 300 413 c 0,19,20
 300 441 300 441 290 453 c 128,-1,21
 280 465 280 465 256 465 c 0,22,23
 220 465 220 465 193 396 c 0,24,25
 146 277 146 277 146 125 c 0,26,27
 146 97 146 97 156 84.5 c 128,-1,28
 166 72 166 72 190 72 c 0,14,15
256.5 606.5 m 128,-1,30
 237 587 237 587 213.5 587 c 128,-1,31
 190 587 190 587 175 601.5 c 128,-1,32
 160 616 160 616 160 639 c 128,-1,33
 160 662 160 662 180 681.5 c 128,-1,34
 200 701 200 701 224 701 c 128,-1,35
 248 701 248 701 262 687 c 128,-1,36
 276 673 276 673 276 649.5 c 128,-1,29
 276 626 276 626 256.5 606.5 c 128,-1,30
397.5 687 m 128,-1,38
 412 673 412 673 412 649.5 c 128,-1,39
 412 626 412 626 392 606.5 c 128,-1,40
 372 587 372 587 348.5 587 c 128,-1,41
 325 587 325 587 310 601.5 c 128,-1,42
 295 616 295 616 295 639 c 128,-1,43
 295 662 295 662 315.5 681.5 c 128,-1,44
 336 701 336 701 359.5 701 c 128,-1,37
 383 701 383 701 397.5 687 c 128,-1,38
EndSplineSet
EndChar

StartChar: divide
Encoding: 247 247 184
Width: 275
GlyphClass: 2
Flags: W
LayerCount: 2
Fore
SplineSet
174.5 19.5 m 128,-1,1
 155 0 155 0 131.5 0 c 128,-1,2
 108 0 108 0 93 15 c 128,-1,3
 78 30 78 30 78 52.5 c 128,-1,4
 78 75 78 75 97.5 95 c 128,-1,5
 117 115 117 115 141.5 115 c 128,-1,6
 166 115 166 115 180 100.5 c 128,-1,7
 194 86 194 86 194 62.5 c 128,-1,0
 194 39 194 39 174.5 19.5 c 128,-1,1
247.5 442 m 128,-1,9
 228 422 228 422 204.5 422 c 128,-1,10
 181 422 181 422 166 437 c 128,-1,11
 151 452 151 452 151 475 c 128,-1,12
 151 498 151 498 171.5 517.5 c 128,-1,13
 192 537 192 537 215.5 537 c 128,-1,14
 239 537 239 537 253 523 c 128,-1,15
 267 509 267 509 267 485.5 c 128,-1,8
 267 462 267 462 247.5 442 c 128,-1,9
288 254 m 1,16,-1
 57 254 l 1,17,-1
 68 331 l 1,18,-1
 299 331 l 1,19,-1
 288 254 l 1,16,-1
EndSplineSet
EndChar

StartChar: oslash
Encoding: 248 248 185
Width: 400
GlyphClass: 2
Flags: W
LayerCount: 2
Fore
SplineSet
86 33 m 1,0,1
 71 60 71 60 71 114.5 c 128,-1,2
 71 169 71 169 76 225 c 128,-1,3
 81 281 81 281 95 341.5 c 128,-1,4
 109 402 109 402 130.5 445 c 128,-1,5
 152 488 152 488 189.5 516 c 128,-1,6
 227 544 227 544 275 544 c 0,7,8
 296 544 296 544 305 543 c 1,9,-1
 355 633 l 1,10,-1
 452 633 l 1,11,-1
 380 504 l 1,12,13
 396 479 396 479 396 406 c 128,-1,14
 396 333 396 333 385.5 263.5 c 128,-1,15
 375 194 375 194 353 131 c 128,-1,16
 331 68 331 68 289.5 30.5 c 128,-1,17
 248 -7 248 -7 192 -7 c 0,18,19
 171 -7 171 -7 161 -5 c 1,20,-1
 114 -89 l 1,21,-1
 18 -89 l 1,22,-1
 86 33 l 1,0,1
201 72 m 0,23,24
 237 72 237 72 264 140 c 0,25,26
 310 258 310 258 310 413 c 0,27,28
 310 441 310 441 300.5 453 c 128,-1,29
 291 465 291 465 267 465 c 0,30,31
 231 465 231 465 204 396 c 0,32,33
 157 277 157 277 157 125 c 0,34,35
 157 96 157 96 166.5 84 c 128,-1,36
 176 72 176 72 201 72 c 0,23,24
EndSplineSet
EndChar

StartChar: ugrave
Encoding: 249 249 186
Width: 385
GlyphClass: 2
Flags: W
LayerCount: 2
Fore
SplineSet
387 528 m 0,0,1
 391 523 391 523 391 517 c 128,-1,2
 391 511 391 511 312 0 c 1,3,4
 260 0 260 0 246 4.5 c 128,-1,5
 232 9 232 9 232 31 c 1,6,-1
 233 41 l 1,7,-1
 159 -7 l 1,8,9
 43 -7 43 -7 43 80 c 0,10,11
 43 88 43 88 107 537 c 1,12,13
 155 537 155 537 170.5 533.5 c 128,-1,14
 186 530 186 530 186 513 c 1,15,-1
 131 109 l 1,16,17
 131 72 131 72 157 72 c 1,18,-1
 249 128 l 1,19,-1
 249 145 l 1,20,-1
 312 537 l 1,21,22
 379 537 379 537 387 528 c 0,0,1
199 709 m 2,23,24
 229 736 229 736 244 736 c 128,-1,25
 259 736 259 736 290 699 c 1,26,-1
 350 616 l 1,27,-1
 292 564 l 1,28,-1
 182 694 l 1,29,-1
 199 709 l 2,23,24
EndSplineSet
EndChar

StartChar: uacute
Encoding: 250 250 187
Width: 385
GlyphClass: 2
Flags: W
LayerCount: 2
Fore
SplineSet
387 528 m 0,0,1
 391 523 391 523 391 517 c 128,-1,2
 391 511 391 511 312 0 c 1,3,4
 260 0 260 0 246 4.5 c 128,-1,5
 232 9 232 9 232 31 c 1,6,-1
 233 41 l 1,7,-1
 159 -7 l 1,8,9
 43 -7 43 -7 43 80 c 0,10,11
 43 88 43 88 107 537 c 1,12,13
 155 537 155 537 170.5 533.5 c 128,-1,14
 186 530 186 530 186 513 c 1,15,-1
 131 109 l 1,16,17
 131 72 131 72 157 72 c 1,18,-1
 249 128 l 1,19,-1
 249 145 l 1,20,-1
 312 537 l 1,21,22
 379 537 379 537 387 528 c 0,0,1
347 744 m 128,-1,24
 362 744 362 744 396 706 c 0,25,26
 399 702 399 702 401 700 c 1,27,-1
 252 571 l 1,28,-1
 207 628 l 1,29,-1
 298 714 l 1,30,23
 332 744 332 744 347 744 c 128,-1,24
EndSplineSet
EndChar

StartChar: ucircumflex
Encoding: 251 251 188
Width: 385
GlyphClass: 2
Flags: W
LayerCount: 2
Fore
SplineSet
387 528 m 0,0,1
 391 523 391 523 391 517 c 128,-1,2
 391 511 391 511 312 0 c 1,3,4
 260 0 260 0 246 4.5 c 128,-1,5
 232 9 232 9 232 31 c 1,6,-1
 233 41 l 1,7,-1
 159 -7 l 1,8,9
 43 -7 43 -7 43 80 c 0,10,11
 43 88 43 88 107 537 c 1,12,13
 155 537 155 537 170.5 533.5 c 128,-1,14
 186 530 186 530 186 513 c 1,15,-1
 131 109 l 1,16,17
 131 72 131 72 157 72 c 1,18,-1
 249 128 l 1,19,-1
 249 145 l 1,20,-1
 312 537 l 1,21,22
 379 537 379 537 387 528 c 0,0,1
387 585 m 1,23,-1
 274 654 l 1,24,-1
 135 583 l 1,25,-1
 149 669 l 1,26,-1
 267 732 l 1,27,-1
 299 732 l 1,28,-1
 401 667 l 1,29,-1
 387 585 l 1,23,-1
EndSplineSet
EndChar

StartChar: udieresis
Encoding: 252 252 189
Width: 385
GlyphClass: 2
Flags: W
LayerCount: 2
Fore
SplineSet
387 528 m 0,0,1
 391 523 391 523 391 517 c 128,-1,2
 391 511 391 511 312 0 c 1,3,4
 260 0 260 0 246 4.5 c 128,-1,5
 232 9 232 9 232 31 c 1,6,-1
 233 41 l 1,7,-1
 159 -7 l 1,8,9
 43 -7 43 -7 43 80 c 0,10,11
 43 88 43 88 107 537 c 1,12,13
 155 537 155 537 170.5 533.5 c 128,-1,14
 186 530 186 530 186 513 c 1,15,-1
 131 109 l 1,16,17
 131 72 131 72 157 72 c 1,18,-1
 249 128 l 1,19,-1
 249 145 l 1,20,-1
 312 537 l 1,21,22
 379 537 379 537 387 528 c 0,0,1
244.5 604.5 m 128,-1,24
 225 585 225 585 201.5 585 c 128,-1,25
 178 585 178 585 163 599.5 c 128,-1,26
 148 614 148 614 148 637 c 128,-1,27
 148 660 148 660 168 679.5 c 128,-1,28
 188 699 188 699 212 699 c 128,-1,29
 236 699 236 699 250 685 c 128,-1,30
 264 671 264 671 264 647.5 c 128,-1,23
 264 624 264 624 244.5 604.5 c 128,-1,24
385.5 685 m 128,-1,32
 400 671 400 671 400 647.5 c 128,-1,33
 400 624 400 624 380 604.5 c 128,-1,34
 360 585 360 585 336.5 585 c 128,-1,35
 313 585 313 585 298 599.5 c 128,-1,36
 283 614 283 614 283 637 c 128,-1,37
 283 660 283 660 303.5 679.5 c 128,-1,38
 324 699 324 699 347.5 699 c 128,-1,31
 371 699 371 699 385.5 685 c 128,-1,32
EndSplineSet
EndChar

StartChar: thorn
Encoding: 254 254 191
Width: 386
GlyphClass: 2
Flags: W
LayerCount: 2
Fore
SplineSet
215 70 m 0,0,1
 244 70 244 70 282.5 201 c 128,-1,2
 321 332 321 332 321 398 c 128,-1,3
 321 464 321 464 276 465 c 2,4,-1
 203 467 l 1,5,-1
 146 107 l 1,6,-1
 210 72 l 2,7,8
 214 70 214 70 215 70 c 0,0,1
238 697 m 1,9,-1
 215 544 l 1,10,-1
 278 544 l 2,11,12
 351 544 351 544 379 516.5 c 128,-1,13
 407 489 407 489 407 420.5 c 128,-1,14
 407 352 407 352 385.5 250 c 128,-1,15
 364 148 364 148 322 63 c 128,-1,16
 280 -22 280 -22 233 -22 c 0,17,18
 222 -22 222 -22 204 -11 c 128,-1,19
 186 0 186 0 135 39 c 1,20,-1
 109 -128 l 2,21,22
 101 -174 101 -174 89.5 -181.5 c 128,-1,23
 78 -189 78 -189 15 -189 c 1,24,-1
 159 722 l 1,25,26
 228 722 228 722 234 712 c 0,27,28
 238 706 238 706 238 697 c 1,9,-1
EndSplineSet
EndChar

StartChar: dotlessi
Encoding: 305 305 193
Width: 207
GlyphClass: 2
Flags: W
LayerCount: 2
Fore
SplineSet
132 454 m 2,0,-1
 224 454 l 1,1,-1
 171 121 l 1,2,-1
 92 121 l 1,3,-1
 134 382 l 1,4,-1
 57 382 l 1,5,6
 66 436 66 436 75.5 445 c 128,-1,7
 85 454 85 454 132 454 c 2,0,-1
EndSplineSet
EndChar

StartChar: I_J
Encoding: 306 306 194
Width: 415
GlyphClass: 3
Flags: W
LayerCount: 2
Fore
SplineSet
131 0 m 2,0,1
 100 0 100 0 89 2 c 0,2,3
 65 5 65 5 65 33 c 0,4,5
 65 39 65 39 172 720 c 1,6,-1
 189 720 l 2,7,8
 231 720 231 720 243 715.5 c 128,-1,9
 255 711 255 711 255 695.5 c 128,-1,10
 255 680 255 680 148 0 c 1,11,-1
 131 0 l 2,0,1
402 720 m 2,12,13
 431 720 431 720 442 719 c 0,14,15
 470 716 470 716 468 688 c 1,16,-1
 384 146 l 1,17,18
 356 -46 356 -46 321 -100 c 0,19,20
 278 -166 278 -166 222 -182 c 0,21,22
 188 -192 188 -192 143 -192 c 1,23,-1
 155 -115 l 1,24,25
 228 -115 228 -115 262 -5 c 1,26,27
 277 47 277 47 293 144 c 128,-1,28
 309 241 309 241 339.5 434.5 c 128,-1,29
 370 628 370 628 385 720 c 1,30,-1
 402 720 l 2,12,13
EndSplineSet
Ligature2: "'liga' Standard Ligatures in Latin lookup 0 subtable" I J
EndChar

StartChar: i_j
Encoding: 307 307 195
Width: 396
GlyphClass: 3
Flags: W
LayerCount: 2
Fore
SplineSet
226.5 615 m 128,-1,1
 209 596 209 596 185.5 596 c 128,-1,2
 162 596 162 596 150 610 c 128,-1,3
 138 624 138 624 138 647.5 c 128,-1,4
 138 671 138 671 155.5 690.5 c 128,-1,5
 173 710 173 710 197 710 c 0,6,7
 244 710 244 710 244 660 c 0,8,0
 244 634 244 634 226.5 615 c 128,-1,1
211 514 m 1,9,-1
 131 -4 l 1,10,11
 62 -4 62 -4 54 6 c 0,12,13
 51 10 51 10 51 17 c 128,-1,14
 51 24 51 24 52 27 c 2,15,-1
 132 537 l 1,16,17
 199 537 199 537 207 528 c 0,18,19
 211 523 211 523 211 514 c 1,9,-1
423.5 615 m 128,-1,21
 406 596 406 596 382 596 c 128,-1,22
 358 596 358 596 346 610 c 128,-1,23
 334 624 334 624 334 648 c 128,-1,24
 334 672 334 672 352 691 c 128,-1,25
 370 710 370 710 393.5 710 c 128,-1,26
 417 710 417 710 429 696.5 c 128,-1,27
 441 683 441 683 441 658.5 c 128,-1,20
 441 634 441 634 423.5 615 c 128,-1,21
113 -189 m 1,28,-1
 124 -119 l 1,29,30
 190 -119 190 -119 213.5 -87.5 c 128,-1,31
 237 -56 237 -56 248 16 c 2,32,-1
 330 537 l 1,33,34
 397 537 397 537 404 528 c 0,35,36
 408 523 408 523 408 515 c 1,37,-1
 330 12 l 2,38,39
 324 -28 324 -28 319 -50 c 128,-1,40
 314 -72 314 -72 299.5 -103 c 128,-1,41
 285 -134 285 -134 264 -150 c 0,42,43
 210 -189 210 -189 113 -189 c 1,28,-1
EndSplineSet
Ligature2: "'liga' Standard Ligatures in Latin lookup 0 subtable" i j
EndChar

StartChar: lslash
Encoding: 322 322 197
Width: 287
GlyphClass: 2
Flags: W
LayerCount: 2
Fore
SplineSet
105 6 m 0,0,1
 102 10 102 10 102 17 c 128,-1,2
 102 24 102 24 211 722 c 1,3,4
 278 722 278 722 286 712 c 0,5,6
 290 706 290 706 290 701 c 128,-1,7
 290 696 290 696 270 567.5 c 128,-1,8
 250 439 250 439 183 9 c 1,9,-1
 169 -4 l 1,10,11
 111 -4 111 -4 105 6 c 0,0,1
325 284 m 1,12,-1
 38 284 l 1,13,-1
 49 361 l 1,14,-1
 336 361 l 1,15,-1
 325 284 l 1,12,-1
EndSplineSet
EndChar

StartChar: OE
Encoding: 338 338 198
Width: 653
GlyphClass: 2
Flags: W
LayerCount: 2
Fore
SplineSet
111.5 30.5 m 128,-1,1
 75 68 75 68 75 141.5 c 128,-1,2
 75 215 75 215 80.5 283.5 c 128,-1,3
 86 352 86 352 103 435.5 c 128,-1,4
 120 519 120 519 146.5 583 c 128,-1,5
 173 647 173 647 219.5 690.5 c 128,-1,6
 266 734 266 734 326 734 c 0,7,8
 336 734 336 734 436 720 c 1,9,-1
 725 720 l 1,10,-1
 712 640 l 1,11,-1
 504 640 l 1,12,-1
 504 629 l 1,13,-1
 475 435 l 1,14,-1
 473 430 l 1,15,-1
 666 430 l 1,16,-1
 652 347 l 1,17,-1
 459 347 l 1,18,-1
 459 335 l 1,19,-1
 421 95 l 1,20,-1
 419 84 l 1,21,-1
 634 84 l 1,22,-1
 621 0 l 1,23,-1
 328 0 l 1,24,-1
 238 -7 l 1,25,0
 148 -7 148 -7 111.5 30.5 c 128,-1,1
328 649 m 0,26,27
 286 649 286 649 253 592 c 128,-1,28
 220 535 220 535 202.5 453 c 128,-1,29
 185 371 185 371 176.5 298 c 128,-1,30
 168 225 168 225 168 175 c 128,-1,31
 168 125 168 125 185.5 101 c 128,-1,32
 203 77 203 77 245 77 c 1,33,-1
 323 84 l 1,34,-1
 411 638 l 1,35,36
 337 649 337 649 328 649 c 0,26,27
EndSplineSet
EndChar

StartChar: oe
Encoding: 339 339 199
Width: 628
GlyphClass: 2
Flags: W
LayerCount: 2
Fore
SplineSet
417 -7 m 0,0,1
 341 -7 341 -7 314 27 c 1,2,3
 277 -7 277 -7 202 -7 c 128,-1,4
 127 -7 127 -7 98 20.5 c 128,-1,5
 69 48 69 48 69 112 c 128,-1,6
 69 176 69 176 74 233 c 128,-1,7
 79 290 79 290 93.5 349 c 128,-1,8
 108 408 108 408 131 449.5 c 128,-1,9
 154 491 154 491 193 517.5 c 128,-1,10
 232 544 232 544 283 544 c 0,11,12
 359 544 359 544 388 512 c 1,13,14
 426 544 426 544 494 544 c 128,-1,15
 562 544 562 544 586.5 519 c 128,-1,16
 611 494 611 494 611 449.5 c 128,-1,17
 611 405 611 405 602.5 340.5 c 128,-1,18
 594 276 594 276 592 248 c 1,19,-1
 384 248 l 1,20,-1
 384 232 l 1,21,22
 370 146 370 146 370 120 c 128,-1,23
 370 94 370 94 382 83 c 128,-1,24
 394 72 394 72 437.5 72 c 128,-1,25
 481 72 481 72 558 88 c 1,26,-1
 546 11 l 1,27,28
 460 -7 460 -7 417 -7 c 0,0,1
407 340 m 2,29,-1
 406 333 l 1,30,-1
 404 329 l 1,31,-1
 405 331 l 2,32,33
 404 330 404 330 404 329 c 1,34,-1
 518 329 l 1,35,36
 528 411 528 411 528 431 c 128,-1,37
 528 451 528 451 520.5 458 c 128,-1,38
 513 465 513 465 492 465 c 0,39,40
 445 465 445 465 431 439 c 128,-1,41
 417 413 417 413 407 343 c 0,42,43
 407 341 407 341 407 340 c 2,29,-1
167 86 m 128,-1,45
 179 72 179 72 212.5 72 c 128,-1,46
 246 72 246 72 272.5 110 c 128,-1,47
 299 148 299 148 310 209 c 0,48,49
 327 311 327 311 327 408 c 0,50,51
 327 438 327 438 315 451.5 c 128,-1,52
 303 465 303 465 273.5 465 c 128,-1,53
 244 465 244 465 221 436 c 128,-1,54
 198 407 198 407 186 367 c 128,-1,55
 174 327 174 327 166 276 c 0,56,57
 155 198 155 198 155 131 c 0,58,44
 155 100 155 100 167 86 c 128,-1,45
EndSplineSet
EndChar

StartChar: Scaron
Encoding: 352 352 200
Width: 391
GlyphClass: 2
Flags: W
LayerCount: 2
Fore
SplineSet
393 257 m 0,0,1
 393 -6 393 -6 175 -7 c 1,2,-1
 26 14 l 1,3,-1
 37 96 l 1,4,-1
 189 85 l 1,5,6
 301 91 301 91 301 236 c 0,7,8
 301 253 301 253 288 274.5 c 128,-1,9
 275 296 275 296 262.5 309.5 c 128,-1,10
 250 323 250 323 222 352 c 1,11,-1
 222 351 l 1,12,13
 186 388 186 388 167.5 409 c 128,-1,14
 149 430 149 430 130 467 c 128,-1,15
 111 504 111 504 111 545.5 c 128,-1,16
 111 587 111 587 118.5 619 c 128,-1,17
 126 651 126 651 146 678 c 0,18,19
 186 732 186 732 311 732 c 1,20,-1
 424 709 l 1,21,22
 417 670 417 670 404.5 656.5 c 128,-1,23
 392 643 392 643 371 643 c 1,24,-1
 304 650 l 1,25,26
 246 649 246 649 224.5 623.5 c 128,-1,27
 203 598 203 598 203 552.5 c 128,-1,28
 203 507 203 507 270 444 c 0,29,30
 298 417 298 417 326 389.5 c 128,-1,31
 354 362 354 362 373.5 327 c 128,-1,32
 393 292 393 292 393 257 c 0,0,1
455 842 m 1,33,-1
 338 789 l 1,34,-1
 307 789 l 1,35,-1
 204 843 l 1,36,-1
 214 924 l 1,37,-1
 330 865 l 1,38,-1
 466 925 l 1,39,-1
 455 842 l 1,33,-1
EndSplineSet
EndChar

StartChar: scaron
Encoding: 353 353 201
Width: 334
GlyphClass: 2
Flags: W
LayerCount: 2
Fore
SplineSet
225 178 m 0,0,1
 225 207 225 207 154 264 c 0,2,3
 127 285 127 285 104.5 318 c 128,-1,4
 82 351 82 351 81 384 c 1,5,6
 81 463 81 463 117 502.5 c 128,-1,7
 153 542 153 542 228 546 c 1,8,-1
 331 533 l 1,9,10
 323 465 323 465 277 463 c 1,11,-1
 224 469 l 1,12,13
 164 465 164 465 164 409 c 0,14,15
 164 370 164 370 238 310 c 0,16,17
 266 287 266 287 289.5 255 c 128,-1,18
 313 223 313 223 313 185.5 c 128,-1,19
 313 148 313 148 299.5 104.5 c 128,-1,20
 286 61 286 61 251 27 c 128,-1,21
 216 -7 216 -7 166 -7 c 1,22,-1
 38 5 l 1,23,-1
 48 82 l 1,24,-1
 172 77 l 1,25,26
 195 78 195 78 210 108.5 c 128,-1,27
 225 139 225 139 225 178 c 0,0,1
371 647 m 1,28,-1
 254 594 l 1,29,-1
 223 594 l 1,30,-1
 120 648 l 1,31,-1
 130 729 l 1,32,-1
 246 670 l 1,33,-1
 382 730 l 1,34,-1
 371 647 l 1,28,-1
EndSplineSet
EndChar

StartChar: zcaron
Encoding: 382 382 204
Width: 333
GlyphClass: 2
Flags: W
LayerCount: 2
Fore
SplineSet
186 537 m 2,0,-1
 379 537 l 1,1,-1
 366 466 l 1,2,-1
 131 79 l 1,3,-1
 236 79 l 2,4,5
 276 79 276 79 288.5 75 c 128,-1,6
 301 71 301 71 301 52 c 0,7,8
 301 47 301 47 297 0 c 1,9,-1
 27 0 l 1,10,-1
 37 69 l 1,11,-1
 264 457 l 1,12,-1
 117 457 l 1,13,14
 127 517 127 517 136 527 c 128,-1,15
 145 537 145 537 186 537 c 2,0,-1
409 647 m 1,16,-1
 292 594 l 1,17,-1
 261 594 l 1,18,-1
 158 648 l 1,19,-1
 168 729 l 1,20,-1
 284 670 l 1,21,-1
 420 730 l 1,22,-1
 409 647 l 1,16,-1
EndSplineSet
EndChar

StartChar: florin
Encoding: 402 402 205
Width: 281
GlyphClass: 2
Flags: W
LayerCount: 2
Fore
SplineSet
220 272 m 1,0,-1
 220 260 l 1,1,-1
 162 -104 l 1,2,3
 98 -104 98 -104 88 -90 c 0,4,5
 84 -84 84 -84 84 -75 c 128,-1,6
 84 -66 84 -66 136 267 c 1,7,-1
 138 272 l 1,8,-1
 90 272 l 1,9,-1
 104 351 l 1,10,-1
 151 351 l 1,11,-1
 151 364 l 1,12,13
 152 368 152 368 157 399.5 c 128,-1,14
 162 431 162 431 164.5 440.5 c 128,-1,15
 167 450 167 450 176 474.5 c 128,-1,16
 185 499 185 499 195 509 c 0,17,18
 224 538 224 538 263 540 c 1,19,-1
 360 536 l 1,20,21
 352 487 352 487 343 478 c 128,-1,22
 334 469 334 469 289 468 c 2,23,-1
 263 467 l 1,24,25
 252 455 252 455 239 372 c 1,26,-1
 233 351 l 1,27,-1
 326 351 l 1,28,-1
 313 272 l 1,29,-1
 220 272 l 1,0,-1
EndSplineSet
EndChar

StartChar: circumflex
Encoding: 710 710 206
Width: 352
GlyphClass: 2
Flags: W
LayerCount: 2
Fore
SplineSet
387 575 m 1,0,-1
 274 644 l 1,1,-1
 135 573 l 1,2,-1
 149 659 l 1,3,-1
 267 722 l 1,4,-1
 299 722 l 1,5,-1
 401 657 l 1,6,-1
 387 575 l 1,0,-1
EndSplineSet
EndChar

StartChar: caron
Encoding: 711 711 207
Width: 347
GlyphClass: 2
Flags: W
LayerCount: 2
Fore
SplineSet
398 647 m 1,0,-1
 281 594 l 1,1,-1
 250 594 l 1,2,-1
 147 648 l 1,3,-1
 157 729 l 1,4,-1
 273 670 l 1,5,-1
 409 730 l 1,6,-1
 398 647 l 1,0,-1
EndSplineSet
EndChar

StartChar: breve
Encoding: 728 728 208
Width: 352
GlyphClass: 2
Flags: W
LayerCount: 2
Fore
SplineSet
406 656 m 1,0,-1
 267 584 l 1,1,-1
 235 584 l 1,2,-1
 117 658 l 1,3,-1
 128 741 l 1,4,-1
 260 661 l 1,5,-1
 417 742 l 1,6,-1
 406 656 l 1,0,-1
EndSplineSet
EndChar

StartChar: dotaccent
Encoding: 729 729 209
Width: 176
GlyphClass: 2
Flags: W
LayerCount: 2
Fore
SplineSet
232.5 626.5 m 128,-1,1
 213 607 213 607 189.5 607 c 128,-1,2
 166 607 166 607 151 622 c 128,-1,3
 136 637 136 637 136 661.5 c 128,-1,4
 136 686 136 686 156.5 704 c 128,-1,5
 177 722 177 722 200.5 722 c 128,-1,6
 224 722 224 722 238 708 c 128,-1,7
 252 694 252 694 252 670 c 128,-1,0
 252 646 252 646 232.5 626.5 c 128,-1,1
EndSplineSet
EndChar

StartChar: ring
Encoding: 730 730 210
Width: 249
GlyphClass: 2
Flags: W
LayerCount: 2
Fore
SplineSet
290.5 698.5 m 128,-1,1
 314 676 314 676 314 638.5 c 128,-1,2
 314 601 314 601 281.5 569.5 c 128,-1,3
 249 538 249 538 210.5 538 c 128,-1,4
 172 538 172 538 149 560.5 c 128,-1,5
 126 583 126 583 126 620.5 c 128,-1,6
 126 658 126 658 158 689.5 c 128,-1,7
 190 721 190 721 228.5 721 c 128,-1,0
 267 721 267 721 290.5 698.5 c 128,-1,1
245 636 m 0,8,9
 245 653 245 653 227 653 c 0,10,11
 216 653 216 653 205 644.5 c 128,-1,12
 194 636 194 636 194 626 c 128,-1,13
 194 616 194 616 200 610.5 c 128,-1,14
 206 605 206 605 216 605 c 128,-1,15
 226 605 226 605 235.5 614 c 128,-1,16
 245 623 245 623 245 636 c 0,8,9
EndSplineSet
EndChar

StartChar: ogonek
Encoding: 731 731 211
Width: 203
GlyphClass: 2
Flags: W
LayerCount: 2
Fore
SplineSet
180 -189 m 1,0,-1
 80 -189 l 1,1,-1
 0 -97 l 1,2,-1
 0 -63 l 1,3,-1
 57 28 l 1,4,-1
 143 28 l 1,5,-1
 77 -79 l 1,6,-1
 180 -189 l 1,0,-1
EndSplineSet
EndChar

StartChar: tilde
Encoding: 732 732 212
Width: 377
GlyphClass: 2
Flags: W
LayerCount: 2
Fore
SplineSet
236 710 m 1,0,-1
 346 707 l 2,1,2
 373 707 373 707 388 710 c 1,3,-1
 418 708 l 1,4,-1
 413 672 l 2,5,6
 409 642 409 642 399 637 c 128,-1,7
 389 632 389 632 338 632 c 1,8,-1
 228 635 l 2,9,10
 200 635 200 635 187 632 c 1,11,-1
 156 634 l 1,12,-1
 161 670 l 1,13,14
 168 700 168 700 177 705 c 128,-1,15
 186 710 186 710 236 710 c 1,0,-1
EndSplineSet
EndChar

StartChar: hungarumlaut
Encoding: 733 733 213
Width: 382
GlyphClass: 2
Flags: W
LayerCount: 2
Fore
SplineSet
306 678 m 1,0,-1
 157 549 l 1,1,-1
 112 606 l 1,2,-1
 203 692 l 2,3,4
 233 720 233 720 251 722 c 1,5,6
 263 722 263 722 285 700 c 2,7,-1
 306 678 l 1,0,-1
468 678 m 1,8,-1
 319 549 l 1,9,-1
 274 606 l 1,10,-1
 365 692 l 2,11,12
 395 720 395 720 413 722 c 1,13,14
 425 722 425 722 447 700 c 2,15,-1
 468 678 l 1,8,-1
EndSplineSet
EndChar

StartChar: pi
Encoding: 960 960 214
Width: 287
GlyphClass: 2
Flags: W
LayerCount: 2
Fore
SplineSet
290 -10 m 1,0,-1
 211 -10 l 1,1,-1
 253 251 l 1,2,-1
 176 251 l 1,3,-1
 187 323 l 1,4,-1
 343 323 l 1,5,-1
 290 -10 l 1,0,-1
95 323 m 2,6,-1
 187 323 l 1,7,-1
 134 -10 l 1,8,-1
 55 -10 l 1,9,-1
 97 251 l 1,10,-1
 20 251 l 1,11,12
 29 305 29 305 38.5 314 c 128,-1,13
 48 323 48 323 95 323 c 2,6,-1
EndSplineSet
EndChar

StartChar: endash
Encoding: 8211 8211 215
Width: 395
GlyphClass: 2
Flags: W
LayerCount: 2
Fore
SplineSet
379 284 m 1,0,-1
 92 284 l 1,1,-1
 103 361 l 1,2,-1
 390 361 l 1,3,-1
 379 284 l 1,0,-1
EndSplineSet
EndChar

StartChar: emdash
Encoding: 8212 8212 216
Width: 613
GlyphClass: 2
Flags: W
LayerCount: 2
Fore
SplineSet
589 284 m 1,0,-1
 95 284 l 1,1,-1
 106 361 l 1,2,-1
 600 361 l 1,3,-1
 589 284 l 1,0,-1
EndSplineSet
EndChar

StartChar: quoteleft
Encoding: 8216 8216 217
Width: 166
GlyphClass: 2
Flags: W
LayerCount: 2
Fore
SplineSet
252 678 m 1,0,1
 210 585 210 585 210 551.5 c 128,-1,2
 210 518 210 518 191.5 498 c 128,-1,3
 173 478 173 478 147.5 478 c 128,-1,4
 122 478 122 478 108 492 c 128,-1,5
 94 506 94 506 94 524.5 c 128,-1,6
 94 543 94 543 122 591 c 128,-1,7
 150 639 150 639 178.5 680.5 c 128,-1,8
 207 722 207 722 210 722 c 1,9,-1
 247 695 l 1,10,-1
 252 678 l 1,0,1
EndSplineSet
EndChar

StartChar: quoteright
Encoding: 8217 8217 218
Width: 164
GlyphClass: 2
Flags: W
LayerCount: 2
Fore
SplineSet
99 522 m 1,0,1
 141 616 141 616 141 648.5 c 128,-1,2
 141 681 141 681 159.5 701.5 c 128,-1,3
 178 722 178 722 203.5 722 c 128,-1,4
 229 722 229 722 243 707.5 c 128,-1,5
 257 693 257 693 257 671 c 128,-1,6
 257 649 257 649 201.5 563.5 c 128,-1,7
 146 478 146 478 140 478 c 1,8,-1
 103 505 l 1,9,-1
 99 522 l 1,0,1
EndSplineSet
EndChar

StartChar: quotesinglbase
Encoding: 8218 8218 219
Width: 164
GlyphClass: 2
Flags: W
LayerCount: 2
Fore
SplineSet
0 -85 m 1,0,1
 42 10 42 10 42 42 c 128,-1,2
 42 74 42 74 61 94.5 c 128,-1,3
 80 115 80 115 104.5 115 c 128,-1,4
 129 115 129 115 143.5 100.5 c 128,-1,5
 158 86 158 86 158 65.5 c 128,-1,6
 158 45 158 45 104 -42 c 128,-1,7
 50 -129 50 -129 42 -129 c 1,8,-1
 5 -102 l 1,9,-1
 0 -85 l 1,0,1
EndSplineSet
EndChar

StartChar: quotedblleft
Encoding: 8220 8220 220
Width: 343
GlyphClass: 2
Flags: W
LayerCount: 2
Fore
SplineSet
408 678 m 1,0,1
 366 585 366 585 366 551.5 c 128,-1,2
 366 518 366 518 347.5 498 c 128,-1,3
 329 478 329 478 303.5 478 c 128,-1,4
 278 478 278 478 264 492 c 128,-1,5
 250 506 250 506 250 528 c 128,-1,6
 250 550 250 550 305 636 c 128,-1,7
 360 722 360 722 366 722 c 1,8,-1
 403 695 l 1,9,-1
 408 678 l 1,0,1
271 678 m 1,10,11
 230 584 230 584 230 551 c 128,-1,12
 230 518 230 518 211.5 498 c 128,-1,13
 193 478 193 478 167.5 478 c 128,-1,14
 142 478 142 478 127.5 492 c 128,-1,15
 113 506 113 506 113 528 c 128,-1,16
 113 550 113 550 168.5 636 c 128,-1,17
 224 722 224 722 230 722 c 1,18,-1
 267 695 l 1,19,-1
 271 678 l 1,10,11
EndSplineSet
EndChar

StartChar: quotedblright
Encoding: 8221 8221 221
Width: 343
GlyphClass: 2
Flags: W
LayerCount: 2
Fore
SplineSet
116 522 m 1,0,1
 159 616 159 616 159 648.5 c 128,-1,2
 159 681 159 681 177 701.5 c 128,-1,3
 195 722 195 722 220.5 722 c 128,-1,4
 246 722 246 722 260 707.5 c 128,-1,5
 274 693 274 693 274 674.5 c 128,-1,6
 274 656 274 656 246 608 c 128,-1,7
 218 560 218 560 189.5 519 c 128,-1,8
 161 478 161 478 158 478 c 1,9,-1
 121 505 l 1,10,-1
 116 522 l 1,0,1
252 522 m 1,11,12
 295 616 295 616 295 648.5 c 128,-1,13
 295 681 295 681 313.5 701.5 c 128,-1,14
 332 722 332 722 357 722 c 128,-1,15
 382 722 382 722 396.5 707.5 c 128,-1,16
 411 693 411 693 411 671 c 128,-1,17
 411 649 411 649 355.5 563.5 c 128,-1,18
 300 478 300 478 294 478 c 1,19,-1
 257 505 l 1,20,-1
 252 522 l 1,11,12
EndSplineSet
EndChar

StartChar: quotedblbase
Encoding: 8222 8222 222
Width: 345
GlyphClass: 2
Flags: W
LayerCount: 2
Fore
SplineSet
18 -85 m 1,0,1
 59 10 59 10 59 42 c 128,-1,2
 59 74 59 74 78.5 94.5 c 128,-1,3
 98 115 98 115 122 115 c 128,-1,4
 146 115 146 115 161 100.5 c 128,-1,5
 176 86 176 86 176 65.5 c 128,-1,6
 176 45 176 45 121.5 -42 c 128,-1,7
 67 -129 67 -129 59 -129 c 1,8,-1
 22 -102 l 1,9,-1
 18 -85 l 1,0,1
156 -85 m 1,10,11
 198 10 198 10 198 42 c 128,-1,12
 198 74 198 74 217 94.5 c 128,-1,13
 236 115 236 115 260 115 c 128,-1,14
 284 115 284 115 299 100.5 c 128,-1,15
 314 86 314 86 314 65.5 c 128,-1,16
 314 45 314 45 260 -42 c 128,-1,17
 206 -129 206 -129 198 -129 c 1,18,-1
 161 -102 l 1,19,-1
 156 -85 l 1,10,11
EndSplineSet
EndChar

StartChar: dagger
Encoding: 8224 8224 223
Width: 288
GlyphClass: 2
Flags: W
LayerCount: 2
Fore
SplineSet
161 410 m 1,0,-1
 161 421 l 1,1,-1
 208 722 l 1,2,-1
 297 722 l 1,3,-1
 249 415 l 1,4,-1
 247 410 l 1,5,-1
 347 410 l 1,6,-1
 336 333 l 1,7,-1
 234 333 l 1,8,-1
 234 322 l 1,9,-1
 183 0 l 1,10,-1
 94 0 l 1,11,-1
 147 333 l 1,12,-1
 49 333 l 1,13,-1
 60 410 l 1,14,-1
 161 410 l 1,0,-1
EndSplineSet
EndChar

StartChar: daggerdbl
Encoding: 8225 8225 224
Width: 292
GlyphClass: 2
Flags: W
LayerCount: 2
Fore
SplineSet
179 509 m 1,0,-1
 179 520 l 1,1,-1
 210 722 l 1,2,-1
 299 722 l 1,3,-1
 267 513 l 1,4,-1
 265 509 l 1,5,-1
 366 509 l 1,6,-1
 354 432 l 1,7,-1
 252 432 l 1,8,-1
 246 400 l 1,9,-1
 242 390 l 1,10,-1
 343 390 l 1,11,-1
 332 313 l 1,12,-1
 230 313 l 1,13,-1
 230 302 l 1,14,-1
 186 0 l 1,15,-1
 97 0 l 1,16,-1
 142 306 l 1,17,-1
 144 313 l 1,18,-1
 45 313 l 1,19,-1
 56 390 l 1,20,-1
 157 390 l 1,21,-1
 163 422 l 1,22,-1
 167 432 l 1,23,-1
 67 432 l 1,24,-1
 79 509 l 1,25,-1
 179 509 l 1,0,-1
EndSplineSet
EndChar

StartChar: bullet
Encoding: 8226 8226 225
Width: 222
GlyphClass: 2
Flags: W
LayerCount: 2
Fore
SplineSet
214 358.5 m 128,-1,1
 234 339 234 339 234 306.5 c 128,-1,2
 234 274 234 274 205.5 247 c 128,-1,3
 177 220 177 220 145 220 c 128,-1,4
 113 220 113 220 93 240 c 128,-1,5
 73 260 73 260 73 291.5 c 128,-1,6
 73 323 73 323 100.5 350.5 c 128,-1,7
 128 378 128 378 161 378 c 128,-1,0
 194 378 194 378 214 358.5 c 128,-1,1
EndSplineSet
EndChar

StartChar: ellipsis
Encoding: 8230 8230 226
Width: 489
GlyphClass: 2
Flags: W
LayerCount: 2
Fore
SplineSet
154 100.5 m 128,-1,1
 168 86 168 86 168 62.5 c 128,-1,2
 168 39 168 39 148 19.5 c 128,-1,3
 128 0 128 0 104.5 0 c 128,-1,4
 81 0 81 0 66 15 c 128,-1,5
 51 30 51 30 51 53 c 128,-1,6
 51 76 51 76 71 95.5 c 128,-1,7
 91 115 91 115 115.5 115 c 128,-1,0
 140 115 140 115 154 100.5 c 128,-1,1
286.5 19.5 m 128,-1,9
 267 0 267 0 243 0 c 128,-1,10
 219 0 219 0 204 15 c 128,-1,11
 189 30 189 30 189 52.5 c 128,-1,12
 189 75 189 75 209 95 c 128,-1,13
 229 115 229 115 253.5 115 c 128,-1,14
 278 115 278 115 292 100.5 c 128,-1,15
 306 86 306 86 306 62.5 c 128,-1,8
 306 39 306 39 286.5 19.5 c 128,-1,9
424.5 101 m 128,-1,17
 439 87 439 87 439 63 c 128,-1,18
 439 39 439 39 419 19.5 c 128,-1,19
 399 0 399 0 375.5 0 c 128,-1,20
 352 0 352 0 337 15 c 128,-1,21
 322 30 322 30 322 52.5 c 128,-1,22
 322 75 322 75 341.5 95 c 128,-1,23
 361 115 361 115 385.5 115 c 128,-1,16
 410 115 410 115 424.5 101 c 128,-1,17
EndSplineSet
EndChar

StartChar: perthousand
Encoding: 8240 8240 227
Width: 374
GlyphClass: 2
Flags: W
LayerCount: 2
Fore
SplineSet
84 0 m 1,0,-1
 -13 0 l 1,1,-1
 390 722 l 1,2,-1
 487 722 l 1,3,-1
 84 0 l 1,0,-1
EndSplineSet
EndChar

StartChar: guilsinglleft
Encoding: 8249 8249 228
Width: 185
GlyphClass: 2
Flags: W
LayerCount: 2
Fore
SplineSet
178 128 m 1,0,-1
 97 128 l 1,1,-1
 49 288 l 1,2,-1
 53 318 l 1,3,-1
 150 474 l 1,4,-1
 235 474 l 1,5,-1
 127 297 l 1,6,-1
 178 128 l 1,0,-1
EndSplineSet
EndChar

StartChar: guilsinglright
Encoding: 8250 8250 229
Width: 185
GlyphClass: 2
Flags: W
LayerCount: 2
Fore
SplineSet
124 128 m 1,0,-1
 38 128 l 1,1,-1
 145 304 l 1,2,-1
 95 474 l 1,3,-1
 175 474 l 1,4,-1
 222 313 l 1,5,-1
 219 283 l 1,6,-1
 124 128 l 1,0,-1
EndSplineSet
EndChar

StartChar: fraction
Encoding: 8260 8260 230
Width: 372
GlyphClass: 2
Flags: W
LayerCount: 2
Fore
SplineSet
84 0 m 1,0,-1
 -13 0 l 1,1,-1
 390 722 l 1,2,-1
 487 722 l 1,3,-1
 84 0 l 1,0,-1
EndSplineSet
EndChar

StartChar: Euro
Encoding: 8364 8364 231
Width: 394
GlyphClass: 2
Flags: W
LayerCount: 2
Fore
SplineSet
276 183 m 2,0,-1
 201 186 l 1,1,2
 196 165 196 165 196 131.5 c 128,-1,3
 196 98 196 98 204.5 85.5 c 128,-1,4
 213 73 213 73 236 73 c 2,5,-1
 345 73 l 1,6,-1
 335 2 l 1,7,-1
 228 -6 l 1,8,9
 162 -6 162 -6 136.5 20.5 c 128,-1,10
 111 47 111 47 111 97.5 c 128,-1,11
 111 148 111 148 118 193 c 1,12,-1
 48 193 l 1,13,-1
 53 229 l 2,14,15
 58 260 58 260 67 265 c 128,-1,16
 76 270 76 270 128 270 c 2,17,-1
 130 270 l 1,18,-1
 133 287 l 1,19,-1
 65 287 l 1,20,-1
 71 323 l 2,21,22
 76 354 76 354 85.5 359 c 128,-1,23
 95 364 95 364 146 364 c 1,24,-1
 146 367 l 1,25,26
 164 466 164 466 197 505.5 c 128,-1,27
 230 545 230 545 310 545 c 1,28,-1
 420 537 l 1,29,30
 411 484 411 484 402 475 c 128,-1,31
 393 466 393 466 348 466 c 2,32,-1
 302 466 l 2,33,34
 270 466 270 466 255 442 c 128,-1,35
 240 418 240 418 228 358 c 1,36,-1
 235 358 l 2,37,38
 240 358 240 358 258 355.5 c 128,-1,39
 276 353 276 353 284 352 c 0,40,41
 312 351 312 351 333 356 c 1,42,-1
 364 354 l 1,43,-1
 360 318 l 2,44,45
 356 288 356 288 346 282.5 c 128,-1,46
 336 277 336 277 294 277 c 128,-1,47
 252 277 252 277 216 280 c 1,48,-1
 213 263 l 1,49,50
 252 259 252 259 277 259 c 128,-1,51
 302 259 302 259 316 262 c 1,52,-1
 346 260 l 1,53,-1
 342 224 l 2,54,55
 338 190 338 190 306 186 c 0,56,57
 290 183 290 183 276 183 c 2,0,-1
EndSplineSet
EndChar

StartChar: trademark
Encoding: 8482 8482 232
Width: 540
GlyphClass: 2
Flags: W
LayerCount: 2
Fore
SplineSet
531 352 m 1,0,-1
 461 352 l 1,1,-1
 494 560 l 1,2,-1
 456 494 l 1,3,-1
 390 494 l 1,4,-1
 370 565 l 1,5,-1
 336 352 l 1,6,-1
 266 352 l 1,7,-1
 324 722 l 1,8,-1
 388 722 l 1,9,-1
 434 581 l 1,10,-1
 523 722 l 1,11,-1
 590 722 l 1,12,-1
 531 352 l 1,0,-1
161 352 m 1,13,-1
 89 352 l 1,14,-1
 136 649 l 1,15,-1
 87 649 l 1,16,-1
 97 722 l 1,17,-1
 268 722 l 1,18,-1
 258 649 l 1,19,-1
 207 649 l 1,20,-1
 161 352 l 1,13,-1
EndSplineSet
EndChar

StartChar: minus
Encoding: 8722 8722 238
Width: 336
GlyphClass: 2
Flags: W
LayerCount: 2
Fore
SplineSet
322 284 m 1,0,-1
 91 284 l 1,1,-1
 102 361 l 1,2,-1
 333 361 l 1,3,-1
 322 284 l 1,0,-1
EndSplineSet
EndChar

StartChar: approxequal
Encoding: 8776 8776 242
Width: 364
GlyphClass: 2
Flags: W
LayerCount: 2
Fore
SplineSet
139 263 m 1,0,-1
 299 253 l 1,1,-1
 327 256 l 1,2,-1
 359 254 l 1,3,-1
 353 217 l 2,4,5
 348 187 348 187 339 182 c 128,-1,6
 330 177 330 177 279 177 c 1,7,-1
 117 187 l 1,8,-1
 89 185 l 1,9,-1
 59 187 l 1,10,-1
 65 223 l 2,11,12
 70 253 70 253 79 258 c 128,-1,13
 88 263 88 263 139 263 c 1,0,-1
148 397 m 1,14,-1
 308 387 l 1,15,-1
 336 390 l 1,16,-1
 368 388 l 1,17,-1
 362 351 l 2,18,19
 357 321 357 321 348 316 c 128,-1,20
 339 311 339 311 288 311 c 1,21,-1
 126 321 l 1,22,-1
 98 319 l 1,23,-1
 68 321 l 1,24,-1
 74 357 l 2,25,26
 79 387 79 387 88 392 c 128,-1,27
 97 397 97 397 148 397 c 1,14,-1
EndSplineSet
EndChar

StartChar: notequal
Encoding: 8800 8800 243
Width: 363
GlyphClass: 2
Flags: W
LayerCount: 2
Fore
SplineSet
357 308 m 1,0,-1
 70 308 l 1,1,-1
 82 385 l 1,2,-1
 369 385 l 1,3,-1
 357 308 l 1,0,-1
334 190 m 1,4,-1
 47 190 l 1,5,-1
 59 267 l 1,6,-1
 346 267 l 1,7,-1
 334 190 l 1,4,-1
EndSplineSet
EndChar

StartChar: lessequal
Encoding: 8804 8804 244
Width: 273
GlyphClass: 2
Flags: W
LayerCount: 2
Fore
SplineSet
292 155 m 1,0,-1
 209 155 l 1,1,-1
 112 336 l 1,2,-1
 116 368 l 1,3,-1
 264 518 l 1,4,-1
 350 518 l 1,5,-1
 191 348 l 1,6,-1
 292 155 l 1,0,-1
281 80 m 1,7,-1
 50 80 l 1,8,-1
 61 155 l 1,9,-1
 292 155 l 1,10,-1
 281 80 l 1,7,-1
EndSplineSet
EndChar

StartChar: greaterequal
Encoding: 8805 8805 245
Width: 232
GlyphClass: 2
Flags: W
LayerCount: 2
Fore
SplineSet
123 154 m 1,0,-1
 35 154 l 1,1,-1
 195 342 l 1,2,-1
 95 506 l 1,3,-1
 177 506 l 1,4,-1
 275 354 l 1,5,-1
 270 323 l 1,6,-1
 123 154 l 1,0,-1
255 81 m 1,7,-1
 24 81 l 1,8,-1
 35 154 l 1,9,-1
 266 154 l 1,10,-1
 255 81 l 1,7,-1
EndSplineSet
EndChar

StartChar: ff
Encoding: 64256 64256 247
Width: 462
GlyphClass: 2
Flags: W
LayerCount: 2
Fore
SplineSet
129 -189 m 1,0,-1
 140 -119 l 1,1,2
 206 -119 206 -119 229.5 -87.5 c 128,-1,3
 253 -56 253 -56 264 16 c 2,4,-1
 329 433 l 1,5,-1
 339 457 l 1,6,-1
 197 457 l 1,7,-1
 203 436 l 1,8,-1
 136 12 l 2,9,10
 120 -83 120 -83 101 -112 c 0,11,12
 72 -155 72 -155 45 -166 c 0,13,14
 -10 -189 -10 -189 -81 -189 c 1,15,-1
 -70 -119 l 1,16,17
 -4 -119 -4 -119 19.5 -87.5 c 128,-1,18
 43 -56 43 -56 54 16 c 2,19,-1
 119 433 l 1,20,-1
 129 457 l 1,21,-1
 76 457 l 1,22,-1
 89 537 l 1,23,-1
 144 537 l 1,24,-1
 139 564 l 1,25,26
 145 600 145 600 148.5 618.5 c 128,-1,27
 152 637 152 637 161 658.5 c 128,-1,28
 170 680 170 680 182 689 c 128,-1,29
 194 698 194 698 216 707 c 0,30,31
 250 721 250 721 342 721 c 1,32,-1
 332 648 l 1,33,34
 269 648 269 648 262 643 c 128,-1,35
 255 638 255 638 250 635.5 c 128,-1,36
 245 633 245 633 242 623.5 c 128,-1,37
 239 614 239 614 237 608 c 128,-1,38
 235 602 235 602 231 586 c 2,39,-1
 224 558 l 1,40,-1
 212 537 l 1,41,-1
 354 537 l 1,42,-1
 349 564 l 1,43,44
 366 669 366 669 394 689 c 0,45,46
 428 714 428 714 471.5 717.5 c 128,-1,47
 515 721 515 721 562 721 c 1,48,-1
 552 648 l 1,49,50
 480 648 480 648 461 635 c 0,51,52
 447 625 447 625 442.5 603.5 c 128,-1,53
 438 582 438 582 434 558 c 1,54,-1
 422 537 l 1,55,-1
 512 537 l 1,56,-1
 499 457 l 1,57,-1
 407 457 l 1,58,-1
 413 436 l 1,59,-1
 346 12 l 2,60,61
 330 -83 330 -83 311 -112 c 0,62,63
 282 -155 282 -155 255 -166 c 0,64,65
 200 -189 200 -189 129 -189 c 1,0,-1
EndSplineSet
EndChar

StartChar: fi
Encoding: 64257 64257 248
Width: 375
GlyphClass: 3
Flags: W
LayerCount: 2
Fore
SplineSet
352 721 m 2,0,-1
 451 721 l 1,1,-1
 434 648 l 1,2,-1
 342 648 l 2,3,4
 270 648 270 648 251 635 c 0,5,6
 237 625 237 625 232.5 603.5 c 128,-1,7
 228 582 228 582 224 558 c 1,8,-1
 212 537 l 1,9,-1
 302 537 l 1,10,-1
 289 457 l 1,11,-1
 197 457 l 1,12,-1
 203 436 l 1,13,-1
 136 12 l 2,14,15
 120 -83 120 -83 101 -112 c 0,16,17
 72 -155 72 -155 45 -166 c 0,18,19
 -10 -189 -10 -189 -81 -189 c 1,20,-1
 -70 -119 l 1,21,22
 -4 -119 -4 -119 19.5 -87.5 c 128,-1,23
 43 -56 43 -56 54 16 c 2,24,-1
 119 433 l 1,25,-1
 129 457 l 1,26,-1
 76 457 l 1,27,-1
 89 537 l 1,28,-1
 144 537 l 1,29,-1
 139 564 l 1,30,31
 156 669 156 669 184 689 c 0,32,33
 218 714 218 714 261.5 717.5 c 128,-1,34
 305 721 305 721 352 721 c 2,0,-1
418 514 m 1,35,-1
 338 -4 l 1,36,37
 269 -4 269 -4 262 6 c 0,38,39
 258 10 258 10 258 17 c 128,-1,40
 258 24 258 24 259 27 c 2,41,-1
 339 537 l 1,42,43
 406 537 406 537 414 528 c 0,44,45
 418 523 418 523 418 514 c 1,35,-1
EndSplineSet
Ligature2: "'liga' Standard Ligatures in Latin lookup 0 subtable" f i
EndChar

StartChar: fl
Encoding: 64258 64258 249
Width: 430
GlyphClass: 3
Flags: W
LayerCount: 2
Fore
SplineSet
288 6 m 0,0,1
 285 10 285 10 285 17.5 c 128,-1,2
 285 25 285 25 382 648 c 1,3,-1
 329 648 l 1,4,5
 265 647 265 647 249.5 633.5 c 128,-1,6
 234 620 234 620 224 558 c 1,7,-1
 212 537 l 1,8,-1
 302 537 l 1,9,-1
 289 457 l 1,10,-1
 197 457 l 1,11,-1
 203 436 l 1,12,-1
 136 12 l 2,13,14
 120 -83 120 -83 101 -112 c 0,15,16
 72 -155 72 -155 45 -166 c 0,17,18
 -10 -189 -10 -189 -81 -189 c 1,19,-1
 -70 -119 l 1,20,21
 -4 -119 -4 -119 19.5 -87.5 c 128,-1,22
 43 -56 43 -56 54 16 c 2,23,-1
 119 433 l 1,24,-1
 129 457 l 1,25,-1
 76 457 l 1,26,-1
 89 537 l 1,27,-1
 144 537 l 1,28,-1
 139 564 l 1,29,30
 156 669 156 669 184 689 c 0,31,32
 218 714 218 714 261 717.5 c 128,-1,33
 304 721 304 721 351 721 c 2,34,-1
 394 721 l 2,35,36
 461 721 461 721 469 710 c 0,37,38
 473 705 473 705 473 700 c 128,-1,39
 473 695 473 695 456 586 c 128,-1,40
 439 477 439 477 366 9 c 1,41,-1
 352 -4 l 1,42,43
 294 -4 294 -4 288 6 c 0,0,1
EndSplineSet
Ligature2: "'liga' Standard Ligatures in Latin lookup 0 subtable" f l
EndChar

StartChar: f_f_i
Encoding: 64259 64259 250
Width: 625
GlyphClass: 3
Flags: W
LayerCount: 2
Fore
SplineSet
563 721 m 2,0,-1
 655 721 l 1,1,-1
 645 648 l 1,2,-1
 553 648 l 2,3,4
 482 648 482 648 462 635 c 0,5,6
 448 625 448 625 443.5 603.5 c 128,-1,7
 439 582 439 582 435 558 c 1,8,-1
 423 537 l 1,9,-1
 564 537 l 2,10,11
 630 537 630 537 638 527 c 0,12,13
 642 522 642 522 642 517.5 c 128,-1,14
 642 513 642 513 636 477 c 2,15,-1
 562 -4 l 1,16,17
 493 -4 493 -4 486 6 c 0,18,19
 482 10 482 10 482 17 c 128,-1,20
 482 24 482 24 483 27 c 2,21,-1
 550 457 l 1,22,-1
 408 457 l 1,23,-1
 414 436 l 1,24,-1
 347 12 l 2,25,26
 331 -83 331 -83 312 -112 c 0,27,28
 283 -155 283 -155 256 -166 c 0,29,30
 201 -189 201 -189 130 -189 c 1,31,-1
 141 -119 l 1,32,33
 207 -119 207 -119 230.5 -87.5 c 128,-1,34
 254 -56 254 -56 265 16 c 2,35,-1
 330 433 l 1,36,-1
 340 457 l 1,37,-1
 197 457 l 1,38,-1
 203 436 l 1,39,-1
 136 12 l 2,40,41
 120 -83 120 -83 101 -112 c 0,42,43
 72 -155 72 -155 45 -166 c 0,44,45
 -10 -189 -10 -189 -81 -189 c 1,46,-1
 -70 -119 l 1,47,48
 -4 -119 -4 -119 19.5 -87.5 c 128,-1,49
 43 -56 43 -56 54 16 c 2,50,-1
 119 433 l 1,51,-1
 129 457 l 1,52,-1
 76 457 l 1,53,-1
 89 537 l 1,54,-1
 144 537 l 1,55,-1
 139 564 l 1,56,57
 145 600 145 600 148.5 618.5 c 128,-1,58
 152 637 152 637 161 658.5 c 128,-1,59
 170 680 170 680 182 689 c 128,-1,60
 194 698 194 698 216 707 c 0,61,62
 250 721 250 721 342 721 c 1,63,-1
 332 648 l 1,64,65
 265 648 265 648 250 635 c 128,-1,66
 235 622 235 622 224 558 c 1,67,-1
 212 537 l 1,68,-1
 355 537 l 1,69,-1
 350 564 l 1,70,71
 367 669 367 669 394 689 c 0,72,73
 429 714 429 714 472.5 717.5 c 128,-1,74
 516 721 516 721 563 721 c 2,0,-1
EndSplineSet
Ligature2: "'liga' Standard Ligatures in Latin lookup 0 subtable" f f i
EndChar

StartChar: ffl
Encoding: 64260 64260 251
Width: 642
GlyphClass: 2
Flags: W
LayerCount: 2
Fore
SplineSet
519 6 m 0,0,1
 516 10 516 10 516 17.5 c 128,-1,2
 516 25 516 25 613 648 c 1,3,-1
 553 648 l 2,4,5
 482 648 482 648 465.5 635 c 128,-1,6
 449 622 449 622 438 558 c 1,7,-1
 426 537 l 1,8,-1
 516 537 l 1,9,-1
 503 457 l 1,10,-1
 411 457 l 1,11,-1
 417 436 l 1,12,-1
 350 12 l 2,13,14
 334 -83 334 -83 315 -112 c 0,15,16
 286 -155 286 -155 259 -166 c 0,17,18
 204 -189 204 -189 133 -189 c 1,19,-1
 144 -119 l 1,20,21
 210 -119 210 -119 233.5 -87.5 c 128,-1,22
 257 -56 257 -56 268 16 c 2,23,-1
 333 433 l 1,24,-1
 343 457 l 1,25,-1
 197 457 l 1,26,-1
 203 436 l 1,27,-1
 136 12 l 2,28,29
 120 -83 120 -83 101 -112 c 0,30,31
 72 -155 72 -155 45 -166 c 0,32,33
 -10 -189 -10 -189 -81 -189 c 1,34,-1
 -70 -119 l 1,35,36
 -4 -119 -4 -119 19.5 -87.5 c 128,-1,37
 43 -56 43 -56 54 16 c 2,38,-1
 119 433 l 1,39,-1
 129 457 l 1,40,-1
 76 457 l 1,41,-1
 89 537 l 1,42,-1
 144 537 l 1,43,-1
 139 564 l 1,44,45
 156 669 156 669 184 689 c 0,46,47
 218 714 218 714 261.5 717.5 c 128,-1,48
 305 721 305 721 352 721 c 1,49,-1
 342 648 l 1,50,51
 270 648 270 648 251 635 c 0,52,53
 237 625 237 625 232.5 603.5 c 128,-1,54
 228 582 228 582 224 558 c 1,55,-1
 212 537 l 1,56,-1
 358 537 l 1,57,-1
 353 564 l 1,58,59
 364 630 364 630 374.5 655 c 128,-1,60
 385 680 385 680 397.5 688.5 c 128,-1,61
 410 697 410 697 432 706 c 0,62,63
 470 721 470 721 563 721 c 2,64,-1
 625 721 l 2,65,66
 692 721 692 721 700 710 c 0,67,68
 704 705 704 705 704 700 c 128,-1,69
 704 695 704 695 687 586 c 128,-1,70
 670 477 670 477 597 9 c 1,71,-1
 583 -4 l 1,72,73
 525 -4 525 -4 519 6 c 0,0,1
EndSplineSet
EndChar

StartChar: f_t
Encoding: 64261 64261 252
Width: 460
GlyphClass: 3
Flags: W
LayerCount: 2
Fore
SplineSet
255 62 m 0,0,1
 255 68 255 68 309 453 c 1,2,-1
 311 457 l 1,3,-1
 273 457 l 1,4,-1
 286 537 l 1,5,-1
 325 537 l 1,6,-1
 338 648 l 1,7,8
 288 648 288 648 268 642 c 128,-1,9
 248 636 248 636 240 620 c 128,-1,10
 232 604 232 604 224 558 c 2,11,-1
 136 12 l 2,12,13
 120 -83 120 -83 101 -112 c 0,14,15
 72 -155 72 -155 45 -166 c 0,16,17
 -10 -189 -10 -189 -81 -189 c 1,18,-1
 -70 -119 l 1,19,20
 -4 -119 -4 -119 19.5 -87.5 c 128,-1,21
 43 -56 43 -56 54 16 c 2,22,-1
 119 433 l 1,23,-1
 129 457 l 1,24,-1
 76 457 l 1,25,-1
 89 537 l 1,26,-1
 144 537 l 1,27,-1
 139 564 l 1,28,29
 150 630 150 630 160.5 655 c 128,-1,30
 171 680 171 680 183.5 688.5 c 128,-1,31
 196 697 196 697 218 706 c 0,32,33
 256 721 256 721 328.5 721 c 128,-1,34
 401 721 401 721 415 716.5 c 128,-1,35
 429 712 429 712 429 689 c 1,36,-1
 422 655 l 1,37,-1
 406 537 l 1,38,-1
 492 537 l 1,39,40
 483 483 483 483 472.5 470 c 128,-1,41
 462 457 462 457 421 457 c 2,42,-1
 393 457 l 1,43,-1
 393 446 l 1,44,45
 341 96 341 96 341 90 c 0,46,47
 341 72 341 72 355 72 c 2,48,-1
 436 72 l 1,49,-1
 425 1 l 1,50,-1
 347 -5 l 1,51,52
 255 -5 255 -5 255 62 c 0,0,1
EndSplineSet
Ligature2: "'liga' Standard Ligatures in Latin lookup 0 subtable" f t
EndChar

StartChar: s_t
Encoding: 64262 64262 253
Width: 575
GlyphClass: 3
Flags: W
LayerCount: 2
Fore
SplineSet
390.5 10.5 m 128,-1,1
 372 26 372 26 372 55 c 128,-1,2
 372 84 372 84 426 469 c 1,3,-1
 428 473 l 1,4,-1
 291 473 l 1,5,-1
 224 469 l 2,6,7
 164 465 164 465 164 409 c 0,8,9
 164 370 164 370 238 310 c 0,10,11
 266 287 266 287 289.5 255 c 128,-1,12
 313 223 313 223 313 185.5 c 128,-1,13
 313 148 313 148 299.5 104.5 c 128,-1,14
 286 61 286 61 251 27 c 128,-1,15
 216 -7 216 -7 166 -7 c 1,16,-1
 38 5 l 1,17,-1
 48 82 l 1,18,-1
 172 77 l 1,19,20
 195 78 195 78 210 108.5 c 128,-1,21
 225 139 225 139 225 178 c 0,22,23
 225 207 225 207 154 264 c 0,24,25
 127 285 127 285 104.5 318 c 128,-1,26
 82 351 82 351 81 384 c 1,27,28
 81 463 81 463 117 502.5 c 128,-1,29
 153 542 153 542 228 546 c 1,30,-1
 345 543 l 1,31,-1
 432 543 l 1,32,-1
 432 554 l 1,33,-1
 443 612 l 1,34,35
 494 612 494 612 508 607.5 c 128,-1,36
 522 603 522 603 522 580 c 1,37,-1
 515 552 l 1,38,-1
 513 543 l 1,39,-1
 599 543 l 1,40,41
 590 489 590 489 581 476 c 128,-1,42
 572 463 572 463 538 463 c 2,43,-1
 510 463 l 1,44,-1
 510 452 l 1,45,46
 458 102 458 102 458 87 c 128,-1,47
 458 72 458 72 472 72 c 2,48,-1
 543 72 l 1,49,-1
 532 1 l 1,50,-1
 454 -5 l 1,51,0
 409 -5 409 -5 390.5 10.5 c 128,-1,1
EndSplineSet
Ligature2: "'liga' Standard Ligatures in Latin lookup 0 subtable" s t
EndChar

StartChar: f_u
Encoding: 65539 -1 254
Width: 585
GlyphClass: 3
Flags: W
LayerCount: 2
Fore
SplineSet
581 514 m 1,0,-1
 502 0 l 1,1,2
 450 0 450 0 436 4.5 c 128,-1,3
 422 9 422 9 422 31 c 1,4,-1
 423 41 l 1,5,-1
 349 -7 l 1,6,7
 233 -7 233 -7 233 80 c 0,8,9
 233 88 233 88 285 457 c 1,10,-1
 197 457 l 1,11,-1
 203 436 l 1,12,-1
 136 12 l 2,13,14
 120 -83 120 -83 101 -112 c 0,15,16
 72 -155 72 -155 45 -166 c 0,17,18
 -10 -189 -10 -189 -81 -189 c 1,19,-1
 -70 -119 l 1,20,21
 -4 -119 -4 -119 19.5 -87.5 c 128,-1,22
 43 -56 43 -56 54 16 c 2,23,-1
 119 433 l 1,24,-1
 129 457 l 1,25,-1
 76 457 l 1,26,-1
 89 537 l 1,27,-1
 144 537 l 1,28,-1
 139 564 l 1,29,30
 156 669 156 669 184 689 c 0,31,32
 218 714 218 714 261.5 717.5 c 128,-1,33
 305 721 305 721 352 721 c 1,34,-1
 342 648 l 1,35,36
 270 648 270 648 251 635 c 0,37,38
 237 625 237 625 232.5 603.5 c 128,-1,39
 228 582 228 582 224 558 c 1,40,-1
 212 537 l 1,41,-1
 302 537 l 2,42,43
 346 537 346 537 361 533 c 128,-1,44
 376 529 376 529 376 513 c 1,45,-1
 321 109 l 1,46,47
 321 72 321 72 347 72 c 1,48,-1
 439 128 l 1,49,-1
 439 145 l 1,50,-1
 502 537 l 1,51,52
 569 537 569 537 577 528 c 0,53,54
 581 523 581 523 581 514 c 1,0,-1
EndSplineSet
Ligature2: "'liga' Standard Ligatures in Latin lookup 0 subtable" f u
EndChar

StartChar: o_t
Encoding: 65540 -1 255
Width: 610
GlyphClass: 3
Flags: W
LayerCount: 2
Fore
SplineSet
578 453 m 1,0,-1
 524 90 l 1,1,2
 524 72 524 72 538 72 c 2,3,-1
 619 72 l 1,4,-1
 608 1 l 1,5,-1
 530 -5 l 1,6,7
 438 -5 438 -5 438 62 c 0,8,9
 438 67 438 67 494 461 c 1,10,-1
 496 465 l 1,11,-1
 384 465 l 1,12,13
 386 445 386 445 386 418 c 128,-1,14
 386 391 386 391 384 353.5 c 128,-1,15
 382 316 382 316 376 261 c 128,-1,16
 370 206 370 206 355.5 162.5 c 128,-1,17
 341 119 341 119 320 78 c 1,18,19
 274 -7 274 -7 181 -7 c 0,20,21
 113 -7 113 -7 86.5 19 c 128,-1,22
 60 45 60 45 60 115.5 c 128,-1,23
 60 186 60 186 69 256.5 c 128,-1,24
 78 327 78 327 99 395 c 128,-1,25
 120 463 120 463 162.5 503.5 c 128,-1,26
 205 544 205 544 265 544 c 2,27,-1
 510 544 l 1,28,-1
 510 555 l 1,29,-1
 519 612 l 1,30,31
 570 612 570 612 584 607.5 c 128,-1,32
 598 603 598 603 598 580 c 1,33,-1
 593 553 l 1,34,-1
 591 544 l 1,35,-1
 677 544 l 1,36,37
 668 490 668 490 657.5 477 c 128,-1,38
 647 464 647 464 606 464 c 2,39,-1
 578 464 l 1,40,-1
 578 453 l 1,0,-1
256 465 m 2,41,42
 220 465 220 465 193 396 c 0,43,44
 146 277 146 277 146 125 c 0,45,46
 146 97 146 97 156 84.5 c 128,-1,47
 166 72 166 72 190 72 c 0,48,49
 223 72 223 72 247 115.5 c 128,-1,50
 271 159 271 159 281 222 c 0,51,52
 300 342 300 342 300 413 c 0,53,54
 300 439 300 439 291 451.5 c 128,-1,55
 282 464 282 464 261 465 c 1,56,-1
 256 465 l 2,41,42
EndSplineSet
Ligature2: "'liga' Standard Ligatures in Latin lookup 0 subtable" o t
EndChar

StartChar: x_t
Encoding: 65541 -1 256
Width: 578
GlyphClass: 3
Flags: W
LayerCount: 2
Fore
SplineSet
386 62 m 0,0,1
 386 68 386 68 440 453 c 1,2,-1
 442 457 l 1,3,-1
 328 457 l 1,4,-1
 245 278 l 1,5,-1
 305 0 l 1,6,-1
 221 0 l 1,7,-1
 182 201 l 1,8,-1
 82 0 l 1,9,10
 10 0 10 0 10 16 c 0,11,12
 10 21 10 21 147 292 c 1,13,-1
 97 537 l 1,14,15
 158 537 158 537 170.5 530 c 128,-1,16
 183 523 183 523 193 484 c 1,17,-1
 208 364 l 1,18,-1
 288 537 l 1,19,-1
 456 537 l 1,20,-1
 456 548 l 1,21,-1
 467 612 l 1,22,23
 518 612 518 612 532 607.5 c 128,-1,24
 546 603 546 603 546 580 c 1,25,-1
 539 546 l 1,26,-1
 537 537 l 1,27,-1
 623 537 l 1,28,29
 614 483 614 483 603.5 470 c 128,-1,30
 593 457 593 457 552 457 c 2,31,-1
 524 457 l 1,32,-1
 524 446 l 1,33,34
 472 96 472 96 472 90 c 0,35,36
 472 72 472 72 486 72 c 2,37,-1
 567 72 l 1,38,-1
 556 1 l 1,39,-1
 478 -5 l 1,40,41
 386 -5 386 -5 386 62 c 0,0,1
EndSplineSet
Ligature2: "'liga' Standard Ligatures in Latin lookup 0 subtable" x t
EndChar

StartChar: E_s
Encoding: 65542 -1 257
Width: 608
GlyphClass: 3
Flags: W
LayerCount: 2
Fore
SplineSet
252 640 m 1,0,-1
 252 629 l 1,1,-1
 222 435 l 1,2,-1
 220 430 l 1,3,-1
 367 430 l 1,4,-1
 353 347 l 1,5,-1
 206 347 l 1,6,-1
 206 335 l 1,7,-1
 167 91 l 1,8,-1
 167 89 l 2,9,10
 167 85 167 85 166 84 c 1,11,-1
 490 77 l 1,12,13
 513 78 513 78 528 108.5 c 128,-1,14
 543 139 543 139 543 178 c 0,15,16
 543 207 543 207 472 264 c 0,17,18
 445 285 445 285 422.5 318 c 128,-1,19
 400 351 400 351 399 384 c 1,20,21
 399 463 399 463 435 502.5 c 128,-1,22
 471 542 471 542 546 546 c 1,23,-1
 649 533 l 1,24,25
 641 465 641 465 595 463 c 1,26,-1
 542 469 l 1,27,28
 482 465 482 465 482 409 c 0,29,30
 482 370 482 370 556 310 c 0,31,32
 584 287 584 287 607.5 255 c 128,-1,33
 631 223 631 223 631 185.5 c 128,-1,34
 631 148 631 148 617.5 105 c 128,-1,35
 604 62 604 62 569 28.5 c 128,-1,36
 534 -5 534 -5 484 -5 c 2,37,-1
 60 0 l 1,38,-1
 174 720 l 1,39,-1
 436 720 l 1,40,-1
 423 640 l 1,41,-1
 252 640 l 1,0,-1
EndSplineSet
Ligature2: "'liga' Standard Ligatures in Latin lookup 0 subtable" E s
EndChar

StartChar: E_S
Encoding: 65543 -1 258
Width: 717
GlyphClass: 3
Flags: W
LayerCount: 2
Fore
SplineSet
252 640 m 1,0,-1
 252 629 l 1,1,-1
 222 435 l 1,2,-1
 220 430 l 1,3,-1
 387 430 l 1,4,-1
 373 347 l 1,5,-1
 206 347 l 1,6,-1
 206 335 l 1,7,-1
 167 91 l 1,8,-1
 167 89 l 2,9,10
 167 85 167 85 166 84 c 2,11,-1
 516 85 l 1,12,13
 628 91 628 91 628 236 c 0,14,15
 628 253 628 253 615 274.5 c 128,-1,16
 602 296 602 296 589.5 309.5 c 128,-1,17
 577 323 577 323 549 352 c 1,18,-1
 549 351 l 1,19,20
 513 388 513 388 494.5 409 c 128,-1,21
 476 430 476 430 457 467 c 128,-1,22
 438 504 438 504 438 545.5 c 128,-1,23
 438 587 438 587 445.5 619 c 128,-1,24
 453 651 453 651 474 678 c 1,25,26
 513 732 513 732 638 732 c 1,27,-1
 751 709 l 1,28,29
 744 670 744 670 731.5 656.5 c 128,-1,30
 719 643 719 643 698 643 c 1,31,-1
 631 650 l 1,32,33
 573 649 573 649 551.5 623.5 c 128,-1,34
 530 598 530 598 530 551 c 0,35,36
 530 507 530 507 597 444 c 0,37,38
 625 417 625 417 653 389.5 c 128,-1,39
 681 362 681 362 700.5 327 c 128,-1,40
 720 292 720 292 720 257 c 0,41,42
 720 -5 720 -5 502 -6 c 1,43,-1
 60 0 l 1,44,-1
 174 720 l 1,45,-1
 426 720 l 1,46,-1
 413 640 l 1,47,-1
 252 640 l 1,0,-1
EndSplineSet
Ligature2: "'liga' Standard Ligatures in Latin lookup 0 subtable" E S
EndChar

